<?xml version="1.0" standalone="no"?>
<!DOCTYPE svg PUBLIC "-//W3C//DTD SVG 1.1//EN" "http://www.w3.org/Graphics/SVG/1.1/DTD/svg11.dtd" >
<svg xmlns="http://www.w3.org/2000/svg" xmlns:xlink="http://www.w3.org/1999/xlink" version="1.1">
<metadata></metadata>
<defs>
<font id="seoulnamsanjanglregular" horiz-adv-x="826" >
<font-face units-per-em="1024" ascent="879" descent="-145" />
<missing-glyph horiz-adv-x="307" />
<glyph unicode=" "  horiz-adv-x="307" />
<glyph unicode="&#x09;" horiz-adv-x="307" />
<glyph unicode="&#xa0;" horiz-adv-x="307" />
<glyph unicode="!" horiz-adv-x="289" d="M177 789l-6 -538h-53l-6 538h65zM188 1h-86v94h86v-94z" />
<glyph unicode="&#x22;" horiz-adv-x="379" d="M295 809l-13 -212h-45l-14 212h72zM159 809l-14 -212h-45l-14 212h73z" />
<glyph unicode="#" horiz-adv-x="587" d="M530 481l-9 -44h-109l-28 -114h112l-11 -44h-109l-51 -225h-50l51 225h-115l-52 -225h-50l52 225h-107l9 44h106l27 114h-107l10 44h105l52 227h50l-52 -227h116l53 227h50l-53 -227h110zM361 437h-115l-27 -114h116z" />
<glyph unicode="$" horiz-adv-x="497" d="M264 75q16 2 31 7q22 7 41 26q17 18 29 45t12 63q0 32 -11 56.5t-26 42.5q-17 20 -47 38l-29 14v-292zM224 383q-16 7 -39 16q-40 15 -64 35t-40 53.5t-16 86.5q0 44 14.5 74.5t38.5 51.5q22 19 57 32q24 9 49 11v77h40v-77q36 -2 61 -12q30 -15 52 -34q22 -21 36 -47.5 t14 -44.5h-67q-1 33 -30 68q-25 28 -66 33v-290q16 -6 38 -15q43 -19 71 -40q26 -21 45.5 -53.5t19.5 -83.5t-16 -85t-39 -56q-26 -21 -61 -33q-28 -10 -58 -12v-87h-40v87q-80 4 -119 42q-44 43 -49 100h68q0 -39 33 -72q25 -28 67 -33v308zM224 706q-17 -2 -29 -6 q-20 -8 -36 -24q-16 -17 -25 -41t-9 -57q0 -35 8 -60.5t22 -41.5q13 -18 44 -32q15 -7 25 -12v274z" />
<glyph unicode="%" horiz-adv-x="784" d="M548 714l-260 -657h-52l260 657h52zM271 515q0 70 -24 114.5t-65 44.5q-40 0 -63.5 -44.5t-23.5 -114.5q0 -68 23.5 -112t63.5 -44q41 0 65 44t24 112zM329 515q0 -40 -11.5 -79t-30.5 -66q-20 -27 -47.5 -39t-57.5 -12q-28 0 -56 12t-47 39q-20 27 -30.5 66t-10.5 79 q0 42 10.5 81t30.5 66q19 27 47 39.5t56 12.5q30 0 57.5 -12.5t47.5 -39.5q19 -27 30.5 -66t11.5 -81zM690 253q0 70 -24 114.5t-65 44.5q-40 0 -63.5 -44.5t-23.5 -114.5q0 -68 23.5 -112t63.5 -44q41 0 65 44t24 112zM748 253q0 -41 -11.5 -79.5t-30.5 -65.5 q-20 -27 -47.5 -39t-57.5 -12q-29 0 -56.5 12t-46.5 39q-20 27 -30.5 65.5t-10.5 79.5q0 42 10.5 81t30.5 66q19 26 46.5 39t56.5 13q30 0 57.5 -13t47.5 -39q19 -27 30.5 -66t11.5 -81z" />
<glyph unicode="&#x26;" horiz-adv-x="705" d="M658 43h-73l-81 108q-49 -49 -102 -81q-27 -16 -59 -26.5t-67 -11.5q-55 -3 -106.5 25.5t-77.5 83.5q-22 49 -12.5 107.5t48.5 100.5q43 46 79 71t57 42q-44 56 -61.5 88.5t-20.5 64.5q-3 28 7.5 54.5t28.5 44.5q20 20 48 32t62 12q26 0 53.5 -7.5t48.5 -23.5 q22 -15 35.5 -40t14.5 -59q1 -32 -20.5 -67t-55.5 -63q-17 -14 -30.5 -24t-28.5 -22l166 -217l77 93l42 -38l-86 -96zM420 634q0 35 -28 58.5t-63 23.5q-34 0 -59 -25.5t-25 -62.5q0 -35 22 -71.5t43 -64.5q22 11 49 37q20 17 40.5 44t20.5 61zM472 192l-175 228 q-67 -43 -118 -100q-24 -28 -34.5 -72t7.5 -88q12 -33 47 -57.5t74 -25.5q44 -1 99.5 31.5t99.5 83.5z" />
<glyph unicode="'" horiz-adv-x="298" d="M157 809l-14 -212h-45l-13 212h72z" />
<glyph unicode="(" horiz-adv-x="348" d="M201 268q0 -58 6 -112.5t17 -100.5q12 -46 30 -80.5t42 -46.5v-34q-50 14 -83 60t-48 107q-17 59 -22 123t-5 116v129q0 54 5 118t22 123q15 61 48 107t83 60v-34q-24 -12 -42 -46.5t-30 -80.5q-11 -46 -17 -100.5t-6 -113.5v-194z" />
<glyph unicode=")" horiz-adv-x="348" d="M147 268v194q0 59 -6 113.5t-17 100.5t-29.5 80.5t-42.5 46.5v34q50 -14 83 -60t48 -107q17 -59 22 -123t5 -118v-129q0 -52 -5 -116t-22 -123q-15 -61 -48 -107t-83 -60v34q24 12 42.5 46.5t29.5 80.5t17 100.5t6 112.5z" />
<glyph unicode="*" horiz-adv-x="369" d="M231 623l35 5h65v-39h-66l-35 4h-21l10 -17l25 -27l32 -54l-32 -20l-35 56l-14 32l-10 16l-10 -16l-14 -32l-35 -56l-33 20l33 54l25 27l10 17h-23l-36 -4h-63v39h62l36 -5h21l-11 17l-20 28l-34 54l34 20l33 -53l13 -33l12 -21l12 21l13 33l33 53l33 -20l-33 -54 l-21 -28l-10 -17h19z" />
<glyph unicode="+" horiz-adv-x="528" d="M474 373h-183v-206h-53v206h-183v50h183v207h53v-207h183v-50z" />
<glyph unicode="," horiz-adv-x="229" d="M161 103l-47 -213h-53l20 213h80z" />
<glyph unicode="-" horiz-adv-x="388" d="M334 369h-282v57h282v-57z" />
<glyph unicode="." horiz-adv-x="229" d="M158 1h-86v94h86v-94z" />
<glyph unicode="/" horiz-adv-x="352" d="M313 831l-219 -931h-55l218 931h56z" />
<glyph unicode="0" horiz-adv-x="502" d="M251 75q29 0 56 21t43 64q18 44 25.5 103.5t7.5 123.5q0 65 -8 124t-24 103t-43.5 65t-56.5 21t-56.5 -21t-43.5 -65t-24 -103t-8 -124q0 -64 7.5 -123.5t25.5 -103.5q16 -43 43 -64t56 -21zM251 25q-39 0 -78 22.5t-64 71.5q-26 50 -39.5 121t-13.5 147q0 77 13.5 148 t39.5 121q25 49 64 71.5t78 22.5t78 -22.5t64 -71.5q26 -50 39 -121t13 -148q0 -76 -13 -147t-39 -121q-25 -49 -64 -71.5t-78 -22.5z" />
<glyph unicode="1" horiz-adv-x="502" d="M302 34h-59v645l-127 -76v56l129 83h57v-708z" />
<glyph unicode="2" horiz-adv-x="502" d="M440 42h-369v60q54 47 155.5 174t123.5 189q16 47 16 93q0 18 -6 44t-19 47q-14 22 -36 37t-53 15q-61 0 -90 -40q-29 -37 -29 -96h-63q0 64 33 115q19 28 58 47.5t93 19.5q34 0 67.5 -13t56.5 -36q23 -26 36 -60t13 -80q0 -29 -5.5 -58t-13.5 -49q-35 -81 -103 -165 t-169 -188h304v-56z" />
<glyph unicode="3" horiz-adv-x="502" d="M442 231q0 -34 -11 -73.5t-34 -68.5q-23 -28 -62 -45t-87 -17t-84 12.5t-58 30.5q-22 19 -34 49t-14 52h70q0 -9 8 -29.5t24 -36.5q13 -13 34 -23t51 -10q59 0 97.5 45t38.5 114q0 46 -19 76t-45 47q-25 17 -56 23t-47 6v44q75 0 116 40.5t41 100.5q0 64 -36.5 98 t-81.5 34q-54 0 -86.5 -30.5t-34.5 -65.5h-62q0 11 9 40.5t30 50.5t56.5 35.5t82.5 14.5q34 0 71.5 -11.5t61.5 -33.5q26 -24 38.5 -56.5t12.5 -75.5q0 -25 -8.5 -53.5t-32.5 -54.5q-31 -34 -81 -55q59 -21 87 -51q19 -20 32 -49t13 -74z" />
<glyph unicode="4" horiz-adv-x="502" d="M465 232h-103v-193h-57v193h-267v55l266 460h58v-460h103v-55zM305 287v365l-212 -365h212z" />
<glyph unicode="5" horiz-adv-x="502" d="M443 244q0 -44 -13.5 -84t-39.5 -69q-24 -29 -64 -46.5t-87 -17.5q-50 0 -84.5 14t-55.5 35q-19 22 -28 47.5t-9 41.5h69q0 -5 5 -24.5t18 -33.5q12 -14 33 -24t52 -10q57 0 98 46t44 125q0 79 -38.5 122.5t-95.5 43.5q-34 0 -63.5 -18t-41.5 -42h-62l19 386h307v-56 h-253l-15 -273q43 49 119 49q93 0 139.5 -58.5t46.5 -153.5z" />
<glyph unicode="6" horiz-adv-x="502" d="M82 157q-10 32 -17 92.5t-7 151.5q0 63 8.5 123t28.5 110q23 50 62.5 81t100.5 31q42 0 76 -14t55 -35q22 -21 32.5 -50.5t10.5 -46.5h-72q0 5 -5 27t-17 37t-33 26t-49 11q-38 0 -66.5 -26.5t-43.5 -67.5q-15 -40 -21 -83t-6 -96v-46q24 39 62 62q36 21 75 21 q48 0 81 -14t58 -43t37 -72.5t12 -90.5q0 -46 -12.5 -89t-37.5 -73q-25 -28 -62.5 -42t-75.5 -14q-37 0 -74.5 14.5t-62.5 42.5q-24 30 -37 73zM384 246q0 35 -8.5 66.5t-24.5 56.5q-18 24 -42.5 37t-51.5 13t-51.5 -13t-42.5 -37q-16 -25 -24.5 -56.5t-8.5 -66.5t8.5 -66.5 t24.5 -56.5q18 -23 42.5 -36.5t51.5 -13.5t51.5 13.5t42.5 36.5q16 25 24.5 56.5t8.5 66.5z" />
<glyph unicode="7" horiz-adv-x="502" d="M438 671l-236 -637h-62l238 640h-317v58h377v-61z" />
<glyph unicode="8" horiz-adv-x="502" d="M374 564q0 61 -36.5 99.5t-87.5 38.5q-50 0 -86 -38.5t-36 -99.5t35 -99.5t87 -38.5t88 38.5t36 99.5zM434 564q0 -38 -12.5 -71t-37.5 -57q-24 -23 -56 -35q34 -9 61 -36q27 -26 41 -62t14 -78q0 -41 -11.5 -78.5t-38.5 -65.5q-25 -28 -65 -41.5t-79 -13.5t-79 13.5 t-66 41.5t-38 65.5t-12 78.5q0 42 14.5 78t41.5 62q26 27 61 36q-33 12 -54 35q-26 23 -38 56.5t-12 71.5q0 39 12.5 72t37.5 57q24 25 60 39t72 14q37 0 72.5 -14t60.5 -39q25 -24 38 -58t13 -71zM250 74q57 0 95 42.5t38 108.5q0 67 -38.5 110t-94.5 43t-94.5 -43 t-38.5 -110q0 -66 38 -108.5t95 -42.5z" />
<glyph unicode="9" horiz-adv-x="502" d="M420 616q10 -32 16.5 -92.5t6.5 -151.5q0 -63 -8 -123t-28 -110q-23 -51 -62.5 -81.5t-100.5 -30.5q-42 0 -76 14t-55 35q-22 21 -32.5 50.5t-10.5 45.5h71q0 -4 5.5 -26t17.5 -37t33 -26t49 -11q38 0 66.5 26.5t42.5 67.5q16 40 22 83t6 95v47q-25 -39 -62 -62 q-36 -21 -75 -21q-48 0 -81 14t-59 43q-24 29 -36.5 72.5t-12.5 90.5q0 46 13 89t38 73q25 28 60 42t78 14q42 0 76.5 -14.5t60.5 -42.5q24 -30 37 -73zM372 527q0 35 -9 68t-26 57q-18 23 -42.5 35.5t-49.5 12.5q-26 0 -50.5 -12.5t-41.5 -35.5q-18 -24 -26.5 -57t-8.5 -68 t8.5 -68.5t26.5 -56.5q17 -24 41.5 -36t50.5 -12q25 0 49.5 12t42.5 36q17 23 26 56.5t9 68.5z" />
<glyph unicode=":" horiz-adv-x="371" d="M228 110h-86v93h86v-93zM228 514h-86v94h86v-94z" />
<glyph unicode=";" horiz-adv-x="371" d="M227 203l-47 -213h-52l19 213h80zM228 514h-86v94h86v-94z" />
<glyph unicode="&#x3c;" horiz-adv-x="537" d="M91 377v44l380 344v-58l-338 -308l338 -307v-59z" />
<glyph unicode="=" horiz-adv-x="537" d="M473 483h-411v50h411v-50zM473 266h-411v50h411v-50z" />
<glyph unicode="&#x3e;" horiz-adv-x="537" d="M445 377l-379 -344v59l337 307l-337 308v58l379 -344v-44z" />
<glyph unicode="?" horiz-adv-x="425" d="M383 612q0 -35 -16 -69t-35 -59q-22 -28 -42.5 -50t-30.5 -34q-12 -17 -23 -30t-18 -30q-9 -16 -12.5 -34.5t-3.5 -49.5v-37h-57v58q0 57 16 86.5t45 62.5q14 16 33.5 36.5t36.5 43.5q18 23 30.5 50t12.5 53q0 24 -11 46.5t-28 38.5q-19 15 -42.5 23.5t-48.5 8.5 q-21 0 -41 -3.5t-40 -9.5q-22 -6 -41.5 -14t-20.5 -8v60q5 2 25 7.5t39 9.5q17 5 38.5 8.5t42.5 3.5q32 0 67 -9.5t63 -29.5q27 -21 44.5 -53t17.5 -76zM218 1h-86v94h86v-94z" />
<glyph unicode="@" horiz-adv-x="911" d="M828 368q-5 -100 -49 -180t-119 -124q-44 -27 -86 -30q-33 -3 -48.5 11.5t-18.5 36.5q-1 11 -1 20v14q-22 -28 -52 -49q-12 -7 -29.5 -14.5t-42.5 -7.5t-47 9t-37 26q-17 22 -26.5 52t-7.5 72q2 36 16.5 90t52.5 111q32 49 75.5 83.5t89.5 35.5q44 1 70.5 -22t36.5 -65 l24 65h55q-12 -32 -54 -150q-42 -119 -67 -194q-17 -59 13 -71t79 20q23 15 46.5 40t37.5 53q19 33 31.5 84t13.5 85q4 96 -42.5 186t-127.5 124q-53 23 -105 23t-101 -19q-51 -18 -95 -53.5t-74 -79.5q-41 -58 -60.5 -117t-28.5 -109q-11 -53 -7 -113.5t21 -102.5 q32 -82 107.5 -135t191.5 -53q55 0 102.5 12.5t83.5 33.5q28 16 52.5 35t29.5 24l21 -26q-2 -4 -22.5 -23t-55.5 -41q-35 -24 -89 -40.5t-125 -16.5q-121 0 -213.5 54t-134.5 162q-19 47 -24 116t6 131q12 62 38.5 127.5t69.5 122.5q40 54 88.5 88t102.5 52t114.5 15.5 t121.5 -25.5q92 -35 149 -131t50 -222zM574 400q0 29 -15.5 56.5t-45.5 27.5q-32 0 -71 -36.5t-70 -93.5q-21 -39 -33 -77t-16 -76q-5 -37 2.5 -60t22.5 -35q10 -9 20 -13t23 -4q40 0 77 36t62 104q26 62 35 107t9 64z" />
<glyph unicode="A" horiz-adv-x="584" d="M291 689l-111 -368h222zM328 744l223 -702h-65l-67 225h-255l-68 -225h-64l223 702h73z" />
<glyph unicode="B" horiz-adv-x="542" d="M488 238q0 -79 -38.5 -124.5t-95.5 -61.5q-18 -6 -44.5 -8t-42.5 -2h-188v702h179q94 0 149 -46t55 -134q0 -54 -32.5 -92.5t-92.5 -59.5q58 -12 104.5 -51.5t46.5 -122.5zM139 95h113q15 0 39.5 1.5t38.5 5.5q49 16 73 53t24 83q0 48 -24 84t-73 52q-14 4 -35.5 7 t-42.5 3h-113v-289zM400 564q0 58 -33 89t-85 37q-11 1 -25 1.5t-26 0.5h-92v-255h91h25t27 1q53 6 85.5 39t32.5 87z" />
<glyph unicode="C" horiz-adv-x="587" d="M542 564h-67q0 30 -12.5 58t-34.5 46q-20 17 -46 26.5t-53 10.5q-44 0 -83 -19t-71 -59q-31 -39 -47.5 -100.5t-16.5 -121.5q0 -39 8.5 -94t36.5 -107q26 -50 77.5 -86t117.5 -36q53 0 100.5 18.5t66.5 33.5v-63q-5 -3 -19.5 -10t-36.5 -13q-58 -18 -129 -18 q-66 0 -123.5 32.5t-94.5 86.5q-38 53 -53 119.5t-15 136.5t16.5 133t52.5 112q35 47 88 77t125 30q44 0 82.5 -15t66.5 -40q28 -27 46 -63t18 -75z" />
<glyph unicode="D" horiz-adv-x="592" d="M139 690v-593h79q23 0 53 2t50 7q26 8 53 28t51 57q22 35 37 84t15 118q0 70 -15 119t-37 83q-24 37 -51 57t-53 28q-20 5 -50 7.5t-53 2.5h-79zM79 744h142q28 0 61.5 -3.5t58.5 -9.5q39 -10 74 -37.5t62 -68.5q28 -38 45 -97t17 -135q0 -75 -17 -134.5t-45 -97.5 q-27 -41 -62 -68.5t-74 -36.5q-25 -6 -58.5 -10t-61.5 -4h-142v702z" />
<glyph unicode="E" horiz-adv-x="492" d="M433 42h-354v702h346v-54h-285v-253h273v-55h-273v-285h293v-55z" />
<glyph unicode="F" horiz-adv-x="468" d="M425 690h-285v-253h275v-55h-275v-340h-61v702h346v-54z" />
<glyph unicode="G" horiz-adv-x="613" d="M542 564h-67q0 30 -12.5 58t-34.5 46q-20 17 -46 26.5t-53 10.5q-44 0 -83.5 -19t-70.5 -59q-31 -39 -47.5 -100t-16.5 -121q0 -39 9 -94t36 -107q24 -49 75 -85.5t120 -36.5q39 0 75 10t48 18v243h-157v55h219v-330q-42 -23 -90.5 -35.5t-112.5 -12.5q-70 0 -126 33 t-92 85q-37 54 -52.5 120.5t-15.5 136.5t16.5 132.5t52.5 111.5q35 47 88 77t125 30q44 0 82.5 -15t66.5 -40q28 -27 46 -63t18 -75z" />
<glyph unicode="H" horiz-adv-x="593" d="M514 42h-61v338h-313v-338h-61v702h61v-309h313v309h61v-702z" />
<glyph unicode="I" horiz-adv-x="227" d="M144 42h-61v702h61v-702z" />
<glyph unicode="J" horiz-adv-x="351" d="M272 194q0 -29 -8 -58.5t-26 -51.5q-21 -22 -54.5 -37.5t-89.5 -15.5q-24 0 -43.5 3t-32.5 7v58q8 -3 33.5 -9t48.5 -6q50 -1 81 31q14 13 22 34t8 52v543h61v-550z" />
<glyph unicode="K" horiz-adv-x="532" d="M505 42h-77l-290 344v-344h-59v702h59v-315l272 315h70l-283 -329z" />
<glyph unicode="L" horiz-adv-x="461" d="M434 42h-355v702h61v-647h294v-55z" />
<glyph unicode="M" horiz-adv-x="749" d="M670 42h-56v653l-215 -653h-51l-214 653v-653h-55v702h92l204 -625l202 625h93v-702z" />
<glyph unicode="N" horiz-adv-x="593" d="M514 42h-78l-300 632v-632h-57v702h77l301 -637v637h57v-702z" />
<glyph unicode="O" horiz-adv-x="668" d="M553 394q0 64 -15.5 123t-44.5 101q-31 42 -73 65t-87 23t-87 -23t-73 -65q-30 -42 -45 -101t-15 -123q0 -65 15 -124t45 -101q31 -42 73 -65t87 -23t87 23t73 65q29 42 44.5 101t15.5 124zM615 394q0 -75 -20.5 -143t-57.5 -117q-39 -50 -92.5 -76.5t-111.5 -26.5 q-59 0 -112 26.5t-92 76.5q-38 49 -58.5 117t-20.5 143q0 74 20.5 142.5t58.5 117.5q39 49 92 75.5t112 26.5q58 0 111.5 -26.5t92.5 -75.5q37 -49 57.5 -117.5t20.5 -142.5z" />
<glyph unicode="P" horiz-adv-x="524" d="M481 541q0 -53 -20.5 -94t-52.5 -65q-32 -23 -73 -33.5t-81 -10.5h-59v58h58q28 0 57.5 6.5t53.5 23.5q23 18 39.5 48t16.5 67q0 45 -17 73t-41 45q-25 16 -54 24t-60 8h-108v-649h-61v702h173q42 0 82.5 -11t73.5 -33q32 -22 52.5 -62t20.5 -97z" />
<glyph unicode="Q" horiz-adv-x="686" d="M489 83h68q66 0 103 10v-51h-251q-37 -11 -76 -11q-58 0 -112 25t-92 74q-39 51 -59 119.5t-20 144.5q0 75 20 144.5t59 119.5q38 49 92 74t112 25q57 0 111.5 -25t92.5 -74q38 -50 58 -119.5t20 -144.5q0 -76 -20 -144.5t-58 -119.5q-22 -27 -48 -47zM553 394 q0 63 -16 122.5t-44 103.5q-31 42 -73 64.5t-87 22.5t-87 -22.5t-73 -64.5q-29 -44 -44.5 -103.5t-15.5 -122.5q0 -64 15.5 -123t44.5 -103q31 -42 73 -64.5t87 -22.5t87 22.5t73 64.5q28 44 44 103t16 123z" />
<glyph unicode="R" horiz-adv-x="535" d="M481 547q0 -47 -21 -84t-50 -57q-28 -20 -76 -33q79 -37 108 -122q34 -96 54 -209h-65q-24 171 -67 234q-52 73 -107 73h-62v57h58q28 0 57 7t54 23q23 16 39.5 45.5t16.5 65.5q0 39 -16.5 67.5t-41.5 45.5q-25 15 -54 23t-60 8h-108v-649h-61v702h173q42 0 83 -11 t72 -33q33 -24 53.5 -59.5t20.5 -93.5z" />
<glyph unicode="S" horiz-adv-x="478" d="M436 228q0 -101 -62.5 -149t-169.5 -48q-41 0 -84.5 10.5t-66.5 17.5v64q14 -6 53 -19q23 -7 50.5 -13.5t55.5 -6.5q30 0 56.5 7t48.5 21q23 14 39.5 40.5t16.5 62.5q0 59 -49 103q-39 35 -82 56q-30 17 -64.5 36t-64.5 44t-48 55.5t-18 70.5q0 92 55.5 134.5t143.5 42.5 q22 0 45 -4t44 -9q38 -9 59 -17v-55q-5 2 -56 18.5t-101 16.5q-53 0 -90.5 -31t-37.5 -90q0 -23 11.5 -42t25.5 -35q17 -15 37 -28.5t40 -25.5q71 -37 105 -60.5t57 -45.5q51 -52 51 -121z" />
<glyph unicode="T" horiz-adv-x="543" d="M507 690h-205v-648h-61v648h-205v54h471v-54z" />
<glyph unicode="U" horiz-adv-x="605" d="M302 85q44 -2 78 18t51 52q19 33 26.5 71.5t7.5 78.5v439h61v-442q0 -44 -8.5 -92.5t-33.5 -88.5q-24 -39 -68 -64.5t-114 -25.5t-114 25.5t-68 64.5q-25 40 -33 88.5t-8 92.5v442h61v-439q0 -40 7.5 -78.5t25.5 -71.5q17 -32 50.5 -51t78.5 -19z" />
<glyph unicode="V" horiz-adv-x="579" d="M545 744l-219 -702h-74l-218 702h60l196 -642l192 642h63z" />
<glyph unicode="W" horiz-adv-x="785" d="M748 744l-125 -702h-76l-154 635l-154 -635h-76l-125 702h55l110 -642l156 642h67l157 -642l109 642h56z" />
<glyph unicode="X" horiz-adv-x="553" d="M505 42h-66l-174 310l-173 -310h-62l203 368l-186 334h66l153 -275l153 275h65l-185 -334z" />
<glyph unicode="Y" horiz-adv-x="553" d="M276 420l170 324h67l-206 -380v-322h-61v322l-206 380h65z" />
<glyph unicode="Z" horiz-adv-x="512" d="M480 42h-437v62l351 586h-336v54h401v-63l-353 -584h374v-55z" />
<glyph unicode="[" horiz-adv-x="326" d="M280 -100h-158v931h158v-45h-100v-841h100v-45z" />
<glyph unicode="\" horiz-adv-x="911" d="M855 400h-135l-65 -358h-68l-75 358h-109l-74 -358h-68l-64 358h-135v40h126l-50 278h51l49 -278h132l58 278h60l59 -278h132l48 278h51l-50 -278h127v-40zM672 400h-117l65 -306zM361 400h-116l52 -306zM412 440h92l-46 218z" />
<glyph unicode="]" horiz-adv-x="326" d="M205 -100h-159v45h99v841h-99v45h159v-931z" />
<glyph unicode="^" horiz-adv-x="433" d="M191 774h54l128 -228h-56l-99 181l-102 -181h-55z" />
<glyph unicode="_" horiz-adv-x="461" d="M452 -75h-442v36h442v-36z" />
<glyph unicode="`" horiz-adv-x="281" d="M188 592h-48l-72 158h68z" />
<glyph unicode="a" horiz-adv-x="483" d="M411 42h-60v78q-29 -40 -68 -61q-23 -14 -51.5 -21t-65.5 -7q-20 0 -43 9t-39 24q-16 16 -26 39t-10 52q0 53 28.5 92t69.5 54q28 10 60.5 15t58.5 5h86v54q0 15 -3.5 36t-15.5 39q-13 19 -37.5 32.5t-57.5 13.5q-43 0 -75 -24.5t-32 -57.5h-70q0 16 10.5 40t30.5 43 q22 20 57.5 32.5t78.5 12.5q87 0 130.5 -46.5t43.5 -116.5v-337zM351 226v54q-30 0 -59.5 -0.5t-71.5 -7.5q-40 -6 -73 -31q-37 -31 -37 -76q0 -46 25.5 -67t62.5 -21q14 0 38 7t44 18q39 25 60 64q11 22 11 60z" />
<glyph unicode="b" horiz-adv-x="512" d="M402 286q0 42 -9 81.5t-26 68.5q-19 28 -46 43.5t-54 15.5q-26 0 -52.5 -17.5t-43.5 -44.5q-17 -29 -27.5 -67t-10.5 -80t9.5 -81.5t26.5 -67.5q17 -30 44.5 -45t53.5 -15q27 0 54.5 15t45.5 45q17 28 26 67.5t9 81.5zM273 542q45 0 83.5 -20t61.5 -54t34.5 -81t11.5 -96 q0 -63 -14 -113.5t-37 -81.5q-24 -33 -61.5 -49t-83.5 -16q-47 0 -83.5 16t-59.5 49q-24 31 -37.5 81.5t-13.5 113.5v453h58v-291q48 89 141 89z" />
<glyph unicode="c" horiz-adv-x="483" d="M431 389h-64q-14 107 -111 107q-62 0 -103 -53t-41 -147q0 -22 3 -46t11 -49q10 -29 29 -55.5t53 -46.5q12 -7 35.5 -14t54.5 -7q24 0 58.5 7t60.5 22v-43q-35 -21 -78.5 -29t-88.5 -3q-39 4 -76 22t-59 44q-29 32 -48 82t-19 117q0 55 14 99.5t40 76.5t65.5 50.5 t90.5 18.5q38 0 68 -10.5t54 -32.5q46 -42 51 -110z" />
<glyph unicode="d" horiz-adv-x="512" d="M48 291q0 49 12.5 95t35.5 80q24 34 61 55t82 21q93 0 141 -89v291h58v-702h-58v87q-20 -51 -60.5 -74.5t-85.5 -23.5q-37 0 -73 17t-60 50q-23 31 -38 80.5t-15 112.5zM378 286q0 43 -10.5 81t-28.5 67q-18 28 -43 44.5t-52 16.5q-28 0 -52.5 -16.5t-43.5 -44.5 q-18 -29 -28 -67t-10 -81t10 -81t28 -66q19 -29 43.5 -45.5t52.5 -16.5q27 0 52 16.5t43 45.5q18 28 28.5 66t10.5 81z" />
<glyph unicode="e" horiz-adv-x="483" d="M112 316h258q0 82 -22 126q-12 24 -36.5 39t-55.5 15q-62 0 -103 -53q-37 -47 -41 -127zM113 270q1 -11 2 -20q3 -24 11 -49q10 -29 29 -55.5t53 -46.5q12 -7 35.5 -14t54.5 -7q24 0 58.5 7t60.5 22v-43q-35 -21 -78.5 -29t-88.5 -3q-39 4 -76 22t-59 44q-29 32 -48 82 t-19 117q0 55 14 99.5t40 76.5t64.5 50.5t89.5 18.5q41 0 78.5 -17.5t57.5 -45.5q39 -54 39 -158v-51h-318z" />
<glyph unicode="f" horiz-adv-x="358" d="M346 700q-9 3 -30.5 7t-47.5 4q-27 0 -44.5 -9t-30.5 -32q-10 -16 -12.5 -35.5t-2.5 -48.5v-56h134v-46h-134v-442h-61v442h-82v46h82v33q0 42 3.5 74.5t18.5 60.5q16 24 44 41t82 18q26 0 49 -4t32 -6v-47z" />
<glyph unicode="g" horiz-adv-x="512" d="M438 80q0 -107 -57 -160.5t-162 -53.5q-33 0 -76.5 7t-59.5 15v60q18 -11 61.5 -20.5t84.5 -9.5q67 0 106 34.5t43 89.5q2 26 2 38h58zM47 301q0 50 12.5 90.5t34.5 73.5q24 35 61.5 56t82.5 21q92 0 142 -91v79h58v-453h-58v78q-20 -51 -58.5 -77t-88.5 -26 q-37 0 -73 16.5t-60 49.5q-23 32 -38 76t-15 107zM379 296q0 41 -11 77t-29 64q-18 26 -43 42t-52 16q-28 0 -52.5 -16t-43.5 -42q-18 -28 -28.5 -64t-10.5 -77t10.5 -76.5t28.5 -63.5q19 -27 43.5 -42.5t52.5 -15.5q27 0 52 15.5t43 42.5q18 28 29 63.5t11 76.5z" />
<glyph unicode="h" horiz-adv-x="512" d="M438 42h-59v322q0 55 -27 93q-23 34 -78 34q-47 0 -82.5 -41.5t-52.5 -118.5q-4 -19 -5.5 -38t-1.5 -37v-214h-58v702h58v-320q21 57 58 86q40 32 91 32q74 0 113 -40q44 -42 44 -130v-330z" />
<glyph unicode="i" horiz-adv-x="217" d="M145 660h-75v84h75v-84zM139 42h-61v488h61v-488z" />
<glyph unicode="j" horiz-adv-x="244" d="M178 660h-76v84h76v-84zM170 45q0 -58 -13 -92.5t-38 -54.5q-26 -18 -65 -25t-66 -7v54q39 -3 61 6q62 24 62 91v513h59v-485z" />
<glyph unicode="k" horiz-adv-x="471" d="M431 42h-73l-226 248v-248h-58v702h58v-417l214 203h75l-233 -217z" />
<glyph unicode="l" horiz-adv-x="217" d="M139 42h-61v702h61v-702z" />
<glyph unicode="m" horiz-adv-x="733" d="M659 42h-56v282q0 26 -2.5 58.5t-10.5 52.5q-10 25 -29.5 37.5t-44.5 12.5q-45 0 -76.5 -43t-41.5 -115q-3 -21 -4 -39.5t-1 -35.5v-210h-53v282q0 26 -2.5 57t-11.5 54q-11 25 -29.5 37.5t-46.5 12.5q-32 0 -55.5 -20.5t-37.5 -59.5q-15 -36 -20.5 -73t-6.5 -81v-209 h-56v488h56v-94q23 53 48 75q34 31 81 31q57 0 89 -31q26 -23 43 -75q18 46 42 70q36 36 92 36q59 0 96.5 -41t37.5 -134v-325z" />
<glyph unicode="n" horiz-adv-x="512" d="M438 42h-59v322q0 55 -27 93q-23 34 -78 34q-47 0 -82.5 -41.5t-52.5 -118.5q-4 -19 -5.5 -38t-1.5 -37v-214h-58v488h58v-106q21 57 58 86q40 32 91 32q74 0 113 -40q44 -42 44 -130v-330z" />
<glyph unicode="o" horiz-adv-x="512" d="M400 286q0 43 -9.5 83.5t-29.5 68.5q-19 28 -47 43t-58 15t-58 -15t-47 -43q-20 -28 -29.5 -68.5t-9.5 -83.5t9.5 -83.5t29.5 -67.5q19 -29 47 -44t58 -15t58 15t47 44q20 27 29.5 67.5t9.5 83.5zM464 286q0 -48 -12 -93.5t-34 -77.5q-25 -37 -66.5 -60.5t-95.5 -23.5 t-95.5 23.5t-66.5 60.5q-22 32 -34 77.5t-12 93.5t12 93.5t34 77.5q25 37 66.5 60.5t95.5 23.5t95.5 -23.5t66.5 -60.5q22 -32 34 -77.5t12 -93.5z" />
<glyph unicode="p" horiz-adv-x="512" d="M464 293q0 -63 -15 -111t-38 -80q-24 -33 -60 -50t-73 -17q-51 0 -88.5 26.5t-57.5 72.5v-268h-58v664h58v-87q48 99 141 99q45 0 82 -21t61 -55q23 -34 35.5 -79t12.5 -94zM402 288q0 43 -10.5 81t-29.5 67q-18 27 -42.5 43t-52.5 16q-27 0 -52 -16.5t-43 -43.5 q-18 -29 -28.5 -66.5t-10.5 -80.5t10.5 -80.5t28.5 -65.5t43 -44.5t52 -16.5q28 0 52.5 16t42.5 44q19 28 29.5 66t10.5 81z" />
<glyph unicode="q" horiz-adv-x="512" d="M48 293q0 49 12.5 94t35.5 79q24 34 61 55t82 21q93 0 141 -99v87h58v-664h-58v268q-20 -46 -57.5 -72.5t-88.5 -26.5q-37 0 -73 17t-60 50q-23 32 -38 80t-15 111zM110 288q0 -43 10.5 -81t29.5 -66q18 -28 42.5 -44t52.5 -16q27 0 52 16.5t43 44.5t28.5 65.5t10.5 80.5 t-10.5 80.5t-28.5 66.5q-18 27 -43 43.5t-52 16.5q-28 0 -52.5 -16t-42.5 -43q-19 -29 -29.5 -67t-10.5 -81z" />
<glyph unicode="r" horiz-adv-x="358" d="M331 481q-25 0 -55 -8t-57 -23q-26 -16 -49 -45.5t-31 -66.5q-8 -44 -8 -92v-204h-57v488h57v-116q43 72 90 98q52 30 110 30v-61z" />
<glyph unicode="s" horiz-adv-x="403" d="M361 166q0 -29 -10.5 -55t-28.5 -42q-23 -18 -61.5 -28t-85.5 -10q-55 0 -129 24v57q8 -4 52 -19t77 -15q56 0 85 16q42 26 42 67q0 28 -15 47t-38 32q-24 12 -60 26.5t-69 31.5q-27 14 -49.5 41.5t-22.5 72.5q0 61 44.5 95.5t118.5 34.5q62 0 122 -20v-55 q-7 3 -46.5 16.5t-84.5 13.5q-36 0 -66.5 -20t-30.5 -54q0 -25 9.5 -41.5t31.5 -30.5q20 -14 63.5 -30.5t72.5 -32.5q32 -16 55.5 -46.5t23.5 -75.5z" />
<glyph unicode="t" horiz-adv-x="338" d="M299 484h-129v-283v-44t9 -42q8 -19 26 -28t43 -9q27 0 49 4v-48q-22 -3 -60 -3q-67 0 -96.5 28.5t-29.5 94.5v330h-78v46h78v120l59 30v-150h129v-46z" />
<glyph unicode="u" horiz-adv-x="512" d="M74 530h59v-322q0 -52 27 -93q24 -34 78 -34q47 0 82.5 41.5t52.5 118.5q4 20 5.5 38.5t1.5 36.5v214h58v-488h-58v106q-21 -56 -58 -86q-40 -32 -91 -32q-74 0 -113 40q-44 42 -44 130v330z" />
<glyph unicode="v" horiz-adv-x="481" d="M446 530l-168 -488h-57l-183 488h58l153 -423l142 423h55z" />
<glyph unicode="w" horiz-adv-x="655" d="M620 530l-112 -488h-58l-121 400l-119 -400h-56l-116 488h55l91 -412l121 412h47l122 -412l92 412h54z" />
<glyph unicode="x" horiz-adv-x="476" d="M433 42h-63l-131 208l-134 -208h-63l167 257l-148 231h63l115 -181l115 181h63l-149 -231z" />
<glyph unicode="y" horiz-adv-x="466" d="M370 530h60l-226 -664h-59l67 198l-176 466h60l143 -389z" />
<glyph unicode="z" horiz-adv-x="430" d="M387 42h-344v51l274 391h-257v46h315v-57l-272 -385h284v-46z" />
<glyph unicode="{" horiz-adv-x="416" d="M123 348v37q40 15 69 42.5t29 72.5q0 30 -7.5 59.5t-11.5 58.5q-4 30 -4 60t13 61q13 27 32 46.5t41 31.5q21 13 43.5 18.5t36.5 4.5v-23q-42 -12 -64 -41.5t-30 -58.5q-9 -37 -5.5 -70.5t8.5 -64.5q6 -30 3.5 -60t-13.5 -57q-19 -43 -42.5 -64t-60.5 -35 q35 -14 59.5 -34.5t43.5 -63.5q11 -27 13.5 -57t-3.5 -60q-5 -31 -8.5 -64.5t5.5 -70.5q8 -29 30 -58.5t64 -41.5v-23q-14 -1 -36.5 4.5t-43.5 18.5q-22 12 -41 31.5t-32 46.5q-13 31 -13 61t4 60q4 29 11.5 58.5t7.5 59.5q0 45 -29 72.5t-69 42.5z" />
<glyph unicode="|" horiz-adv-x="310" d="M180 -87h-50v905h50v-905z" />
<glyph unicode="}" horiz-adv-x="416" d="M293 348q-40 -15 -69 -42.5t-29 -72.5q0 -30 7.5 -59.5t11.5 -58.5q4 -30 4 -60t-13 -61q-14 -27 -32.5 -46.5t-40.5 -31.5q-21 -13 -43.5 -18.5t-36.5 -4.5v23q42 12 64 41.5t29 58.5q10 37 6 70.5t-9 64.5q-5 30 -3 60t14 57q19 43 43.5 63.5t59.5 34.5 q-37 14 -60.5 35t-42.5 64q-12 27 -14 57t3 60q5 31 9 64.5t-6 70.5q-7 29 -29 58.5t-64 41.5v23q14 1 36.5 -4.5t43.5 -18.5q22 -12 40.5 -31.5t32.5 -46.5q13 -31 13 -61t-4 -60q-4 -29 -11.5 -58.5t-7.5 -59.5q0 -45 29 -72.5t69 -42.5v-37z" />
<glyph unicode="~" horiz-adv-x="537" d="M486 458q0 -71 -31 -116t-88 -45q-29 0 -54 12.5t-54 49.5q-35 40 -51.5 52t-36.5 12q-34 0 -53.5 -30t-19.5 -83h-47q0 73 34 117.5t84 44.5q31 0 56 -13.5t53 -48.5q27 -32 45.5 -47.5t40.5 -15.5q37 0 55.5 31t18.5 80h48z" />
<glyph unicode="&#x25fc;" horiz-adv-x="530" d="M0 530h530v-530h-530v530z" />
<glyph unicode="&#xac00;" horiz-adv-x="828" d="M435 720q-19 -343 -345 -543l-38 39q277 174 313 451h-279v53h349zM807 427h-151v-507h-61v926h61v-360h151v-59z" />
<glyph unicode="&#xac01;" horiz-adv-x="828" d="M434 775q-6 -126 -92 -253t-253 -212l-37 40q127 66 208.5 162.5t99.5 208.5h-274v54h348zM803 532h-147v-241h-61v555h61v-255h147v-59zM656 -106h-61v278h-402v54h463v-332z" />
<glyph unicode="&#xac04;" horiz-adv-x="828" d="M433 765q-9 -149 -100.5 -277.5t-244.5 -205.5l-36 41q138 74 218 181t90 208h-274v53h347zM803 493h-147v-321h-61v674h61v-294h147v-59zM675 -86h-451v290h62v-236h389v-54z" />
<glyph unicode="&#xac07;" horiz-adv-x="828" d="M434 775q-8 -130 -95.5 -250.5t-249.5 -205.5l-37 41q121 60 205 158t104 203h-275v54h348zM803 538h-147v-236h-61v544h61v-251h147v-57zM666 -91h-428v328h418v-53h-357v-221h367v-54z" />
<glyph unicode="&#xac08;" horiz-adv-x="828" d="M433 786q-8 -121 -88.5 -239t-256.5 -207l-36 41q122 59 206 152t103 200h-275v53h347zM803 564h-147v-210h-61v492h61v-224h147v-58zM680 -96h-442v226h357v109h-362v53h423v-214h-357v-121h381v-53z" />
<glyph unicode="&#xac09;" horiz-adv-x="828" d="M433 786q-8 -121 -88.5 -239t-256.5 -207l-36 41q122 59 206 152t103 200h-275v53h347zM803 564h-147v-210h-61v492h61v-224h147v-58zM656 -96h-57v337h-163v52h220v-389zM437 -96h-292v224h176v113h-180v52h237v-214h-175v-123h234v-52z" />
<glyph unicode="&#xac0a;" horiz-adv-x="828" d="M433 786q-8 -121 -88.5 -239t-256.5 -207l-36 41q122 59 206 152t103 200h-275v53h347zM803 564h-147v-210h-61v492h61v-224h147v-58zM656 -96h-223v389h223v-389zM382 -96h-237v224h168v113h-172v52h229v-214h-168v-123h180v-52zM601 -44v285h-114v-285h114z" />
<glyph unicode="&#xac10;" horiz-adv-x="828" d="M434 775q-8 -130 -95.5 -250.5t-249.5 -205.5l-37 41q121 60 205 158t104 203h-275v54h348zM803 538h-147v-236h-61v544h61v-251h147v-57zM656 -91h-418v328h418v-328zM596 -39v224h-298v-224h298z" />
<glyph unicode="&#xac11;" horiz-adv-x="828" d="M433 775q-8 -123 -88 -238t-256 -211l-37 41q122 63 204.5 154.5t104.5 199.5h-275v54h347zM803 551h-147v-225h-61v520h61v-236h147v-59zM656 -96h-418v372h60v-106h298v106h60v-372zM596 -44v163h-298v-163h298z" />
<glyph unicode="&#xac12;" horiz-adv-x="828" d="M433 775q-8 -123 -88 -238t-256 -211l-37 41q122 63 204.5 154.5t104.5 199.5h-275v54h347zM803 551h-147v-225h-61v520h61v-236h147v-59zM414 -96h-268v372h59v-122h150v122h59v-372zM355 -44v148h-150v-148h150zM606 118l151 -177l-40 -35l-130 154l-8 -18 q-41 -86 -111 -136l-38 39q48 31 90 109.5t42 178.5v44h58v-53q0 -55 -14 -106z" />
<glyph unicode="&#xac13;" horiz-adv-x="828" d="M433 775q-11 -146 -101 -276.5t-243 -207.5l-37 40q138 74 217 183.5t91 206.5h-274v54h347zM803 524h-147v-292h-61v614h61v-263h147v-59zM446 149l245 -206l-40 -44l-230 198q-14 -25 -34 -49q-79 -100 -187 -150l-34 44q89 40 163 130t74 180v14h62v-23q0 -47 -19 -94 z" />
<glyph unicode="&#xac14;" horiz-adv-x="828" d="M434 775q-8 -130 -95.5 -250.5t-249.5 -205.5l-37 41q121 60 205 158t104 203h-275v54h348zM803 538h-147v-236h-61v544h61v-251h147v-57zM312 219q0 -47 -16 -96l123 -148q32 32 59 81q41 74 41 166v26h62v-31q0 -48 -15 -95l164 -175l-40 -36l-143 158 q-24 -51 -58.5 -95t-76.5 -70l-140 164q-5 -11 -11 -22q-52 -91 -129 -138l-37 38q58 34 107 113t49 163v26h61v-29z" />
<glyph unicode="&#xac15;" horiz-adv-x="828" d="M433 775q-11 -146 -101 -276.5t-243 -207.5l-37 40q138 74 217 183.5t91 206.5h-274v54h347zM803 533h-147v-243h-61v556h61v-254h147v-59zM599 78q0 59 -42 96.5t-102 37.5q-61 0 -103 -37.5t-42 -96.5q0 -58 42 -96t103 -38q60 0 102 38t42 96zM660 78q0 -38 -15 -72.5 t-43 -60.5q-28 -25 -66 -39.5t-81 -14.5t-81.5 14.5t-66.5 39.5q-27 26 -42.5 60.5t-15.5 72.5t15.5 73t42.5 60q28 26 66.5 40.5t81.5 14.5t81 -14.5t66 -40.5q28 -25 43 -60t15 -73z" />
<glyph unicode="&#xac16;" horiz-adv-x="828" d="M434 775q-8 -130 -95.5 -250.5t-249.5 -205.5l-37 41q121 60 205 158t104 203h-275v54h348zM803 536h-147v-234h-61v544h61v-251h147v-59zM472 22q-130 -83 -266 -118l-28 45q95 26 200 82q110 60 181 154h-328v52h424q-1 -13 -26 -53q-43 -69 -102 -119l219 -117 l-30 -46l-236 126z" />
<glyph unicode="&#xac17;" horiz-adv-x="828" d="M433 786q-8 -121 -88.5 -239t-256.5 -207l-36 41q122 59 206 152t103 200h-275v53h347zM803 564h-147v-210h-61v492h61v-224h147v-58zM583 293v-52h-174q-79 0 -134 28l16 45q69 -21 128 -21h164zM644 167q-31 -70 -120 -134l203 -90l-27 -43l-226 100 q-133 -78 -271 -103l-29 44q83 16 182.5 58.5t182.5 115.5h-318v52h423z" />
<glyph unicode="&#xac19;" horiz-adv-x="828" d="M433 786q-8 -121 -88.5 -239t-256.5 -207l-36 41q122 59 206 152t103 200h-275v53h347zM803 564h-147v-210h-61v492h61v-224h147v-58zM666 -96h-428v388h418v-53h-357v-112h346v-51h-346v-119h367v-53z" />
<glyph unicode="&#xac1a;" horiz-adv-x="828" d="M434 775q-8 -130 -95.5 -250.5t-249.5 -205.5l-37 41q121 60 205 158t104 203h-275v54h348zM803 538h-147v-236h-61v544h61v-251h147v-57zM675 -39v-52h-495v52h96v224h-94v52h491v-52h-88v-224h90zM336 -39h189v224h-189v-224z" />
<glyph unicode="&#xac1b;" horiz-adv-x="828" d="M433 786q-8 -121 -88.5 -234.5t-256.5 -202.5l-36 41q122 58 206 147t103 196h-275v53h347zM803 565h-147v-211h-61v492h61v-223h147v-58zM589 305v-54h-178q-79 0 -133 28l15 46q69 -20 128 -20h168zM700 127h-149q24 -19 41 -44q16 -26 16 -56t-12.5 -57.5t-36.5 -46.5 q-23 -21 -56 -31.5t-70 -10.5q-36 0 -68.5 10.5t-56.5 31.5q-22 19 -35 46.5t-13 57.5t16 56q16 25 40 44h-149v51h533v-51zM547 27q0 41 -32.5 67.5t-81.5 26.5q-48 0 -79.5 -26.5t-31.5 -67.5t31.5 -67.5t79.5 -26.5q49 0 81.5 26.5t32.5 67.5z" />
<glyph unicode="&#xac1c;" horiz-adv-x="837" d="M397 720q-23 -352 -303 -549l-41 39q236 170 277 457h-244v53h311zM554 499h123v347h59v-926h-59v526h-123v-463h-58v843h58v-327z" />
<glyph unicode="&#xac1d;" horiz-adv-x="837" d="M398 775q-3 -125 -78 -258t-229 -231l-38 39q103 64 179 164.5t100 231.5h-246v54h312zM551 594h126v252h59v-555h-59v250h-126v-234h-58v519h58v-232zM731 -106h-61v278h-413v54h474v-332z" />
<glyph unicode="&#xac20;" horiz-adv-x="837" d="M398 764q0 -17 -8 -68q-22 -142 -108.5 -253.5t-190.5 -173.5l-38 39q106 68 183 172.5t95 230.5h-245v53h312zM551 574h126v272h59v-674h-59v349h-126v-326h-58v631h58v-252zM749 -86h-461v288h61v-234h400v-54z" />
<glyph unicode="&#xac24;" horiz-adv-x="837" d="M399 786q-1 -108 -74.5 -232t-233.5 -223l-38 39q109 65 184.5 160t93.5 203h-245v53h313zM551 623h126v223h59v-496h-59v220h-126v-205h-58v461h58v-203zM755 -96h-453v224h368v107h-372v53h433v-212h-367v-119h391v-53z" />
<glyph unicode="&#xac2c;" horiz-adv-x="837" d="M398 775q0 -24 -8 -69q-23 -130 -107.5 -237.5t-191.5 -168.5l-38 39q109 67 183.5 165.5t94.5 216.5h-245v54h312zM551 599h126v248h59v-548h-59v247h-126v-231h-58v511h58v-227zM728 -91h-429v325h429v-325zM668 -39v221h-309v-221h309z" />
<glyph unicode="&#xac2d;" horiz-adv-x="837" d="M398 775q0 -24 -8 -69q-23 -127 -107.5 -234t-191.5 -166l-38 38q109 64 183.5 163t95.5 214h-246v54h312zM551 608h126v238h59v-525h-59v233h-126v-223h-58v495h58v-218zM731 -96h-429v367h60v-106h309v106h60v-367zM671 -44v158h-309v-158h309z" />
<glyph unicode="&#xac2f;" horiz-adv-x="837" d="M398 775q-1 -22 -8 -69q-22 -141 -108.5 -253t-190.5 -174l-38 39q106 68 183 172.5t95 230.5h-245v54h312zM551 589h126v257h59v-612h-59v302h-126v-239h-58v529h58v-237zM498 136l244 -193l-39 -44l-233 184q-14 -21 -32 -42q-79 -92 -187 -143l-34 44 q89 40 163.5 122.5t74.5 169.5v9h61v-17q0 -45 -18 -90z" />
<glyph unicode="&#xac30;" horiz-adv-x="837" d="M398 775q0 -24 -8 -69q-23 -130 -107.5 -237.5t-191.5 -168.5l-38 39q109 67 183.5 165.5t94.5 216.5h-245v54h312zM551 599h126v248h59v-548h-59v247h-126v-231h-58v511h58v-227zM370 219q0 -48 -17 -96l125 -149q34 33 62 82q43 73 43 166v23h61v-28q0 -48 -14 -95 l167 -175l-38 -36l-150 158q-21 -45 -56 -90t-81 -75l-142 164q-6 -11 -13 -22q-53 -90 -132 -138l-34 38q57 33 107 112t50 164v23h62v-26z" />
<glyph unicode="&#xac31;" horiz-adv-x="837" d="M398 775q-1 -22 -8 -69q-22 -141 -108.5 -253t-190.5 -174l-38 39q106 68 183 172.5t95 230.5h-245v54h312zM677 270v271h-126v-228h-58v513h58v-232h126v252h59v-576h-59zM650 73q0 56 -42.5 93t-105.5 37t-105 -37t-42 -93t42 -93t105 -37t105.5 37t42.5 93zM712 73 q0 -37 -16 -71t-44 -60q-28 -25 -67 -38.5t-83 -13.5q-43 0 -82 13.5t-68 38.5q-27 26 -42.5 60t-15.5 71t15.5 71.5t42.5 59.5q29 25 68 38.5t82 13.5q44 0 83 -13.5t67 -38.5t44 -59.5t16 -71.5z" />
<glyph unicode="&#xac38;" horiz-adv-x="828" d="M435 720q-19 -343 -345 -543l-38 39q277 174 313 451h-279v53h349zM807 538h-151v-195h151v-53h-151v-370h-60v926h60v-255h151v-53z" />
<glyph unicode="&#xac39;" horiz-adv-x="828" d="M434 775q-6 -126 -92 -253t-253 -212l-37 40q127 66 208.5 162.5t99.5 208.5h-274v54h348zM803 628h-147v-145h147v-55h-147v-137h-60v555h60v-164h147v-54zM656 -106h-61v278h-402v54h463v-332z" />
<glyph unicode="&#xac3c;" horiz-adv-x="828" d="M433 765q-9 -149 -100.5 -277.5t-244.5 -205.5l-36 41q138 74 218 181t90 208h-274v53h347zM803 609h-147v-158h147v-54h-147v-225h-60v674h60v-183h147v-54zM675 -86h-451v290h62v-236h389v-54z" />
<glyph unicode="&#xac40;" horiz-adv-x="828" d="M433 786q-8 -121 -88.5 -239t-256.5 -207l-36 41q122 59 206 152t103 200h-275v53h347zM803 640h-147v-130h147v-53h-147v-103h-60v492h60v-151h147v-55zM680 -96h-442v226h357v109h-362v53h423v-214h-357v-121h381v-53z" />
<glyph unicode="&#xac4b;" horiz-adv-x="828" d="M433 775q-11 -146 -101 -276.5t-243 -207.5l-37 40q138 74 217 183.5t91 206.5h-274v54h347zM803 620h-147v-153h147v-54h-147v-180h-60v613h60v-172h147v-54zM446 149l245 -206l-40 -44l-230 198q-14 -25 -34 -49q-79 -100 -187 -150l-34 44q89 40 163 130t74 180v14h62 v-23q0 -47 -19 -94z" />
<glyph unicode="&#xac4d;" horiz-adv-x="828" d="M433 775q-11 -146 -101 -276.5t-243 -207.5l-37 40q138 74 217 183.5t91 206.5h-274v54h347zM803 627h-147v-144h147v-55h-147v-138h-60v556h60v-165h147v-54zM599 78q0 59 -42 96.5t-102 37.5q-61 0 -103 -37.5t-42 -96.5q0 -58 42 -96t103 -38q60 0 102 38t42 96z M660 78q0 -38 -15 -72.5t-43 -60.5q-28 -25 -66 -39.5t-81 -14.5t-81.5 14.5t-66.5 39.5q-27 26 -42.5 60.5t-15.5 72.5t15.5 73t42.5 60q28 26 66.5 40.5t81.5 14.5t81 -14.5t66 -40.5q28 -25 43 -60t15 -73z" />
<glyph unicode="&#xac54;" horiz-adv-x="837" d="M397 720q-23 -352 -303 -549l-41 39q236 170 277 457h-244v53h311zM677 -80v389h-123v-326h-58v843h58v-199h123v219h59v-926h-59zM677 362v212h-123v-212h123z" />
<glyph unicode="&#xac58;" horiz-adv-x="837" d="M398 764q0 -17 -8 -68q-22 -142 -108.5 -253.5t-190.5 -173.5l-38 39q106 68 183 172.5t95 230.5h-245v53h312zM551 452h126v156h-126v-156zM677 399h-126v-204h-58v631h58v-165h126v185h59v-674h-59v227zM749 -86h-461v288h61v-234h400v-54z" />
<glyph unicode="&#xac5c;" horiz-adv-x="837" d="M399 786q-1 -108 -74.5 -232t-233.5 -223l-38 39q109 65 184.5 160t93.5 203h-245v53h313zM677 350v120h-126v-105h-58v461h58v-118h126v138h59v-496h-59zM677 524v131h-126v-131h126zM755 -96h-453v224h368v107h-372v53h433v-212h-367v-119h391v-53z" />
<glyph unicode="&#xac70;" horiz-adv-x="791" d="M435 720q-19 -343 -345 -543l-38 39q277 174 313 451h-279v53h349zM690 -80h-61v518h-218v54h218v354h61v-926z" />
<glyph unicode="&#xac71;" horiz-adv-x="791" d="M434 775q-6 -126 -92 -253t-253 -212l-37 40q127 66 208.5 162.5t99.5 208.5h-274v54h348zM690 291h-61v228h-216v53h216v274h61v-555zM687 -106h-61v278h-403v54h464v-332z" />
<glyph unicode="&#xac74;" horiz-adv-x="791" d="M433 765q-9 -149 -100.5 -277.5t-244.5 -205.5l-36 41q138 74 218 181t90 208h-274v53h347zM690 172h-61v327h-219v54h219v293h61v-674zM705 -86h-451v288h61v-234h390v-54z" />
<glyph unicode="&#xac77;" horiz-adv-x="791" d="M434 775q-8 -130 -95.5 -250.5t-249.5 -205.5l-37 41q121 60 205 158t104 203h-275v54h348zM690 302h-61v221h-219v53h219v270h61v-544zM696 -91h-428v328h419v-53h-357v-221h366v-54z" />
<glyph unicode="&#xac78;" horiz-adv-x="791" d="M433 786q-8 -121 -88.5 -239t-256.5 -207l-36 41q122 59 206 152t103 200h-275v53h347zM690 354h-61v195h-215v54h215v243h61v-492zM711 -96h-443v226h358v109h-362v53h423v-214h-357v-121h381v-53z" />
<glyph unicode="&#xac7a;" horiz-adv-x="791" d="M433 786q-8 -121 -88.5 -239t-256.5 -207l-36 41q122 59 206 152t103 200h-275v53h347zM690 354h-61v195h-215v54h215v243h61v-492zM689 -96h-223v389h223v-389zM415 -96h-237v224h168v113h-172v52h228v-214h-168v-123h181v-52zM634 -44v285h-114v-285h114z" />
<glyph unicode="&#xac80;" horiz-adv-x="791" d="M434 775q-8 -130 -95.5 -250.5t-249.5 -205.5l-37 41q121 60 205 158t104 203h-275v54h348zM690 302h-61v221h-219v53h219v270h61v-544zM689 -91h-419v328h419v-328zM629 -39v224h-298v-224h298z" />
<glyph unicode="&#xac81;" horiz-adv-x="791" d="M433 775q-8 -123 -88 -238t-256 -211l-37 41q122 63 204.5 154.5t104.5 199.5h-275v54h347zM690 326h-61v209h-213v54h213v257h61v-520zM687 -96h-419v372h61v-106h298v106h60v-372zM627 -44v163h-298v-163h298z" />
<glyph unicode="&#xac83;" horiz-adv-x="791" d="M433 775q-11 -146 -101 -276.5t-243 -207.5l-37 40q138 74 217 183.5t91 206.5h-274v54h347zM690 232h-61v278h-217v55h217v281h61v-614zM480 149l245 -206l-40 -44l-230 198q-15 -25 -34 -49q-79 -100 -188 -150l-33 44q89 40 163 130t74 180v14h62v-23q0 -47 -19 -94z " />
<glyph unicode="&#xac84;" horiz-adv-x="791" d="M434 775q-8 -130 -95.5 -250.5t-249.5 -205.5l-37 41q121 60 205 158t104 203h-275v54h348zM690 302h-61v221h-219v53h219v270h61v-544zM349 219q0 -47 -16 -96l123 -148q31 32 59 81q41 74 41 166v26h61v-31q0 -48 -14 -95l164 -175l-40 -36l-143 158q-24 -51 -59 -95 t-76 -70l-140 164q-5 -11 -11 -22q-52 -91 -129 -138l-37 38q57 34 106.5 113t49.5 163v26h61v-29z" />
<glyph unicode="&#xac85;" horiz-adv-x="791" d="M433 775q-11 -146 -101 -276.5t-243 -207.5l-37 40q138 74 217 183.5t91 206.5h-274v54h347zM690 288h-61v222h-217v54h217v282h61v-558zM628 78q0 59 -42 96.5t-103 37.5q-60 0 -102 -37.5t-42 -96.5q0 -58 42 -96t102 -38q61 0 103 38t42 96zM689 78q0 -38 -15.5 -72.5 t-42.5 -60.5q-28 -25 -66.5 -39.5t-81.5 -14.5t-81 14.5t-66 39.5q-28 26 -43 60.5t-15 72.5t15 73t43 60q28 26 66 40.5t81 14.5t81.5 -14.5t66.5 -40.5q27 -25 42.5 -60t15.5 -73z" />
<glyph unicode="&#xac86;" horiz-adv-x="791" d="M434 775q-8 -130 -95.5 -250.5t-249.5 -205.5l-37 41q121 60 205 158t104 203h-275v54h348zM690 302h-61v222h-219v53h219v269h61v-544zM493 22q-131 -83 -267 -118l-27 45q95 26 199 82q111 60 182 154h-328v52h424q-1 -13 -27 -53q-43 -69 -100 -119l218 -117l-31 -46 l-234 126q-5 -3 -9 -6z" />
<glyph unicode="&#xac89;" horiz-adv-x="791" d="M433 786q-8 -121 -88.5 -239t-256.5 -207l-36 41q122 59 206 152t103 200h-275v53h347zM690 354h-61v195h-215v54h215v243h61v-492zM696 -96h-428v388h419v-53h-357v-112h346v-51h-346v-119h366v-53z" />
<glyph unicode="&#xac8a;" horiz-adv-x="791" d="M434 775q-8 -130 -95.5 -250.5t-249.5 -205.5l-37 41q121 60 205 158t104 203h-275v54h348zM690 302h-61v221h-219v53h219v270h61v-544zM706 -39v-52h-495v52h96v224h-94v52h490v-52h-88v-224h91zM367 -39h189v224h-189v-224z" />
<glyph unicode="&#xac8b;" horiz-adv-x="791" d="M433 786q-8 -121 -88.5 -234.5t-256.5 -202.5l-36 41q122 58 206 147t103 196h-275v53h347zM690 354h-61v199h-216v54h216v239h61v-492zM620 305v-54h-179q-79 0 -133 28l16 46q69 -20 128 -20h168zM731 127h-149q24 -19 41 -44q16 -26 16 -56t-13 -57.5t-36 -46.5 q-24 -21 -56.5 -31.5t-69.5 -10.5q-36 0 -69 10.5t-56 31.5q-23 19 -35.5 46.5t-12.5 57.5t16 56q16 25 40 44h-149v51h533v-51zM578 27q0 41 -32.5 67.5t-81.5 26.5q-48 0 -80 -26.5t-32 -67.5t32 -67.5t80 -26.5q49 0 81.5 26.5t32.5 67.5z" />
<glyph unicode="&#xac8c;" horiz-adv-x="837" d="M397 720q-8 -128 -51 -235h161v341h58v-843h-58v449h-184q-76 -154 -229 -261l-41 39q236 170 277 457h-244v53h311zM736 -80h-59v926h59v-926z" />
<glyph unicode="&#xac90;" horiz-adv-x="837" d="M398 764q0 -17 -8 -68q-12 -76 -43 -144h160v274h58v-631h-58v304h-188q-17 -29 -37 -56q-87 -112 -191 -174l-38 39q106 68 183 172.5t95 230.5h-245v53h312zM736 172h-59v674h59v-674zM749 -86h-461v288h61v-234h400v-54z" />
<glyph unicode="&#xac94;" horiz-adv-x="837" d="M399 786q-1 -87 -49 -186h157v226h58v-461h-58v182h-186q-75 -120 -230 -216l-38 39q109 65 184.5 160t93.5 203h-245v53h313zM736 350h-59v496h59v-496zM755 -96h-453v224h368v107h-372v53h433v-212h-367v-119h391v-53z" />
<glyph unicode="&#xac9c;" horiz-adv-x="837" d="M398 775q0 -24 -8 -69q-12 -69 -41 -130h158v250h58v-511h-58v208h-188q-16 -28 -36 -55q-85 -107 -192 -168l-38 39q109 67 183.5 165.5t94.5 216.5h-245v54h312zM736 299h-59v547h59v-547zM728 -91h-429v325h429v-325zM668 -39v221h-309v-221h309z" />
<glyph unicode="&#xac9d;" horiz-adv-x="837" d="M398 775q0 -24 -8 -69q-11 -60 -36 -116h153v236h58v-495h-58v206h-180q-20 -34 -44 -65q-85 -107 -192 -166l-38 38q109 64 183.5 163t95.5 214h-246v54h312zM736 321h-59v525h59v-525zM731 -96h-429v367h60v-106h309v106h60v-367zM671 -44v158h-309v-158h309z" />
<glyph unicode="&#xac9f;" horiz-adv-x="837" d="M398 775q0 -18 -8 -69q-11 -72 -39 -135h156v255h58v-529h-58v221h-182q-20 -34 -43 -65q-87 -112 -191 -174l-38 39q106 68 183 172.5t95 230.5h-245v54h312zM736 234h-59v612h59v-612zM498 136l244 -193l-39 -44l-233 184q-14 -21 -32 -42q-79 -92 -187 -143l-34 44 q89 40 163.5 122.5t74.5 169.5v9h61v-17q0 -45 -18 -90z" />
<glyph unicode="&#xaca0;" horiz-adv-x="837" d="M398 775q0 -24 -8 -69q-12 -69 -41 -130h158v250h58v-511h-58v208h-188q-16 -28 -36 -55q-85 -107 -192 -168l-38 39q109 67 183.5 165.5t94.5 216.5h-245v54h312zM736 299h-59v547h59v-547zM370 219q0 -48 -17 -96l125 -149q34 33 62 82q43 73 43 166v23h61v-28 q0 -48 -14 -95l167 -175l-38 -36l-150 158q-21 -45 -56 -90t-81 -75l-142 164q-6 -11 -13 -22q-53 -90 -132 -138l-34 38q57 33 107 112t50 164v23h62v-26z" />
<glyph unicode="&#xaca1;" horiz-adv-x="837" d="M398 775q0 -18 -8 -69q-11 -72 -39 -135h156v255h58v-513h-58v205h-182q-20 -34 -43 -65q-87 -112 -191 -174l-38 39q106 68 183 172.5t95 230.5h-245v54h312zM736 270h-59v576h59v-576zM650 73q0 56 -42.5 93t-105.5 37t-105 -37t-42 -93t42 -93t105 -37t105.5 37 t42.5 93zM712 73q0 -37 -16 -71t-44 -60q-28 -25 -67 -38.5t-83 -13.5q-43 0 -82 13.5t-68 38.5q-27 26 -42.5 60t-15.5 71t15.5 71.5t42.5 59.5q29 25 68 38.5t82 13.5q44 0 83 -13.5t67 -38.5t44 -59.5t16 -71.5z" />
<glyph unicode="&#xaca8;" horiz-adv-x="791" d="M435 720q-4 -75 -23 -144h218v270h60v-926h-60v385h-235v53h235v165h-236q-79 -207 -304 -346l-38 39q277 174 313 451h-279v53h349z" />
<glyph unicode="&#xaca9;" horiz-adv-x="791" d="M434 775q-2 -51 -17 -102h213v173h60v-555h-60v131h-235v54h235v144h-234q-20 -49 -54 -98q-86 -127 -253 -212l-37 40q127 66 208.5 162.5t99.5 208.5h-274v54h348zM687 -106h-61v278h-403v54h464v-332z" />
<glyph unicode="&#xacaa;" horiz-adv-x="791" d="M434 775q-2 -51 -17 -102h213v173h60v-555h-60v131h-235v54h235v144h-234q-20 -49 -54 -98q-86 -127 -253 -212l-37 40q127 66 208.5 162.5t99.5 208.5h-274v54h348zM417 226v-332h-61v278h-184v54h245zM689 226v-332h-60v278h-162v54h222z" />
<glyph unicode="&#xacac;" horiz-adv-x="791" d="M433 765q-4 -58 -19 -113h216v194h60v-674h-60v220h-235v53h235v153h-236q-23 -57 -61 -110q-92 -129 -245 -206l-36 41q138 74 218 181t90 208h-274v53h347zM705 -86h-451v288h61v-234h390v-54z" />
<glyph unicode="&#xacaf;" horiz-adv-x="791" d="M434 775q-3 -53 -19 -103h215v174h60v-544h-60v127h-235v54h235v136h-236q-21 -48 -55 -94q-88 -121 -250 -206l-37 41q121 60 205 158t104 203h-275v54h348zM696 -91h-428v328h419v-53h-357v-221h366v-54z" />
<glyph unicode="&#xacb0;" horiz-adv-x="791" d="M433 786q-3 -50 -19 -100h216v160h60v-492h-60v92h-235v53h235v133h-237q-19 -43 -48 -85q-81 -118 -257 -207l-36 41q122 59 206 152t103 200h-275v53h347zM711 -96h-443v226h358v109h-362v53h423v-214h-357v-121h381v-53z" />
<glyph unicode="&#xacb8;" horiz-adv-x="791" d="M434 775q-3 -53 -19 -103h215v174h60v-544h-60v127h-235v54h235v136h-236q-21 -48 -55 -94q-88 -121 -250 -206l-37 41q121 60 205 158t104 203h-275v54h348zM689 -91h-419v328h419v-328zM629 -39v224h-298v-224h298z" />
<glyph unicode="&#xacb9;" horiz-adv-x="791" d="M433 775q-3 -50 -17 -97h214v168h60v-520h-60v115h-235v53h235v131h-235q-19 -45 -50 -88q-80 -115 -256 -211l-37 41q122 63 204.5 154.5t104.5 199.5h-275v54h347zM687 -96h-419v372h61v-106h298v106h60v-372zM627 -44v163h-298v-163h298z" />
<glyph unicode="&#xacbb;" horiz-adv-x="791" d="M433 775q-4 -53 -18 -103h215v174h60v-614h-60v194h-237v54h237v139h-233q-25 -62 -65 -120q-90 -131 -243 -208l-37 40q138 74 217 183.5t91 206.5h-274v54h347zM480 149l245 -206l-40 -44l-230 198q-15 -25 -34 -49q-79 -100 -188 -150l-33 44q89 40 163 130t74 180v14 h62v-23q0 -47 -19 -94z" />
<glyph unicode="&#xacbc;" horiz-adv-x="791" d="M434 775q-3 -53 -19 -103h215v174h60v-544h-60v127h-235v54h235v136h-236q-21 -48 -55 -94q-88 -121 -250 -206l-37 41q121 60 205 158t104 203h-275v54h348zM349 219q0 -47 -16 -96l123 -148q31 32 59 81q41 74 41 166v26h61v-31q0 -48 -14 -95l164 -175l-40 -36 l-143 158q-24 -51 -59 -95t-76 -70l-140 164q-5 -11 -11 -22q-52 -91 -129 -138l-37 38q57 34 106.5 113t49.5 163v26h61v-29z" />
<glyph unicode="&#xacbd;" horiz-adv-x="791" d="M433 775q-4 -53 -18 -103h215v174h60v-558h-60v138h-237v54h237v139h-233q-25 -62 -65 -120q-90 -131 -243 -208l-37 40q138 74 217 183.5t91 206.5h-274v54h347zM628 78q0 59 -42 96.5t-103 37.5q-60 0 -102 -37.5t-42 -96.5q0 -58 42 -96t102 -38q61 0 103 38t42 96z M689 78q0 -38 -15.5 -72.5t-42.5 -60.5q-28 -25 -66.5 -39.5t-81.5 -14.5t-81 14.5t-66 39.5q-28 26 -43 60.5t-15 72.5t15 73t43 60q28 26 66 40.5t81 14.5t81.5 -14.5t66.5 -40.5q27 -25 42.5 -60t15.5 -73z" />
<glyph unicode="&#xacc1;" horiz-adv-x="791" d="M433 786q-3 -50 -19 -100h216v160h60v-492h-60v92h-235v53h235v133h-237q-19 -43 -48 -85q-81 -118 -257 -207l-36 41q122 59 206 152t103 200h-275v53h347zM696 -96h-428v388h419v-53h-357v-112h346v-51h-346v-119h366v-53z" />
<glyph unicode="&#xacc4;" horiz-adv-x="837" d="M397 720q-5 -73 -20 -140h129v246h58v-843h-58v327h-145v52h145v166h-145q-69 -217 -267 -357l-41 39q236 170 277 457h-244v53h311zM736 -80h-59v926h59v-926z" />
<glyph unicode="&#xacc8;" horiz-adv-x="837" d="M398 764q0 -17 -8 -68q-4 -28 -11 -54h128v184h57v-631h-57v197h-156v52h156v145h-145q-28 -79 -80 -146q-87 -112 -191 -174l-38 39q106 68 183 172.5t95 230.5h-245v53h312zM736 172h-59v674h59v-674zM749 -86h-461v288h61v-234h400v-54z" />
<glyph unicode="&#xaccc;" horiz-adv-x="837" d="M399 786q0 -53 -18 -111h126v151h57v-461h-57v92h-157v53h157v112h-147q-15 -33 -35 -68q-74 -124 -234 -223l-38 39q109 65 184.5 160t93.5 203h-245v53h313zM736 350h-59v496h59v-496zM755 -96h-453v224h368v107h-372v53h433v-212h-367v-119h391v-53z" />
<glyph unicode="&#xacd5;" horiz-adv-x="837" d="M398 775q0 -24 -8 -69q-4 -20 -9 -39h131v159h57v-495h-57v111h-162v53h162v119h-148q-29 -75 -81 -142q-85 -107 -192 -166l-38 38q109 64 183.5 163t95.5 214h-246v54h312zM736 321h-59v525h59v-525zM731 -96h-429v367h60v-106h309v106h60v-367zM671 -44v158h-309v-158 h309z" />
<glyph unicode="&#xacd7;" horiz-adv-x="837" d="M398 775q0 -18 -8 -69q-4 -25 -10 -48h127v168h57v-529h-57v126h-157v53h157v130h-142q-29 -82 -83 -153q-87 -112 -191 -174l-38 39q106 68 183 172.5t95 230.5h-245v54h312zM736 234h-59v612h59v-612zM498 136l244 -193l-39 -44l-233 184q-14 -21 -32 -42 q-79 -92 -187 -143l-34 44q89 40 163.5 122.5t74.5 169.5v9h61v-17q0 -45 -18 -90z" />
<glyph unicode="&#xace0;" d="M636 577q-1 -158 -44 -320h-61q44 164 44 334v99h-420v53h481v-166zM791 42h-756v55h291v333h61v-333h404v-55z" />
<glyph unicode="&#xace1;" d="M634 805q0 -96 -7 -184t-20 -140h-59q12 55 18 132t6 139h-412v53h474zM35 381h290v192h62v-192h404v-54h-756v54zM631 -105h-62v256h-400v53h462v-309z" />
<glyph unicode="&#xace4;" d="M634 805q0 -96 -7 -194.5t-20 -150.5h-59q12 55 18 142.5t6 149.5h-412v53h474zM35 348h290v225h62v-225h404v-54h-756v54zM666 -86h-476v272h62v-218h414v-54z" />
<glyph unicode="&#xace7;" d="M634 805q0 -96 -7 -184t-20 -140h-59q12 55 18 132t6 139h-412v53h474zM35 384h290v197h62v-197h404v-53h-756v53zM654 -92h-466v309h457v-53h-395v-203h404v-53z" />
<glyph unicode="&#xace8;" d="M634 818q0 -97 -7 -172t-20 -126h-59q12 54 18 118.5t6 126.5h-412v53h474zM35 445h290v170h62v-170h404v-53h-756v53zM655 -96h-467v218h386v112h-392v52h453v-214h-386v-116h406v-52z" />
<glyph unicode="&#xacea;" d="M634 818q0 -97 -7 -172t-20 -126h-59q12 54 18 118.5t6 126.5h-412v53h474zM35 445h290v170h62v-170h404v-53h-756v53zM689 -96h-247v381h247v-381zM398 -96h-263v219h194v112h-198v50h255v-209h-193v-122h205v-50zM633 -46v281h-135v-281h135z" />
<glyph unicode="&#xacec;" d="M634 818q0 -97 -7 -172t-20 -126h-59q12 54 18 118.5t6 126.5h-412v53h474zM35 445h290v170h62v-170h404v-53h-756v53zM412 -96h-277v219h199v112h-203v50h260v-209h-198v-122h219v-50zM618 211q0 -46 -13 -92l148 -179l-44 -37l-125 157q-6 -14 -14 -27 q-48 -91 -104 -130l-38 40q56 39 93.5 119t37.5 159v64h59v-74z" />
<glyph unicode="&#xacef;" d="M634 818q0 -97 -7 -172t-20 -126h-59q12 54 18 118.5t6 126.5h-412v53h474zM35 445h290v170h62v-170h404v-53h-756v53zM423 -46v-50h-288v219h191v112h-195v50h252v-209h-190v-122h230zM683 291v-49h-103q-56 0 -106 19l10 44q66 -14 106 -14h93zM745 122h-82l2 -2 q22 -18 35.5 -43.5t13.5 -52.5q0 -28 -10 -53.5t-28 -42.5q-18 -19 -44 -29t-52 -10q-27 0 -53 10t-44 29q-18 17 -28 42.5t-10 53.5q0 27 13.5 52.5t36.5 43.5l2 2h-73v49h321v-49zM656 25q0 37 -21.5 61.5t-54.5 24.5q-34 0 -55.5 -24.5t-21.5 -61.5t21.5 -61.5 t55.5 -24.5q33 0 54.5 24.5t21.5 61.5z" />
<glyph unicode="&#xacf0;" d="M634 805q0 -96 -7 -184t-20 -140h-59q12 55 18 132t6 139h-412v53h474zM35 384h290v197h62v-197h404v-53h-756v53zM575 -39v204h-326v-204h326zM188 217h448v-308h-448v308z" />
<glyph unicode="&#xacf1;" d="M634 805q0 -96 -7 -176.5t-20 -131.5h-59q12 54 18 123.5t6 131.5h-412v53h474zM35 397h290v204h62v-204h404v-54h-756v54zM636 -96h-448v365h62v-112h324v112h62v-365zM574 -44v150h-324v-150h324z" />
<glyph unicode="&#xacf3;" d="M634 805q0 -96 -7 -184t-20 -140h-59q12 55 18 132t6 139h-412v53h474zM35 365h290v208h62v-208h404v-53h-756v53zM426 127l265 -185l-36 -47l-258 180q-16 -22 -37 -45q-82 -92 -196 -134l-32 45q92 33 171 115t79 159v10h61v-18q0 -39 -17 -80z" />
<glyph unicode="&#xacf5;" d="M634 805q0 -96 -7 -184t-20 -140h-59q12 55 18 132t6 139h-412v53h474zM35 390h290v191h62v-191h404v-55h-756v55zM572 73q0 55 -46 92t-113 37t-112.5 -37t-45.5 -92t45.5 -92t112.5 -37t113 37t46 92zM634 73q0 -37 -16.5 -71t-46.5 -59q-29 -25 -70.5 -38.5 t-87.5 -13.5q-45 0 -86.5 13.5t-71.5 38.5t-45.5 59t-15.5 71t15.5 71.5t45.5 58.5q30 25 71.5 38.5t86.5 13.5q46 0 87.5 -13.5t70.5 -38.5q30 -24 46.5 -58.5t16.5 -71.5z" />
<glyph unicode="&#xacf6;" d="M634 805q0 -96 -7 -184t-20 -140h-59q12 55 18 132t6 139h-412v53h474zM35 384h290v197h62v-197h404v-53h-756v53zM597 165q-36 -58 -102 -111l218 -117l-31 -46l-235 128l-20 -14q-119 -75 -252 -111l-30 43q89 19 207 86.5t173 141.5h-326v52h425q-1 -10 -27 -52z" />
<glyph unicode="&#xacfc;" horiz-adv-x="845" d="M486 733q0 -121 -9 -221t-26 -167h-61q12 49 23.5 139.5t11.5 194.5h-333v54h394zM823 419h-144v-499h-62v926h62v-374h144v-53zM213 201v279h61v-279h2q50 0 138 3t154 18v-54q-63 -14 -149 -17t-145 -3h-235v53h174z" />
<glyph unicode="&#xacfd;" horiz-adv-x="845" d="M486 788q0 -105 -7 -176.5t-24 -134.5h-60q13 43 21.5 113.5t8.5 144.5h-333v53h394zM823 548h-144v-286h-62v584h62v-245h144v-53zM213 360v212h61v-212h2q50 0 138 3t154 17v-53q-63 -14 -149 -17t-145 -3h-235v53h174zM678 -106h-62v252h-390v53h452v-305z" />
<glyph unicode="&#xad00;" horiz-adv-x="845" d="M486 773q0 -111 -7 -186t-24 -138h-60q13 43 21.5 114t8.5 156h-333v54h394zM823 477h-144v-338h-62v707h62v-316h144v-53zM213 339v213h61v-213h2q50 0 138 3t154 18v-53q-63 -15 -149 -18t-145 -3h-235v53h174zM685 -86h-459v268h61v-212h398v-56z" />
<glyph unicode="&#xad04;" horiz-adv-x="845" d="M486 797q0 -93 -7 -153.5t-24 -123.5h-60q13 42 21.5 102.5t8.5 123.5h-333v51h394zM823 568h-144v-239h-62v517h62v-225h144v-53zM213 419v179h61v-179h2q50 0 138 3t154 18v-51q-63 -15 -149 -18t-145 -3h-235v51h174zM699 -96h-461v212h378v104h-384v51h446v-204h-377 v-112h398v-51z" />
<glyph unicode="&#xad06;" horiz-adv-x="845" d="M486 797q0 -93 -7 -153.5t-24 -123.5h-60q13 42 21.5 102.5t8.5 123.5h-333v51h394zM823 568h-144v-239h-62v517h62v-225h144v-53zM213 419v179h61v-179h2q50 0 138 3t154 18v-51q-63 -15 -149 -18t-145 -3h-235v51h174zM679 -96h-233v367h233v-367zM392 -96h-249v212 h180v105h-184v50h241v-202h-179v-115h191v-50zM623 -46v267h-121v-267h121z" />
<glyph unicode="&#xad0c;" horiz-adv-x="845" d="M486 788q0 -95 -7 -169t-24 -137h-60q13 43 21.5 116t8.5 137h-333v53h394zM823 548h-144v-278h-62v576h62v-245h144v-53zM213 371v201h61v-201h2q50 0 138 3t154 18v-54q-63 -14 -149 -17t-145 -3h-235v53h174zM678 -91h-440v302h440v-302zM617 -39v198h-319v-198h319z " />
<glyph unicode="&#xad0d;" horiz-adv-x="845" d="M486 788q0 -95 -7 -164t-24 -132h-60q13 43 21.5 111t8.5 133h-333v52h394zM823 558h-144v-245h-62v533h62v-234h144v-54zM213 392v186h61v-186h2q50 0 138 3t154 17v-52q-63 -15 -149 -18t-145 -3h-235v53h174zM678 -96h-440v352h60v-98h319v98h61v-352zM617 -44v152 h-319v-152h319z" />
<glyph unicode="&#xad0f;" horiz-adv-x="845" d="M486 788q0 -105 -7 -176.5t-24 -134.5h-60q13 43 21.5 113.5t8.5 144.5h-333v53h394zM823 548h-144v-327h-62v625h62v-245h144v-53zM213 372v200h61v-200h2q50 0 138 3t154 18v-54q-63 -14 -149 -17t-145 -3h-235v53h174zM470 130l241 -188l-37 -43l-231 180 q-16 -26 -40 -52q-84 -94 -180 -129l-32 42q90 36 162 119t72 163v13h61v-23q0 -41 -16 -82z" />
<glyph unicode="&#xad11;" horiz-adv-x="845" d="M486 788q0 -95 -7 -164t-24 -132h-60q13 43 21.5 110.5t8.5 132.5h-333v53h394zM823 548h-144v-276h-62v574h62v-245h144v-53zM213 387v195h61v-195h2q50 0 138 3.5t154 17.5v-53q-63 -15 -149 -18t-145 -3h-235v53h174zM616 70q0 57 -42 92t-106 35q-66 0 -106 -35 t-40 -92t40 -92t106 -35q64 0 106 35t42 92zM678 70q0 -37 -16 -70.5t-44 -58.5t-67 -38t-83 -13q-43 0 -82 13t-68 38q-27 25 -42.5 58.5t-15.5 70.5t15.5 70.5t42.5 58.5q29 25 68 38t82 13q44 0 83 -13t67 -38t44 -58.5t16 -70.5z" />
<glyph unicode="&#xad18;" horiz-adv-x="859" d="M418 733q0 -121 -9.5 -221t-26.5 -167h-59q12 49 23.5 139t11.5 195h-279v54h339zM584 482h115v364h60v-926h-60v508h-115v-445h-59v843h59v-344zM172 201v279h61v-279h24q47 0 104 2.5t114 15.5v-54q-58 -12 -114.5 -14.5t-106.5 -2.5h-215v53h133z" />
<glyph unicode="&#xad1c;" horiz-adv-x="859" d="M418 773q0 -110 -10 -186t-27 -140h-57q12 43 23 114.5t11 157.5h-279v54h339zM581 572h118v274h60v-703h-60v376h-118v-354h-59v661h59v-254zM172 342v220h61v-220h21q47 0 104 3t114 15v-53q-58 -13 -114.5 -15.5t-106.5 -2.5h-212v53h133zM769 -86h-489v271h60v-215 h429v-56z" />
<glyph unicode="&#xad20;" horiz-adv-x="859" d="M418 797q0 -87 -9.5 -156.5t-26.5 -134.5h-57q12 43 22.5 113t10.5 127h-279v51h339zM581 601h118v245h60v-514h-60v218h-118v-209h-59v485h59v-225zM172 411v180h61v-180h21q47 0 104 2.5t114 14.5v-51q-58 -12 -114.5 -14.5t-106.5 -2.5h-212v51h133zM776 -96h-482v213 h399v105h-404v51h466v-205h-398v-113h419v-51z" />
<glyph unicode="&#xad29;" horiz-adv-x="859" d="M418 788q0 -95 -9.5 -170.5t-26.5 -139.5h-57q12 43 22.5 118t10.5 140h-279v52h339zM581 601h118v245h60v-533h-60v236h-118v-232h-59v509h59v-225zM172 385v196h61v-196h21q47 0 104 3t114 15v-52q-58 -13 -114.5 -15.5t-106.5 -2.5h-212v52h133zM755 -96h-461v352h60 v-98h340v98h61v-352zM694 -43v150h-340v-150h340z" />
<glyph unicode="&#xad2c;" horiz-adv-x="859" d="M418 788q0 -95 -9.5 -171t-26.5 -140h-57q12 43 22.5 118t10.5 140h-279v53h339zM581 601h118v245h60v-574h-60v276h-118v-259h-59v537h59v-225zM172 368v208h61v-208h21q47 0 104 2.5t114 14.5v-53q-58 -12 -114.5 -14.5t-106.5 -2.5h-212v53h133zM358 192 q0 -41 -16 -86l124 -133q34 32 62 76q43 67 43 146v22h62v-26q0 -39 -12 -79l167 -162l-39 -39l-151 148q-7 -16 -16 -30q-56 -84 -121 -125l-144 150q-50 -93 -137 -146l-37 38q56 32 105 103.5t49 145.5v22h61v-25z" />
<glyph unicode="&#xad2d;" horiz-adv-x="859" d="M418 788q0 -95 -9.5 -168.5t-26.5 -137.5h-57q12 43 22.5 115.5t10.5 137.5h-279v53h339zM581 601h118v245h60v-584h-60v286h-118v-250h-59v528h59v-225zM172 373v203h61v-203h21q47 0 104 2.5t114 15.5v-54q-58 -12 -114.5 -14.5t-106.5 -2.5h-212v53h133zM663 69 q0 54 -42.5 89.5t-106.5 35.5q-62 0 -104 -35.5t-42 -89.5t42 -89.5t104 -35.5q64 0 106.5 35.5t42.5 89.5zM724 69q0 -36 -16 -69t-43 -58q-29 -25 -68 -38t-83 -13q-43 0 -82 13t-67 38t-43.5 58t-15.5 69t15.5 69t43.5 58t67 38t82 13q44 0 83 -13t68 -38q27 -25 43 -58 t16 -69z" />
<glyph unicode="&#xad34;" horiz-adv-x="803" d="M496 733q0 -121 -9.5 -221t-26.5 -167h-61q13 49 24 139.5t11 194.5h-337v54h399zM220 201v268h62v-268h5q49 0 137 3t155 18v-54q-64 -14 -150 -17t-144 -3h-246v53h181zM702 -80h-61v926h61v-926z" />
<glyph unicode="&#xad35;" horiz-adv-x="803" d="M496 788q0 -105 -7.5 -176.5t-24.5 -134.5h-60q13 43 21.5 113.5t8.5 144.5h-337v53h399zM220 360v212h62v-212h5q49 0 137 3t155 17v-53q-64 -14 -150 -17t-144 -3h-246v53h181zM702 846v-584h-61v584h61zM701 -106h-61v252h-390v53h451v-305z" />
<glyph unicode="&#xad38;" horiz-adv-x="803" d="M496 773q0 -111 -7.5 -186t-24.5 -138h-60q13 43 21.5 114t8.5 156h-337v54h399zM220 339v213h62v-213h5q49 0 137 3t155 18v-53q-64 -15 -150 -18t-144 -3h-246v53h181zM702 846v-707h-61v707h61zM719 -86h-459v267h61v-211h398v-56z" />
<glyph unicode="&#xad3c;" horiz-adv-x="803" d="M497 797q0 -93 -7.5 -153.5t-24.5 -123.5h-59q12 42 20.5 102.5t8.5 123.5h-337v51h399zM220 419v179h62v-179h5q49 0 137 3t155 18v-51q-64 -15 -150 -18t-144 -3h-246v51h181zM702 846v-517h-61v517h61zM723 -96h-462v212h379v104h-384v51h445v-204h-376v-112h398v-51z " />
<glyph unicode="&#xad44;" horiz-adv-x="803" d="M496 788q0 -95 -7.5 -169t-24.5 -137h-60q13 43 21.5 116t8.5 137h-337v53h399zM220 371v201h62v-201h5q49 0 137 3t155 18v-54q-64 -14 -150 -17t-144 -3h-246v53h181zM702 846v-576h-61v576h61zM701 -91h-440v302h440v-302zM641 -39v198h-319v-198h319z" />
<glyph unicode="&#xad45;" horiz-adv-x="803" d="M496 788q0 -95 -7.5 -164t-24.5 -132h-60q13 43 21.5 111t8.5 133h-337v52h399zM220 392v185h62v-185h5q49 0 137 3t155 17v-52q-64 -15 -150 -18t-144 -3h-246v53h181zM702 846v-533h-61v533h61zM701 -96h-440v352h61v-98h319v98h60v-352zM641 -44v152h-319v-152h319z " />
<glyph unicode="&#xad47;" horiz-adv-x="803" d="M496 788q0 -105 -7.5 -176.5t-24.5 -134.5h-60q13 43 21.5 113.5t8.5 144.5h-337v53h399zM702 846v-625h-61v625h61zM579 339q-64 -14 -150 -17t-144 -3h-246v53h181v200h62v-200h5q49 0 137 3t155 18v-54zM494 130l240 -188l-37 -43l-230 180q-16 -26 -40 -52 q-84 -94 -180 -129l-32 42q89 36 161.5 119t72.5 163v13h61v-23q0 -41 -16 -82z" />
<glyph unicode="&#xad49;" horiz-adv-x="803" d="M496 788q0 -95 -7.5 -164t-24.5 -132h-60q13 43 21.5 110.5t8.5 132.5h-337v53h399zM220 387v195h62v-195h5q49 0 137 3.5t155 17.5v-53q-64 -15 -150 -18t-144 -3h-246v53h181zM702 846v-574h-61v574h61zM637 70q0 57 -42 92t-107 35t-105.5 -35t-40.5 -92t40.5 -92 t105.5 -35t107 35t42 92zM698 70q0 -37 -15.5 -70.5t-43.5 -58.5q-29 -25 -68 -38t-83 -13q-43 0 -81.5 13t-67.5 38q-28 25 -43 58.5t-15 70.5t15 70.5t43 58.5q29 25 67.5 38t81.5 13q44 0 83 -13t68 -38q28 -25 43.5 -58.5t15.5 -70.5z" />
<glyph unicode="&#xad50;" d="M640 574q-1 -155 -39 -306h-60q39 153 39 320v102h-425v53h485v-169zM791 42h-756v54h191v307h61v-307h127v307h60v-307h317v-54z" />
<glyph unicode="&#xad54;" d="M634 805q0 -96 -7 -194.5t-20 -150.5h-59q12 55 18 142.5t6 149.5h-412v53h474zM233 342v227h61v-227h123v227h58v-227h316v-53h-756v53h198zM666 -86h-476v272h62v-218h414v-54z" />
<glyph unicode="&#xad58;" d="M634 818q0 -97 -7 -172t-20 -126h-59q12 54 18 118.5t6 126.5h-412v53h474zM233 438v166h61v-166h123v166h58v-166h316v-53h-756v53h198zM655 -96h-467v218h386v112h-392v52h453v-214h-386v-116h406v-52z" />
<glyph unicode="&#xad61;" d="M634 805q0 -96 -7 -176.5t-20 -131.5h-59q12 54 18 123.5t6 131.5h-412v53h474zM233 394v196h61v-196h123v196h58v-196h316v-53h-756v53h198zM636 -96h-448v365h62v-112h324v112h62v-365zM574 -44v150h-324v-150h324z" />
<glyph unicode="&#xad63;" d="M634 805q0 -96 -7 -184t-20 -140h-59q12 55 18 132t6 139h-412v53h474zM233 357v205h61v-205h123v205h58v-205h316v-53h-756v53h198zM426 127l265 -185l-36 -47l-258 180q-16 -22 -37 -45q-82 -92 -196 -134l-32 45q92 33 171 115t79 159v10h61v-18q0 -39 -17 -80z" />
<glyph unicode="&#xad6c;" d="M634 785q0 -87 -10.5 -185t-22.5 -161h-59q13 71 21 157.5t8 135.5h-411v53h474zM791 298h-359v-378h-61v378h-336v55h756v-55z" />
<glyph unicode="&#xad6d;" d="M634 805q0 -96 -10 -195q-9 -83 -19 -144h186v-54h-348v-196h188v-321h-62v268h-400v53h213v196h-347v54h512q11 66 18 143q7 91 7 143h-412v53h474z" />
<glyph unicode="&#xad70;" d="M634 805q0 -87 -10 -200q-11 -112 -23 -179h190v-54h-329v-257h-62v257h-365v54h508q13 74 21 175q8 103 8 151h-412v53h474zM664 -86h-475v301h62v-247h413v-54z" />
<glyph unicode="&#xad73;" d="M634 805q0 -88 -9 -185q-11 -97 -23 -163h189v-54h-348v-170h202v-53h-395v-219h404v-53h-466v325h194v170h-347v54h509q14 74 21 157t7 138h-412v53h474z" />
<glyph unicode="&#xad74;" d="M634 818q0 -79 -7 -170q-9 -88 -20 -153h184v-52h-348v-136h192v-225h-386v-126h406v-52h-467v229h386v121h-392v53h200v136h-347v52h514q10 57 17 139q6 85 6 131h-412v53h474z" />
<glyph unicode="&#xad75;" d="M634 818q0 -79 -7 -170q-9 -88 -20 -153h184v-52h-348v-137h246v-402h-57v351h-194v33h-50v-202h-197v-132h256v-50h-313v230h197v121h-201v51h252v137h-347v52h514q10 57 17 139q6 85 6 131h-412v53h474z" />
<glyph unicode="&#xad76;" d="M634 818q0 -79 -7 -170q-9 -88 -20 -153h184v-52h-348v-137h246v-402h-247v384h-56v-202h-193v-132h205v-50h-263v230h194v121h-198v51h251v137h-347v52h514q10 57 17 139q6 85 6 131h-412v53h474zM633 -46v301h-134v-301h134z" />
<glyph unicode="&#xad7b;" d="M634 818q0 -79 -7 -170q-9 -88 -20 -153h184v-52h-348v-155h-60v-202h-190v-132h230v-50h-288v230h191v122h-195v51h251v136h-347v52h514q10 57 17 139q6 85 6 131h-412v53h474zM683 312v-49h-103q-56 0 -106 18l10 44q66 -13 106 -13h93zM745 140h-92q3 -2 7 -5 q23 -16 38.5 -46t15.5 -58q0 -29 -10 -57t-28 -46q-18 -19 -44 -29t-52 -10q-27 0 -53 10t-44 29q-18 18 -28 46t-10 57q0 28 15.5 58t38.5 46q4 3 7 5h-82v49h321v-49zM656 32q0 39 -21.5 66t-54.5 27q-34 0 -55.5 -27t-21.5 -66t21.5 -66t55.5 -27q33 0 54.5 27t21.5 66z " />
<glyph unicode="&#xad7c;" d="M634 805q0 -88 -9 -185q-11 -97 -23 -163h189v-54h-348v-171h193v-323h-448v323h194v171h-347v54h509q14 74 21 157t7 138h-412v53h474zM575 -39v219h-326v-219h326z" />
<glyph unicode="&#xad7d;" d="M634 805q0 -81 -8 -182q-9 -97 -20 -163h185v-53h-348v-154h-61v154h-347v53h513q13 73 19 157q5 87 5 135h-412v53h474zM636 -96h-448v375h62v-117h324v117h62v-375zM574 -44v155h-324v-155h324z" />
<glyph unicode="&#xad7f;" d="M634 805q0 -96 -10 -195q-10 -96 -22 -160h189v-54h-348v-138h-61v138h-347v54h509q13 72 21 159q7 91 7 143h-412v53h474zM429 130l262 -189l-38 -46l-252 182q-17 -24 -42 -50q-84 -87 -195 -131l-33 45q95 38 173 115t78 157v12h61v-21q0 -37 -14 -74z" />
<glyph unicode="&#xad81;" d="M634 805q0 -91 -9 -185q-10 -92 -21 -158h187v-54h-348v-140q30 -3 58 -13q41 -14 70 -40q29 -25 46 -60.5t17 -74.5t-17 -74t-46 -61q-29 -25 -70.5 -39.5t-87.5 -14.5q-45 0 -86.5 14.5t-71.5 39.5q-29 26 -45 61t-16 74t16 74.5t45 60.5q30 26 72 40q26 10 55 13v140 h-347v54h511q13 73 20 154q6 82 6 136h-412v53h474zM571 80q0 28 -11.5 54t-34.5 45q-21 18 -50.5 27.5t-61.5 9.5t-61 -9.5t-51 -27.5q-22 -19 -33.5 -45t-11.5 -54q0 -27 11.5 -53.5t33.5 -44.5t51 -28t61 -10t61.5 10t50.5 28q23 18 34.5 44.5t11.5 53.5z" />
<glyph unicode="&#xad82;" d="M634 805q0 -88 -9 -185q-11 -97 -23 -163h189v-54h-348v-170h179q-2 -9 -26 -51q-37 -65 -103 -122l220 -124l-31 -44l-236 132q-10 -7 -21 -14q-118 -80 -251 -116l-29 44q88 22 207 91t172 152h-325v52h183v170h-347v54h509q14 74 21 157t7 138h-412v53h474z" />
<glyph unicode="&#xad88;" horiz-adv-x="803" d="M493 765q0 -120 -11 -225q-9 -96 -24 -160q67 4 121 16v-54q-64 -14 -150 -17q-62 -2 -111 -3v-387h-61v387h-218v53h248q41 0 109 2q12 48 23 135q12 96 12 200h-337v53h399zM641 -80v232h-198v53h198v641h61v-926h-61z" />
<glyph unicode="&#xad89;" horiz-adv-x="803" d="M496 788q0 -95 -9 -175q-8 -69 -22 -126q63 4 114 15v-53q-64 -14 -150 -17q-70 -3 -121 -4v-199h-61v199h-208v54h248q44 0 119 2q10 41 18 107q10 79 10 144h-340v53h402zM641 228v65h-198v52h198v501h61v-618h-61zM701 -106h-61v221h-424v53h485v-274z" />
<glyph unicode="&#xad8c;" horiz-adv-x="803" d="M495 777q0 -111 -9 -196q-7 -78 -22 -137q63 4 115 15v-53q-64 -14 -150 -17q-70 -3 -121 -4v-171h-61v171h-208v54h248q43 0 116 2q12 43 21 116q9 81 9 166h-339v54h401zM641 109v116h-198v53h198v568h61v-737h-61zM717 -86h-480v239h62v-185h418v-54z" />
<glyph unicode="&#xad90;" horiz-adv-x="803" d="M496 798q0 -90 -8 -161q-6 -59 -18 -113q59 5 109 15v-51q-64 -15 -150 -18q-70 -2 -121 -3v-163h-61v163h-208v52h248q45 0 123 3q9 38 16 95q8 72 8 130h-340v51h402zM641 298v51h-198v50h198v447h61v-548h-61zM723 -96h-487v201h404v92h-410v51h471v-192h-402v-101 h424v-51z" />
<glyph unicode="&#xad9c;" horiz-adv-x="803" d="M496 788q0 -95 -8 -165q-6 -62 -21 -121q61 5 112 16v-54q-64 -14 -150 -17q-70 -2 -121 -3v-190h-61v190h-208v53h248q44 0 121 2q10 41 18 102q8 69 8 134h-340v53h402zM641 253v52h-198v52h198v489h61v-593h-61zM344 184q0 -41 -13 -81l122 -132q30 26 58 67 q44 66 44 150v14h61v-18q0 -36 -10 -73l165 -162l-40 -38l-146 146q-8 -17 -19 -33q-51 -82 -120 -121l-138 147q-48 -92 -140 -142l-38 39q59 32 106 95t47 146v14h61v-18z" />
<glyph unicode="&#xad9d;" horiz-adv-x="803" d="M496 788q0 -75 -8 -153q-7 -73 -22 -134q62 4 113 16v-54q-64 -14 -150 -17q-70 -2 -121 -3v-195h-61v195h-208v53h248q44 0 119 2q11 43 20 116q8 77 8 121h-340v53h402zM641 247v68h-198v52h198v479h61v-599h-61zM637 62q0 51 -42.5 84.5t-106.5 33.5q-62 0 -104 -33.5 t-42 -84.5t42 -84.5t104 -33.5q64 0 106.5 33.5t42.5 84.5zM698 62q0 -35 -15 -67t-44 -55q-29 -24 -68 -36.5t-83 -12.5q-43 0 -81.5 12.5t-67.5 36.5q-29 23 -43.5 55t-14.5 67t14.5 67t43.5 55t67.5 36t81.5 13q44 0 83 -13t68 -36t44 -55t15 -67z" />
<glyph unicode="&#xada4;" horiz-adv-x="859" d="M428 765q0 -120 -10 -221q-9 -94 -26 -159q46 4 92 14v-54q-58 -12 -114 -14q-51 -3 -96 -3v-383h-60v383h-175v53h226q32 0 69 1q11 48 22 133q13 92 13 197h-290v53h349zM362 205h176v621h58v-881h-58v207h-176v53zM699 -80v926h60v-926h-60z" />
<glyph unicode="&#xadb7;" horiz-adv-x="859" d="M427 788q0 -95 -7 -169q-6 -67 -22 -125q43 4 86 13v-53q-58 -12 -114 -14q-49 -3 -95 -3v-213h-61v213h-175v53h226q35 0 76 1q10 42 18 107q9 73 9 137h-289v53h348zM362 351h176v475h58v-581h-58v53h-176v53zM699 203v643h60v-643h-60zM506 124l244 -180l-36 -45 l-235 174q-19 -28 -46 -54q-85 -85 -175 -121l-35 43q72 28 152.5 103t80.5 150v9h61v-17q0 -31 -11 -62z" />
<glyph unicode="&#xadc0;" horiz-adv-x="803" d="M493 765q0 -139 -12 -240q-10 -93 -25 -158q68 5 123 16v-53q-64 -14 -150 -17q-62 -2 -111 -3v-375h-61v375h-218v53h248q41 0 107 2q12 47 24 132q13 92 13 215h-337v53h399zM641 -80v926h61v-926h-61z" />
<glyph unicode="&#xadc1;" horiz-adv-x="803" d="M496 788q0 -95 -9 -184q-7 -81 -22 -141q63 4 114 16v-54q-64 -14 -150 -17q-70 -2 -121 -3v-166h-61v166h-208v53h248q44 0 119 2q10 43 19 123q9 88 9 152h-340v53h402zM641 238v608h61v-608h-61zM701 -106h-61v231h-424v54h485v-285z" />
<glyph unicode="&#xadc4;" horiz-adv-x="803" d="M495 777q0 -111 -9 -206q-8 -90 -23 -152q64 4 116 16v-54q-64 -14 -150 -17q-70 -2 -121 -3v-147h-61v147h-208v53h248q43 0 115 2q12 43 22 131q9 91 9 176h-339v54h401zM641 109v737h61v-737h-61zM717 -86h-480v239h62v-185h418v-54z" />
<glyph unicode="&#xadc8;" horiz-adv-x="803" d="M496 798q0 -90 -9 -166q-7 -71 -23 -132q63 4 115 15v-51q-64 -14 -150 -17q-70 -2 -121 -3v-130h-61v130h-208v51h248q43 0 116 2q13 43 22 115q9 77 9 135h-340v51h402zM641 313v533h61v-533h-61zM723 -96h-487v206h404v97h-410v51h471v-197h-402v-106h424v-51z" />
<glyph unicode="&#xadd0;" horiz-adv-x="803" d="M496 788q0 -95 -9 -181q-7 -79 -22 -140q62 4 114 16v-54q-64 -14 -150 -17q-70 -2 -121 -3v-144h-61v144h-208v53h248q44 0 117 2q12 43 21 122q9 85 9 149h-340v53h402zM641 264v582h61v-582h-61zM701 -91h-465v296h465v-296zM641 -39v192h-345v-192h345z" />
<glyph unicode="&#xadd1;" horiz-adv-x="803" d="M496 788q0 -111 -10 -193q-8 -74 -23 -134q64 4 116 16v-53q-64 -14 -150 -17q-70 -2 -121 -3v-121h-61v121h-208v52h248q43 0 116 2q11 43 21 117q10 83 10 161h-340v52h402zM641 282v564h61v-564h-61zM701 -96h-465v322h60v-93h345v93h60v-322zM641 -44v126h-345v-126 h345z" />
<glyph unicode="&#xadd3;" horiz-adv-x="803" d="M496 788q0 -95 -9 -184q-7 -83 -23 -144q63 4 115 16v-54q-64 -14 -150 -17q-70 -2 -121 -3v-183h-61v183h-208v53h248q43 0 117 2q12 43 21 126q9 88 9 152h-340v53h402zM641 217v629h61v-629h-61zM472 130l246 -187l-37 -44l-236 181q-15 -23 -35 -47 q-79 -93 -181 -135l-34 43q81 33 156.5 115t75.5 159v24h61v-32q0 -37 -16 -77z" />
<glyph unicode="&#xaddc;" d="M634 785q0 -87 -10.5 -185t-22.5 -161h-59q13 71 21 157.5t8 135.5h-411v53h474zM791 298h-209v-378h-62v378h-216v-378h-61v378h-208v55h756v-55z" />
<glyph unicode="&#xade0;" d="M634 805q0 -87 -10 -200q-11 -111 -22 -177h189v-54h-226v-244h-60v244h-122v-244h-60v244h-288v54h509q12 74 20 173q8 103 8 151h-412v53h474zM664 -86h-481v293h62v-239h419v-54z" />
<glyph unicode="&#xade4;" d="M634 818q0 -79 -7 -170q-9 -87 -20 -152h184v-52h-225v-137h69v-225h-386v-126h406v-52h-467v229h386v121h-392v53h76v137h-223v52h514q10 57 17 138q6 85 6 131h-412v53h474zM506 307v137h-188v-137h188z" />
<glyph unicode="&#xadf8;" d="M636 574q-1 -159 -44 -330h-61q44 173 44 344v102h-420v53h481v-169zM35 97h756v-55h-756v55z" />
<glyph unicode="&#xadf9;" d="M634 805q0 -88 -9 -209q-9 -100 -20 -162h186v-55h-756v55h513q11 66 17 156q7 106 7 162h-412v53h474zM631 -105h-62v276h-400v54h462v-330z" />
<glyph unicode="&#xadfc;" d="M634 805q0 -87 -10 -213q-11 -124 -23 -190h190v-54h-756v54h508q13 75 21 187q8 115 8 163h-412v53h474zM664 -86h-475v313h62v-259h413v-54z" />
<glyph unicode="&#xadff;" d="M634 805q0 -86 -9 -194q-11 -107 -22 -172h188v-55h-756v55h510q13 73 20 166q7 94 7 147h-412v53h474zM654 -92h-466v337h457v-53h-395v-231h404v-53z" />
<glyph unicode="&#xae00;" d="M634 818q0 -79 -7 -176q-9 -96 -21 -161h185v-53h-756v53h513q12 67 18 152q6 86 6 132h-412v53h474zM655 -96h-467v229h386v121h-392v53h453v-225h-386v-126h406v-52z" />
<glyph unicode="&#xae01;" d="M634 818q0 -79 -7 -176q-9 -96 -21 -161h185v-53h-756v53h513q12 67 18 152q6 86 6 132h-412v53h474zM689 -96h-57v351h-194v51h251v-402zM447 -96h-313v230h197v121h-201v51h258v-220h-197v-132h256v-50z" />
<glyph unicode="&#xae08;" d="M634 805q0 -86 -9 -194q-11 -107 -22 -172h188v-55h-756v55h510q13 73 20 166q7 94 7 147h-412v53h474zM575 -39v232h-326v-232h326zM188 245h448v-336h-448v336z" />
<glyph unicode="&#xae09;" d="M634 805q0 -79 -8 -192q-10 -113 -22 -179h187v-54h-756v54h511q14 73 20 173q6 99 6 145h-412v53h474zM636 -96h-448v385h62v-117h324v117h62v-385zM574 -44v165h-324v-165h324z" />
<glyph unicode="&#xae0b;" d="M634 805q0 -88 -9 -209q-11 -115 -23 -181h189v-54h-756v54h509q14 73 21 175q7 106 7 162h-412v53h474zM426 138l265 -196l-36 -47l-257 189q-16 -25 -38 -50q-82 -94 -196 -138l-33 45q98 38 174.5 122t76.5 177v15h61v-24q0 -47 -17 -93z" />
<glyph unicode="&#xae0d;" d="M634 805q0 -112 -10 -215q-11 -97 -22 -163h189v-54h-756v54h509q13 73 21 165q7 97 7 160h-412v53h474zM571 80q0 28 -11.5 54t-34.5 45q-21 18 -50.5 27.5t-61.5 9.5t-61 -9.5t-51 -27.5q-22 -19 -33.5 -45t-11.5 -54q0 -27 11.5 -53.5t33.5 -44.5t51 -28t61 -10 t61.5 10t50.5 28q23 18 34.5 44.5t11.5 53.5zM634 80q0 -39 -17 -74t-46 -61q-29 -25 -70.5 -39.5t-87.5 -14.5q-45 0 -86.5 14.5t-71.5 39.5q-29 26 -45 61t-16 74t16 74.5t45 60.5q30 26 71.5 40.5t86.5 14.5q46 0 87.5 -14.5t70.5 -40.5q29 -25 46 -60.5t17 -74.5z" />
<glyph unicode="&#xae14;" horiz-adv-x="803" d="M496 733q0 -121 -9.5 -221t-26.5 -167h-61q13 49 24 139.5t11 194.5h-337v54h399zM702 -80h-61v926h61v-926zM579 168q-64 -14 -150 -17t-144 -3h-246v53h248q49 0 137 3t155 18v-54z" />
<glyph unicode="&#xae30;" horiz-adv-x="791" d="M439 720q-19 -343 -349 -543l-38 39q281 174 317 451h-283v53h353zM690 -80h-61v926h61v-926z" />
<glyph unicode="&#xae31;" horiz-adv-x="791" d="M438 775q-6 -127 -94 -254t-255 -210l-37 40q127 65 211 161.5t102 208.5h-279v54h352zM629 295v551h61v-551h-61zM687 -106h-61v278h-403v54h464v-332z" />
<glyph unicode="&#xae34;" horiz-adv-x="791" d="M437 765q-9 -149 -101.5 -277.5t-247.5 -205.5l-36 41q139 74 220.5 181t92.5 208h-279v53h351zM629 177v669h61v-669h-61zM705 -86h-451v288h61v-234h390v-54z" />
<glyph unicode="&#xae37;" horiz-adv-x="791" d="M438 775q-8 -135 -97.5 -253t-251.5 -203l-37 41q121 60 207 155.5t107 205.5h-280v54h352zM629 307v539h61v-539h-61zM696 -91h-428v328h419v-53h-357v-221h366v-54z" />
<glyph unicode="&#xae38;" horiz-adv-x="791" d="M437 786q-7 -123 -90.5 -241.5t-258.5 -204.5l-36 41q121 57 208.5 150.5t104.5 201.5h-279v53h351zM629 354v492h61v-492h-61zM711 -96h-443v226h358v109h-362v53h423v-214h-357v-121h381v-53z" />
<glyph unicode="&#xae3a;" horiz-adv-x="791" d="M437 786q-7 -123 -90.5 -241.5t-258.5 -204.5l-36 41q121 57 208.5 150.5t104.5 201.5h-279v53h351zM629 354v492h61v-492h-61zM689 -96h-223v389h223v-389zM415 -96h-237v224h168v113h-172v52h228v-214h-168v-123h181v-52zM634 -44v285h-114v-285h114z" />
<glyph unicode="&#xae40;" horiz-adv-x="791" d="M438 775q-8 -135 -97.5 -253t-251.5 -203l-37 41q121 60 207 155.5t107 205.5h-280v54h352zM629 307v539h61v-539h-61zM689 -91h-419v328h419v-328zM629 -39v224h-298v-224h298z" />
<glyph unicode="&#xae41;" horiz-adv-x="791" d="M438 775q-7 -121 -90 -239t-259 -210l-37 41q122 60 207.5 154t106.5 200h-280v54h352zM629 330v516h61v-516h-61zM687 -96h-419v372h61v-106h298v106h60v-372zM627 -44v163h-298v-163h298z" />
<glyph unicode="&#xae43;" horiz-adv-x="791" d="M437 775q-9 -148 -101 -277.5t-247 -206.5l-37 40q139 74 220.5 182.5t92.5 207.5h-279v54h351zM629 236v610h61v-610h-61zM480 149l245 -206l-40 -44l-230 198q-15 -25 -34 -49q-79 -100 -188 -150l-33 44q89 40 163 130t74 180v14h62v-23q0 -47 -19 -94z" />
<glyph unicode="&#xae45;" horiz-adv-x="791" d="M437 775q-9 -148 -101 -277.5t-247 -206.5l-37 40q139 74 220.5 182.5t92.5 207.5h-279v54h351zM629 292v554h61v-554h-61zM628 78q0 59 -42 96.5t-103 37.5q-60 0 -102 -37.5t-42 -96.5q0 -58 42 -96t102 -38q61 0 103 38t42 96zM689 78q0 -38 -15.5 -72.5t-42.5 -60.5 q-28 -25 -66.5 -39.5t-81.5 -14.5t-81 14.5t-66 39.5q-28 26 -43 60.5t-15 72.5t15 73t43 60q28 26 66 40.5t81 14.5t81.5 -14.5t66.5 -40.5q27 -25 42.5 -60t15.5 -73z" />
<glyph unicode="&#xae46;" horiz-adv-x="791" d="M438 775q-8 -135 -97.5 -253t-251.5 -203l-37 41q121 60 207 155.5t107 205.5h-280v54h352zM629 307v539h61v-539h-61zM493 22q-131 -83 -267 -118l-27 45q95 26 199 82q111 60 182 154h-328v52h424q-1 -13 -27 -53q-43 -69 -100 -119l218 -117l-31 -46l-234 126 q-5 -3 -9 -6z" />
<glyph unicode="&#xae4a;" horiz-adv-x="791" d="M438 775q-8 -135 -97.5 -253t-251.5 -203l-37 41q121 60 207 155.5t107 205.5h-280v54h352zM629 307v539h61v-539h-61zM706 -39v-52h-495v52h96v224h-94v52h490v-52h-88v-224h91zM367 -39h189v224h-189v-224z" />
<glyph unicode="&#xae4c;" horiz-adv-x="847" d="M511 720l-2 -25q-23 -329 -176 -523l-47 31q141 188 159 464h-130v53h196zM269 720q0 -6 -2 -34q-17 -279 -187 -481l-46 30q151 182 172 432h-135v53h198zM822 450h-145v-530h-61v926h61v-338h145v-58z" />
<glyph unicode="&#xae4d;" horiz-adv-x="847" d="M506 778q0 -2 -2 -28q-7 -116 -49 -228t-125 -200l-45 33q81 89 117.5 192t36.5 177h-126v54h193zM266 778q0 -15 -1 -35q-4 -97 -51.5 -200.5t-135.5 -187.5l-44 34q81 75 123 166.5t44 168.5h-130v54h195zM819 553h-142v-262h-61v555h61v-234h142v-59zM677 -106h-62 v278h-412v54h474v-332z" />
<glyph unicode="&#xae4e;" horiz-adv-x="847" d="M506 778q0 -2 -2 -28q-7 -116 -49 -228t-125 -200l-45 33q81 89 117.5 192t36.5 177h-126v54h193zM266 778q0 -15 -1 -35q-4 -97 -51.5 -200.5t-135.5 -187.5l-44 34q81 75 123 166.5t44 168.5h-130v54h195zM819 553h-142v-262h-61v555h61v-234h142v-59zM399 226v-332 h-60v278h-189v54h249zM677 226v-332h-61v278h-166v54h227z" />
<glyph unicode="&#xae50;" horiz-adv-x="847" d="M506 766q0 -2 -2 -27q-7 -110 -50 -229t-128 -216l-45 32q70 83 113 191t44 196h-125v53h193zM266 766q0 -9 -1 -34q-3 -90 -49 -202t-138 -204l-44 33q84 87 124.5 178.5t42.5 175.5h-130v53h195zM819 533h-142v-361h-61v674h61v-255h142v-58zM695 -86h-461v288h62v-234 h399v-54z" />
<glyph unicode="&#xae54;" horiz-adv-x="847" d="M506 788q0 -1 -2 -27q-8 -105 -51 -207.5t-123 -181.5l-45 34q75 72 114 167t40 163h-126v52h193zM266 788q0 -13 -1 -34q-7 -96 -60 -192t-129 -157l-42 36q77 64 120 144.5t48 150.5h-131v52h195zM819 578h-142v-224h-61v492h61v-211h142v-57zM700 -96h-452v226h367 v109h-371v53h433v-214h-368v-121h391v-53z" />
<glyph unicode="&#xae56;" horiz-adv-x="847" d="M506 788q0 -1 -2 -27q-8 -105 -51 -207.5t-123 -181.5l-45 34q75 72 114 167t40 163h-126v52h193zM266 788q0 -13 -1 -34q-7 -96 -60 -192t-129 -157l-42 36q77 64 120 144.5t48 150.5h-131v52h195zM819 578h-142v-224h-61v492h61v-211h142v-57zM677 -96h-226v389h226 v-389zM396 -96h-242v224h173v113h-177v52h234v-214h-173v-123h185v-52zM621 -44v285h-115v-285h115z" />
<glyph unicode="&#xae5c;" horiz-adv-x="847" d="M506 778q0 -2 -2 -28q-7 -113 -49 -222.5t-125 -193.5l-45 33q80 84 117 184t37 173h-126v54h193zM266 778q0 -15 -1 -35q-6 -100 -56 -202.5t-130 -174.5l-44 35q73 63 119 154.5t47 168.5h-130v54h195zM819 555h-142v-253h-61v544h61v-232h142v-59zM677 -91h-429v328 h429v-328zM616 -39v224h-308v-224h308z" />
<glyph unicode="&#xae5d;" horiz-adv-x="847" d="M506 778q0 -1 -2 -27q-7 -113 -49 -215.5t-125 -186.5l-45 32q80 84 117 177t37 167h-126v53h193zM266 778q0 -14 -1 -34q-6 -103 -57.5 -200.5t-129.5 -163.5l-44 35q76 67 120 150.5t47 159.5h-130v53h195zM819 564h-142v-243h-61v525h61v-225h142v-57zM677 -96h-429 v367h60v-106h308v106h61v-367zM616 -44v158h-308v-158h308z" />
<glyph unicode="&#xae5f;" horiz-adv-x="847" d="M506 778q0 -2 -2 -28q-7 -116 -49 -232t-125 -204l-45 33q81 89 117.5 196t36.5 181h-126v54h193zM266 778q0 -15 -1 -35q-4 -97 -51.5 -205t-135.5 -191l-44 33q81 76 123 171.5t44 172.5h-130v54h195zM819 543h-142v-311h-61v614h61v-245h142v-58zM466 149l245 -206 l-40 -44l-231 198q-14 -25 -33 -49q-79 -100 -188 -150l-34 44q89 40 163.5 130t74.5 180v14h61v-23q0 -47 -18 -94z" />
<glyph unicode="&#xae60;" horiz-adv-x="847" d="M506 778q0 -2 -2 -28q-7 -113 -49 -222.5t-125 -193.5l-45 33q80 84 117 184t37 173h-126v54h193zM266 778q0 -15 -1 -35q-6 -100 -56 -202.5t-130 -174.5l-44 35q73 63 119 154.5t47 168.5h-130v54h195zM819 555h-142v-253h-61v544h61v-232h142v-59zM325 219 q0 -48 -17 -97l124 -147q33 33 60 81q42 73 42 166v26h61v-31q0 -48 -14 -95l164 -176l-38 -35l-147 157q-7 -15 -16 -32q-52 -91 -119 -132l-140 163q-5 -10 -12 -21q-51 -90 -130 -138l-35 38q57 33 106 112t49 164v26h62v-29z" />
<glyph unicode="&#xae61;" horiz-adv-x="847" d="M506 778q0 -2 -2 -28q-7 -116 -49 -232t-125 -204l-45 33q81 89 117.5 196t36.5 181h-126v54h193zM266 778q0 -15 -1 -35q-4 -97 -51.5 -205t-135.5 -191l-44 33q81 76 123 171.5t44 172.5h-130v54h195zM819 555h-142v-265h-61v556h61v-232h142v-59zM620 78 q0 59 -42 96.5t-105 37.5q-62 0 -103.5 -36.5t-42.5 -97.5q0 -58 42 -96t104 -38q63 0 105 38t42 96zM681 78q0 -38 -16 -72.5t-42 -60.5q-29 -25 -68 -39.5t-82 -14.5t-82 14.5t-67 39.5q-27 26 -43 60.5t-16 72.5t16 73t43 60q28 26 67 40.5t82 14.5t82 -14.5t68 -40.5 q26 -25 42 -60t16 -73z" />
<glyph unicode="&#xae65;" horiz-adv-x="847" d="M506 788q0 -1 -2 -27q-8 -105 -51 -207.5t-123 -181.5l-45 34q75 72 114 167t40 163h-126v52h193zM266 788q0 -13 -1 -34q-7 -96 -60 -192t-129 -157l-42 36q77 64 120 144.5t48 150.5h-131v52h195zM819 578h-142v-224h-61v492h61v-211h142v-57zM686 -96h-438v388h429 v-53h-368v-112h357v-51h-357v-119h377v-53z" />
<glyph unicode="&#xae68;" horiz-adv-x="855" d="M460 720q0 -29 -2 -58q-21 -296 -168 -496l-49 30q141 190 154 471h-110v53h175zM242 720q-6 -314 -172 -515l-47 29q148 185 153 433h-113v53h179zM696 -80v526h-103v-463h-57v843h57v-327h103v347h59v-926h-59z" />
<glyph unicode="&#xae69;" horiz-adv-x="855" d="M460 777q-5 -128 -45.5 -251t-126.5 -210l-43 33q69 76 106.5 178t39.5 196h-107v54h176zM242 777q-6 -150 -55.5 -253t-120.5 -172l-43 32q62 60 104.5 147.5t49.5 191.5h-114v54h179zM696 291v258h-97v-242h-57v519h57v-223h97v243h59v-555h-59zM750 -106h-62v278h-423 v54h485v-332z" />
<glyph unicode="&#xae6c;" horiz-adv-x="855" d="M460 766q-7 -141 -53 -271.5t-123 -211.5l-45 32q68 76 109 189.5t43 208.5h-107v53h176zM242 766q-4 -151 -54 -260.5t-121 -180.5l-44 33q62 59 105.5 154t47.5 201h-113v53h179zM696 172v354h-97v-331h-57v631h57v-247h97v267h59v-674h-59zM767 -86h-471v288h61v-234 h410v-54z" />
<glyph unicode="&#xae70;" horiz-adv-x="855" d="M460 787q-5 -115 -45 -227.5t-126 -195.5l-44 34q67 66 105.5 161t40.5 176h-107v52h176zM242 787q-6 -133 -54.5 -228t-118.5 -159l-45 33q60 56 103 134.5t50 167.5h-114v52h179zM696 350v231h-97v-216h-57v461h57v-192h97v212h59v-496h-59zM773 -96h-463v224h378v107 h-382v53h444v-212h-378v-119h401v-53z" />
<glyph unicode="&#xae78;" horiz-adv-x="855" d="M460 777q-5 -128 -45.5 -245.5t-126.5 -204.5l-43 34q67 72 105.5 171t40.5 191h-107v54h176zM242 777q-6 -148 -54.5 -246t-119.5 -169l-45 34q62 59 104.5 142t49.5 185h-114v54h179zM696 299v255h-97v-239h-57v511h57v-218h97v238h59v-547h-59zM746 -91h-439v325h439 v-325zM686 -39v221h-318v-221h318z" />
<glyph unicode="&#xae79;" horiz-adv-x="855" d="M460 777q-5 -119 -45.5 -233.5t-126.5 -201.5l-43 34q67 72 105.5 168.5t40.5 179.5h-107v53h176zM242 777q-6 -140 -54 -234.5t-119 -165.5l-46 33q62 60 104.5 141.5t49.5 172.5h-114v53h179zM696 321v245h-97v-235h-57v495h57v-207h97v227h59v-525h-59zM750 -96h-440 v367h61v-106h318v106h61v-367zM689 -44v158h-318v-158h318z" />
<glyph unicode="&#xae7b;" horiz-adv-x="855" d="M460 777q-7 -142 -53 -270t-123 -209l-45 32q68 76 109 186.5t43 206.5h-107v54h176zM242 777q-4 -152 -54 -259t-121 -178l-44 33q62 60 105.5 152t47.5 198h-113v54h179zM599 591h97v255h59v-612h-59v304h-97v-241h-57v529h57v-235zM518 136l245 -193l-39 -44l-234 184 q-14 -21 -31 -42q-79 -92 -188 -143l-33 44q89 40 163 123t74 169v9h62v-17q0 -45 -19 -90z" />
<glyph unicode="&#xae7c;" horiz-adv-x="855" d="M460 777q-5 -128 -45.5 -245.5t-126.5 -204.5l-43 34q67 72 105.5 171t40.5 191h-107v54h176zM242 777q-6 -148 -54.5 -246t-119.5 -169l-45 34q62 59 104.5 142t49.5 185h-114v54h179zM696 299v255h-97v-239h-57v511h57v-218h97v238h59v-547h-59zM384 219q0 -48 -17 -97 l128 -148q33 33 62 82q44 73 44 166v23h62v-28q0 -48 -15 -95l169 -175l-38 -36l-152 158q-27 -55 -64.5 -98.5t-74.5 -66.5l-145 165q-22 -46 -61 -89.5t-84 -71.5l-35 38q57 33 108.5 112t51.5 164v23h61v-26z" />
<glyph unicode="&#xae7d;" horiz-adv-x="855" d="M460 777q-7 -142 -53 -270t-123 -209l-45 32q68 76 109 186.5t43 206.5h-107v54h176zM242 777q-4 -152 -54 -259t-121 -178l-44 33q62 60 105.5 152t47.5 198h-113v54h179zM696 270v278h-97v-235h-57v513h57v-225h97v245h59v-576h-59zM669 73q0 56 -42.5 93t-106.5 37 q-62 0 -104 -37t-42 -93t42 -93t104 -37q64 0 106.5 37t42.5 93zM730 73q0 -37 -16 -71t-43 -60q-29 -25 -68 -38.5t-83 -13.5q-43 0 -82 13.5t-67 38.5q-28 26 -43.5 60t-15.5 71t15.5 71.5t43.5 59.5t67 38.5t82 13.5q44 0 83 -13.5t68 -38.5q27 -25 43 -59.5t16 -71.5z " />
<glyph unicode="&#xae84;" horiz-adv-x="847" d="M511 720l-2 -25q-23 -329 -176 -523l-47 31q141 188 159 464h-130v53h196zM269 720q0 -6 -2 -34q-17 -279 -187 -481l-46 30q151 182 172 432h-135v53h198zM822 554h-145v-194h145v-53h-145v-387h-60v926h60v-238h145v-54z" />
<glyph unicode="&#xae85;" horiz-adv-x="847" d="M506 778q0 -2 -2 -28q-7 -116 -49 -228t-125 -200l-45 33q81 89 117.5 192t36.5 177h-126v54h193zM266 778q0 -15 -1 -35q-4 -97 -51.5 -200.5t-135.5 -187.5l-44 34q81 75 123 166.5t44 168.5h-130v54h195zM819 634h-142v-145h142v-53h-142v-145h-60v555h60v-158h142 v-54zM677 -106h-62v278h-412v54h474v-332z" />
<glyph unicode="&#xae8c;" horiz-adv-x="847" d="M506 788q0 -1 -2 -27q-8 -105 -51 -207.5t-123 -181.5l-45 34q75 72 114 167t40 163h-126v52h193zM266 788q0 -13 -1 -34q-7 -96 -60 -192t-129 -157l-42 36q77 64 120 144.5t48 150.5h-131v52h195zM819 661h-142v-129h142v-53h-142v-125h-60v492h60v-132h142v-53z M700 -96h-452v226h367v109h-371v53h433v-214h-368v-121h391v-53z" />
<glyph unicode="&#xaebc;" horiz-adv-x="809" d="M511 720l-2 -25q-7 -112 -31 -208h180v359h60v-926h-60v513h-194q-45 -152 -131 -261l-47 31q141 188 159 464h-130v53h196zM269 720q0 -6 -2 -34q-17 -279 -187 -481l-46 30q151 182 172 432h-135v53h198z" />
<glyph unicode="&#xaebd;" horiz-adv-x="809" d="M506 778q0 -2 -2 -28q-5 -83 -29 -165h183v261h60v-555h-60v240h-200q-1 -4 -3 -8q-42 -113 -125 -201l-45 33q81 89 117.5 192t36.5 177h-126v54h193zM266 778q0 -15 -1 -35q-4 -97 -51.5 -200.5t-135.5 -187.5l-44 34q81 75 123 166.5t44 168.5h-130v54h195zM715 -106 h-62v278h-412v54h474v-332z" />
<glyph unicode="&#xaebe;" horiz-adv-x="809" d="M506 778q0 -2 -2 -28q-5 -83 -29 -165h183v261h60v-555h-60v240h-200q-1 -4 -3 -8q-42 -113 -125 -201l-45 33q81 89 117.5 192t36.5 177h-126v54h193zM266 778q0 -15 -1 -35q-4 -97 -51.5 -200.5t-135.5 -187.5l-44 34q81 75 123 166.5t44 168.5h-130v54h195zM439 226 v-332h-60v278h-190v54h250zM717 226v-332h-61v278h-167v54h228z" />
<glyph unicode="&#xaec0;" horiz-adv-x="809" d="M506 766q0 -2 -2 -27q-5 -81 -31 -168h185v275h60v-674h-60v346h-201q-2 -5 -3 -8q-43 -119 -128 -216l-45 32q70 83 113 191t44 196h-125v53h193zM266 766q0 -9 -1 -34q-3 -90 -49 -202t-138 -204l-44 33q84 87 124.5 178.5t42.5 175.5h-130v53h195zM734 -86h-461v288 h62v-234h399v-54z" />
<glyph unicode="&#xaec4;" horiz-adv-x="809" d="M506 788q0 -1 -2 -27q-6 -76 -30 -149h184v234h60v-492h-60v202h-204q0 -1 -1 -3q-43 -102 -123 -181l-45 34q75 72 114 167t40 163h-126v52h193zM266 788q0 -13 -1 -34q-7 -96 -60 -192t-129 -157l-42 36q77 64 120 144.5t48 150.5h-131v52h195zM738 -96h-452v226h367 v109h-371v53h433v-214h-368v-121h391v-53z" />
<glyph unicode="&#xaecc;" horiz-adv-x="809" d="M506 778q0 -2 -2 -28q-5 -82 -29 -162h183v258h60v-544h-60v232h-201l-2 -6q-42 -110 -125 -194l-45 33q80 84 117 184t37 173h-126v54h193zM266 778q0 -15 -1 -35q-6 -100 -56 -202.5t-130 -174.5l-44 35q73 63 119 154.5t47 168.5h-130v54h195zM717 -91h-429v328h429 v-328zM656 -39v224h-308v-224h308z" />
<glyph unicode="&#xaecd;" horiz-adv-x="809" d="M506 778q0 -1 -2 -27q-5 -78 -27 -151h181v246h60v-525h-60v224h-199q-2 -5 -4 -9q-42 -103 -125 -187l-45 32q80 84 117 177t37 167h-126v53h193zM266 778q0 -14 -1 -34q-6 -103 -57.5 -200.5t-129.5 -163.5l-44 35q76 67 120 150.5t47 159.5h-130v53h195zM717 -96h-429 v367h60v-106h308v106h61v-367zM656 -44v158h-308v-158h308z" />
<glyph unicode="&#xaecf;" horiz-adv-x="809" d="M506 778q0 -2 -2 -28q-5 -85 -30 -170h184v266h60v-614h-60v294h-200q-2 -4 -3 -7q-42 -117 -125 -205l-45 33q81 89 117.5 196t36.5 181h-126v54h193zM266 778q0 -15 -1 -35q-4 -97 -51.5 -205t-135.5 -191l-44 33q81 76 123 171.5t44 172.5h-130v54h195zM499 148 l244 -205l-40 -44l-230 198q-14 -25 -34 -49q-79 -100 -187 -150l-34 44q89 40 163.5 130t74.5 180v14h61v-23q0 -47 -18 -95z" />
<glyph unicode="&#xaed0;" horiz-adv-x="809" d="M506 778q0 -2 -2 -28q-5 -82 -29 -162h183v258h60v-544h-60v232h-201l-2 -6q-42 -110 -125 -194l-45 33q80 84 117 184t37 173h-126v54h193zM266 778q0 -15 -1 -35q-6 -100 -56 -202.5t-130 -174.5l-44 35q73 63 119 154.5t47 168.5h-130v54h195zM361 219q0 -48 -16 -97 l125 -148q34 33 61 82q43 73 43 166v26h62v-31q0 -48 -14 -95l166 -175l-37 -36l-150 157q-30 -59 -66 -100.5t-71 -63.5l-142 164q-7 -11 -13 -22q-53 -90 -132 -138l-35 38q58 33 108 112t50 164v26h61v-29z" />
<glyph unicode="&#xaed1;" horiz-adv-x="809" d="M506 778q0 -2 -2 -28q-5 -81 -27 -162h181v258h60v-558h-60v246h-198q-2 -8 -5 -15q-42 -117 -125 -205l-45 33q81 89 117.5 196t36.5 181h-126v54h193zM266 778q0 -15 -1 -35q-4 -97 -51.5 -205t-135.5 -191l-44 33q81 76 123 171.5t44 172.5h-130v54h195zM655 78 q0 59 -42 96.5t-104 37.5q-63 0 -104 -36.5t-43 -97.5q0 -58 42 -96t105 -38q62 0 104 38t42 96zM717 78q0 -38 -16 -72.5t-43 -60.5q-28 -25 -67 -39.5t-82 -14.5t-82 14.5t-68 39.5q-26 26 -42 60.5t-16 72.5t16 73t42 60q29 26 68 40.5t82 14.5t82 -14.5t67 -40.5 q27 -25 43 -60t16 -73z" />
<glyph unicode="&#xaed8;" horiz-adv-x="855" d="M460 720q0 -29 -2 -58q-6 -92 -26 -175h116v339h57v-843h-57v450h-129q-43 -150 -129 -267l-49 30q141 190 154 471h-110v53h175zM242 720q-6 -314 -172 -515l-47 29q148 185 153 433h-113v53h179zM696 -80v926h59v-926h-59z" />
<glyph unicode="&#xaed9;" horiz-adv-x="855" d="M460 777q-4 -97 -28 -190h115v239h57v-517h-57v225h-130l-2 -8q-41 -123 -127 -210l-43 33q69 76 106.5 178t39.5 196h-107v54h176zM242 777q-6 -150 -55.5 -253t-120.5 -172l-43 32q62 60 104.5 147.5t49.5 191.5h-114v54h179zM696 291v555h59v-555h-59zM750 -106h-62 v278h-423v54h485v-332z" />
<glyph unicode="&#xaedc;" horiz-adv-x="855" d="M460 766q-5 -98 -29 -191h116v251h57v-631h-57v327h-131l-8 -27q-47 -131 -124 -212l-45 32q68 76 109 189.5t43 208.5h-107v53h176zM242 766q-4 -151 -54 -260.5t-121 -180.5l-44 33q62 59 105.5 154t47.5 201h-113v53h179zM696 172v674h59v-674h-59zM767 -86h-471v288 h61v-234h410v-54z" />
<glyph unicode="&#xaee8;" horiz-adv-x="855" d="M460 777q-4 -93 -26 -179h113v228h57v-511h-57v230h-128q-2 -7 -4 -13q-41 -118 -127 -205l-43 34q67 72 105.5 171t40.5 191h-107v54h176zM242 777q-6 -148 -54.5 -246t-119.5 -169l-45 34q62 59 104.5 142t49.5 185h-114v54h179zM696 299v547h59v-547h-59zM746 -91 h-439v325h439v-325zM686 -39v221h-318v-221h318z" />
<glyph unicode="&#xaeeb;" horiz-adv-x="855" d="M460 777q-5 -100 -29 -192h116v241h57v-529h-57v235h-131l-8 -25q-47 -128 -124 -209l-45 32q68 76 109 186.5t43 206.5h-107v54h176zM242 777q-4 -152 -54 -259t-121 -178l-44 33q62 60 105.5 152t47.5 198h-113v54h179zM696 234v612h59v-612h-59zM518 136l245 -193 l-39 -44l-234 184q-14 -21 -31 -42q-79 -92 -188 -143l-33 44q89 40 163 123t74 169v9h62v-17q0 -45 -19 -90z" />
<glyph unicode="&#xaeed;" horiz-adv-x="855" d="M460 777q-5 -100 -29 -192h116v241h57v-513h-57v219h-131l-8 -25q-47 -128 -124 -209l-45 32q68 76 109 186.5t43 206.5h-107v54h176zM242 777q-4 -152 -54 -259t-121 -178l-44 33q62 60 105.5 152t47.5 198h-113v54h179zM696 270v576h59v-576h-59zM669 73q0 56 -42.5 93 t-106.5 37q-62 0 -104 -37t-42 -93t42 -93t104 -37q64 0 106.5 37t42.5 93zM730 73q0 -37 -16 -71t-43 -60q-29 -25 -68 -38.5t-83 -13.5q-43 0 -82 13.5t-67 38.5q-28 26 -43.5 60t-15.5 71t15.5 71.5t43.5 59.5t67 38.5t82 13.5q44 0 83 -13.5t68 -38.5q27 -25 43 -59.5 t16 -71.5z" />
<glyph unicode="&#xaef4;" horiz-adv-x="809" d="M511 720l-2 -25q-4 -61 -12 -116h162v267h59v-926h-59v389h-175v52h175v165h-172q-43 -213 -154 -354l-47 31q141 188 159 464h-130v53h196zM269 720q0 -6 -2 -34q-17 -279 -187 -481l-46 30q151 182 172 432h-135v53h198z" />
<glyph unicode="&#xaef8;" horiz-adv-x="809" d="M506 766q0 -2 -2 -27q-3 -47 -14 -97h169v204h59v-674h-59v221h-175v53h175v143h-181q-10 -39 -24 -79q-43 -119 -128 -216l-45 32q70 83 113 191t44 196h-125v53h193zM266 766q0 -9 -1 -34q-3 -90 -49 -202t-138 -204l-44 33q84 87 124.5 178.5t42.5 175.5h-130v53h195z M734 -86h-461v288h62v-234h399v-54z" />
<glyph unicode="&#xaefc;" horiz-adv-x="809" d="M506 788q0 -1 -2 -27q-3 -36 -9 -70h164v155h59v-492h-59v109h-175v54h175v119h-178q-11 -42 -28 -83q-43 -102 -123 -181l-45 34q75 72 114 167t40 163h-126v52h193zM266 788q0 -13 -1 -34q-7 -96 -60 -192t-129 -157l-42 36q77 64 120 144.5t48 150.5h-131v52h195z M738 -96h-452v226h367v109h-371v53h433v-214h-368v-121h391v-53z" />
<glyph unicode="&#xaf07;" horiz-adv-x="809" d="M506 778q0 -2 -2 -28q-3 -43 -10 -86h165v182h59v-614h-59v192h-175v54h175v133h-177q-11 -46 -27 -92q-42 -117 -125 -205l-45 33q81 89 117.5 196t36.5 181h-126v54h193zM266 778q0 -15 -1 -35q-4 -97 -51.5 -205t-135.5 -191l-44 33q81 76 123 171.5t44 172.5h-130v54 h195zM499 148l244 -205l-40 -44l-230 198q-14 -25 -34 -49q-79 -100 -187 -150l-34 44q89 40 163.5 130t74.5 180v14h61v-23q0 -47 -18 -95z" />
<glyph unicode="&#xaf08;" horiz-adv-x="809" d="M506 778q0 -2 -2 -28q-2 -34 -7 -67h162v163h59v-544h-59v146h-175v53h175v128h-173q-12 -51 -31 -101q-42 -110 -125 -194l-45 33q80 84 117 184t37 173h-126v54h193zM266 778q0 -15 -1 -35q-6 -100 -56 -202.5t-130 -174.5l-44 35q73 63 119 154.5t47 168.5h-130v54 h195zM361 219q0 -48 -16 -97l125 -148q34 33 61 82q43 73 43 166v26h62v-31q0 -48 -14 -95l166 -175l-37 -36l-150 157q-30 -59 -66 -100.5t-71 -63.5l-142 164q-7 -11 -13 -22q-53 -90 -132 -138l-35 38q58 33 108 112t50 164v26h61v-29z" />
<glyph unicode="&#xaf0d;" horiz-adv-x="809" d="M506 788q0 -1 -2 -27q-3 -36 -9 -70h164v155h59v-492h-59v109h-175v54h175v119h-178q-11 -42 -28 -83q-43 -102 -123 -181l-45 34q75 72 114 167t40 163h-126v52h193zM266 788q0 -13 -1 -34q-7 -96 -60 -192t-129 -157l-42 36q77 64 120 144.5t48 150.5h-131v52h195z M724 -96h-438v388h429v-53h-368v-112h356v-51h-356v-119h377v-53z" />
<glyph unicode="&#xaf10;" horiz-adv-x="855" d="M460 720q0 -29 -2 -58q-3 -39 -7 -76h97v240h57v-843h-57v333h-122v54h122v162h-107q-38 -212 -151 -366l-49 30q141 190 154 471h-110v53h175zM242 720q-6 -314 -172 -515l-47 29q148 185 153 433h-113v53h179zM696 -80v926h59v-926h-59z" />
<glyph unicode="&#xaf2c;" d="M354 551q0 -147 -47 -278h-59q46 129 46 287v131h-192v53h252v-193zM667 551q0 -147 -47 -278h-60q46 129 46 287v131h-198v53h259v-193zM791 42h-756v55h379v333h61v-333h316v-55z" />
<glyph unicode="&#xaf2d;" d="M656 723q0 -125 -41 -252h-58q39 125 39 265v19h-188v53h248v-85zM354 723q0 -124 -41 -252h-59q40 126 40 265v19h-181v53h241v-85zM410 371v202h62v-202h319v-54h-756v54h375zM631 -105h-62v256h-400v53h462v-309z" />
<glyph unicode="&#xaf30;" d="M656 726q0 -140 -41 -274h-58q39 133 39 288v15h-188v53h248v-82zM354 726q0 -139 -41 -274h-59q40 134 40 288v15h-181v53h241v-82zM35 339h375v234h62v-234h319v-53h-756v53zM666 -86h-476v272h62v-218h414v-54z" />
<glyph unicode="&#xaf32;" d="M656 724q0 -117 -41 -236h-58q39 117 39 249v19h-188v52h248v-84zM354 724q0 -116 -41 -236h-59q40 118 40 249v19h-181v52h241v-84zM410 397v196h62v-196h319v-54h-756v54h375zM416 -86h-276v339h60v-285h216v-54zM687 275v-52h-102q-48 0 -109 18l10 47q66 -13 109 -13 h92zM772 107h-91q19 -15 32 -37q13 -25 13 -51q0 -27 -10 -51.5t-29 -41.5q-19 -18 -45.5 -27.5t-55.5 -9.5q-30 0 -56 9.5t-46 27.5q-18 17 -28.5 41.5t-10.5 51.5q0 26 15 51q11 22 30 37h-91v52h373v-52zM668 20q0 34 -23 56.5t-59 22.5t-59 -22.5t-23 -56.5t23 -56.5 t59 -22.5t59 22.5t23 56.5z" />
<glyph unicode="&#xaf34;" d="M656 736q0 -116 -41 -231h-58q39 113 39 243v19h-188v52h248v-83zM354 736q0 -115 -41 -231h-59q40 114 40 243v19h-181v52h241v-83zM410 432v172h62v-172h319v-54h-756v54h375zM655 -96h-467v218h386v112h-392v52h453v-214h-386v-116h406v-52z" />
<glyph unicode="&#xaf3c;" d="M656 723q0 -125 -41 -252h-58q39 125 39 265v19h-188v53h248v-85zM354 723q0 -124 -41 -252h-59q40 126 40 265v19h-181v53h241v-85zM410 380v193h62v-193h319v-53h-756v53h375zM575 -39v204h-326v-204h326zM188 217h448v-308h-448v308z" />
<glyph unicode="&#xaf3d;" d="M656 724q0 -117 -41 -236h-58q39 117 39 249v19h-188v52h248v-84zM354 724q0 -116 -41 -236h-59q40 118 40 249v19h-181v52h241v-84zM410 397v196h62v-196h319v-54h-756v54h375zM636 -96h-448v365h62v-112h324v112h62v-365zM574 -44v150h-324v-150h324z" />
<glyph unicode="&#xaf3f;" d="M656 723q0 -125 -41 -252h-58q39 125 39 265v19h-188v53h248v-85zM354 723q0 -124 -41 -252h-59q40 126 40 265v19h-181v53h241v-85zM410 359v214h62v-214h319v-53h-756v53h375zM426 127l265 -185l-36 -47l-258 180q-16 -22 -37 -45q-82 -92 -196 -134l-32 45 q92 33 171 115t79 159v10h61v-18q0 -39 -17 -80z" />
<glyph unicode="&#xaf41;" d="M656 723q0 -125 -41 -252h-58q39 125 39 265v19h-188v53h248v-85zM354 723q0 -124 -41 -252h-59q40 126 40 265v19h-181v53h241v-85zM410 383v195h62v-195h319v-54h-756v54h375zM572 73q0 55 -46 92t-113 37t-112.5 -37t-45.5 -92t45.5 -92t112.5 -37t113 37t46 92z M634 73q0 -37 -16.5 -71t-46.5 -59q-29 -25 -70.5 -38.5t-87.5 -13.5q-45 0 -86.5 13.5t-71.5 38.5t-45.5 59t-15.5 71t15.5 71.5t45.5 58.5q30 25 71.5 38.5t86.5 13.5q46 0 87.5 -13.5t70.5 -38.5q30 -24 46.5 -58.5t16.5 -71.5z" />
<glyph unicode="&#xaf42;" d="M656 723q0 -125 -41 -252h-58q39 125 39 265v19h-188v53h248v-85zM354 723q0 -124 -41 -252h-59q40 126 40 265v19h-181v53h241v-85zM410 380v193h62v-193h319v-53h-756v53h375zM597 165q-36 -58 -102 -111l218 -117l-31 -46l-235 128l-20 -14q-119 -75 -252 -111l-30 43 q89 19 207 86.5t173 141.5h-326v52h425q-1 -10 -27 -52z" />
<glyph unicode="&#xaf43;" d="M656 736q0 -116 -41 -231h-58q39 113 39 243v19h-188v52h248v-83zM354 736q0 -115 -41 -231h-59q40 114 40 243v19h-181v52h241v-83zM410 432v172h62v-172h319v-54h-756v54h375zM563 238h-194q-47 0 -119 25l12 44q74 -18 117 -18h184v-51zM620 147q-48 -72 -124 -126 l214 -79l-26 -44l-242 90q-107 -59 -271 -91l-31 46q138 28 234 75t144 94h-329v51h440q-1 -4 -9 -16z" />
<glyph unicode="&#xaf48;" horiz-adv-x="860" d="M522 654q0 -150 -39 -296h-60q38 144 38 309v12h-139v54h200v-79zM268 654q0 -150 -39 -296h-60q38 143 38 309v12h-147v54h208v-79zM839 419h-145v-499h-60v926h60v-374h145v-53zM305 201v274h62v-273q28 1 62 2q89 3 155 18v-54q-64 -14 -150.5 -17t-144.5 -3h-250v53 h266z" />
<glyph unicode="&#xaf49;" horiz-adv-x="860" d="M522 703q0 -119 -39 -241h-59q37 120 37 253v19h-139v53h200v-84zM268 703q0 -119 -39 -241h-59q37 120 37 253v19h-147v53h208v-84zM839 547h-145v-302h-60v601h60v-246h145v-53zM305 345v212h62v-210q28 1 62 2q89 3 155 17v-53q-64 -15 -150.5 -18t-144.5 -3h-250v53 h266zM693 -106h-61v236h-406v54h467v-290z" />
<glyph unicode="&#xaf50;" horiz-adv-x="860" d="M522 718q0 -109 -39 -220h-59q37 109 37 233v15h-139v51h200v-79zM268 718q0 -109 -39 -220h-59q37 109 37 233v15h-147v51h208v-79zM839 568h-145v-247h-60v525h60v-225h145v-53zM305 404v179h62v-178q28 1 62 2q89 3 155 17v-51q-64 -14 -150.5 -17t-144.5 -3h-250v51 h266zM715 -96h-477v208h394v99h-400v52h461v-200h-392v-108h414v-51z" />
<glyph unicode="&#xaf5c;" horiz-adv-x="860" d="M522 709q0 -116 -39 -240h-59q37 122 37 252v13h-139v53h200v-78zM268 709q0 -116 -39 -240h-59q37 122 37 252v13h-147v53h208v-78zM839 547h-145v-291h-60v590h60v-246h145v-53zM305 361v196h62v-195q28 1 62 2q89 3 155 17v-53q-64 -14 -150.5 -17t-144.5 -3h-250v53 h266zM338 191q0 -39 -15 -82l123 -138q33 31 61 77q42 69 42 147v12h61v-16q0 -37 -11 -75l166 -166l-39 -39l-148 152q-49 -100 -138 -160l-141 155q-5 -10 -11 -21q-51 -83 -128 -129l-36 40q55 31 103.5 102t48.5 145v12h62v-16z" />
<glyph unicode="&#xaf5d;" horiz-adv-x="860" d="M522 703q0 -121 -39 -239h-59q37 116 37 251v19h-139v53h200v-84zM268 703q0 -121 -39 -239h-59q37 116 37 251v19h-147v53h208v-84zM839 547h-145v-282h-60v581h60v-246h145v-53zM305 361v196h62v-195q28 1 62 2q89 3 155 17v-53q-64 -14 -150.5 -17t-144.5 -3h-250v53 h266zM633 63q0 52 -42.5 85.5t-106.5 33.5q-62 0 -104 -33.5t-42 -85.5t42 -85.5t104 -33.5q64 0 106.5 33.5t42.5 85.5zM694 63q0 -35 -15 -67t-44 -56t-68 -36.5t-83 -12.5q-43 0 -81.5 12.5t-67.5 36.5t-44 56t-15 67t15 67t44 56q29 23 67.5 36t81.5 13q44 0 83 -13 t68 -36q29 -24 44 -56t15 -67z" />
<glyph unicode="&#xaf64;" horiz-adv-x="877" d="M242 654q0 -148 -41 -296h-59q41 147 41 308v13h-123v54h182v-79zM466 654q0 -147 -41 -296h-58q41 147 41 308v13h-113v54h171v-79zM265 201v258h60v-258q33 1 71 3q57 2 114 15v-54q-58 -12 -114.5 -14.5t-106.5 -2.5h-250v53h226zM617 515h101v331h58v-926h-58v541 h-101v-478h-57v843h57v-311z" />
<glyph unicode="&#xaf65;" horiz-adv-x="877" d="M242 703q0 -130 -41 -256h-58q40 125 40 267v20h-123v53h182v-84zM466 703q0 -129 -41 -256h-57q40 125 40 267v20h-113v53h171v-84zM267 337v219h60v-219q32 1 69 3q57 2 114 15v-54q-58 -12 -114.5 -14.5t-106.5 -2.5h-250v53h228zM616 600h102v246h58v-607h-58v307 h-102v-290h-56v570h56v-226zM771 -106h-61v231h-437v54h498v-285z" />
<glyph unicode="&#xaf79;" horiz-adv-x="877" d="M242 703q0 -129 -41 -251h-58q40 121 40 262v20h-123v53h182v-84zM466 703q0 -128 -41 -251h-57q40 121 40 262v20h-113v53h171v-84zM267 344v212h60v-212q32 1 69 4q57 2 114 14v-53q-58 -13 -114.5 -15.5t-106.5 -2.5h-250v53h228zM616 600h102v246h58v-607h-58v307 h-102v-269h-56v549h56v-226zM682 58q0 49 -42.5 81t-105.5 32t-105 -32t-42 -81t42 -81.5t105 -32.5t105.5 32.5t42.5 81.5zM743 58q0 -34 -15 -65.5t-44 -53.5q-29 -24 -67.5 -36t-82.5 -12t-82.5 12t-67.5 36q-29 22 -43.5 53.5t-14.5 65.5t14.5 65t43.5 54t67.5 35.5 t82.5 12.5t82.5 -12.5t67.5 -35.5t44 -54t15 -65z" />
<glyph unicode="&#xaf80;" horiz-adv-x="821" d="M531 654q0 -150 -38 -296h-61q38 144 38 309v12h-141v54h202v-79zM275 654q0 -150 -38 -296h-61q38 143 38 309v12h-148v54h209v-79zM313 201v274h62v-273q28 1 64 2q88 3 155 18v-54q-64 -14 -150.5 -17t-144.5 -3h-260v53h274zM721 846v-926h-61v926h61z" />
<glyph unicode="&#xaf84;" horiz-adv-x="821" d="M531 693q0 -127 -38 -257h-60q37 128 37 269v18h-141v54h202v-84zM275 693q0 -127 -38 -257h-60q37 128 37 269v18h-148v54h209v-84zM313 320v209h62v-208q28 1 64 2q88 3 155 17v-53q-64 -14 -150.5 -17t-144.5 -3h-260v53h274zM721 846v-702h-61v702h61zM735 -86h-470 v257h61v-201h409v-56z" />
<glyph unicode="&#xaf88;" horiz-adv-x="821" d="M531 718q0 -109 -38 -220h-60q37 109 37 233v15h-141v51h202v-79zM275 718q0 -109 -38 -220h-60q37 109 37 233v15h-148v51h209v-79zM313 404v179h62v-178q29 1 65 2q88 3 155 17v-51q-64 -14 -150.5 -17t-144.5 -3h-261v51h274zM721 846v-526h-61v526h61zM738 -96h-477 v208h394v99h-399v52h461v-200h-392v-108h413v-51z" />
<glyph unicode="&#xaf90;" horiz-adv-x="821" d="M531 703q0 -121 -38 -239h-60q37 116 37 251v19h-141v53h202v-84zM275 703q0 -121 -38 -239h-60q37 116 37 251v19h-148v53h209v-84zM314 357v200h62v-199q28 1 63 2q88 3 155 17v-53q-64 -14 -150.5 -17t-144.5 -3h-260v53h275zM721 846v-584h-61v584h61zM717 -91h-456 v292h456v-292zM656 -39v188h-334v-188h334z" />
<glyph unicode="&#xaf91;" horiz-adv-x="821" d="M531 707q0 -121 -38 -232h-60q37 109 37 244v16h-141v52h202v-80zM275 707q0 -121 -38 -232h-60q37 109 37 244v16h-148v52h209v-80zM313 369v194h62v-193q28 1 64 2q88 3 155 18v-53q-64 -14 -150.5 -17t-144.5 -3h-260v52h274zM721 846v-550h-61v550h61zM717 -96h-456 v337h61v-93h334v93h61v-337zM656 -44v142h-334v-142h334z" />
<glyph unicode="&#xaf95;" horiz-adv-x="821" d="M531 703q0 -121 -38 -239h-60q37 116 37 251v19h-141v53h202v-84zM275 703q0 -121 -38 -239h-60q37 116 37 251v19h-148v53h209v-84zM313 361v196h62v-195q28 1 64 2q88 3 155 17v-53q-64 -14 -150.5 -17t-144.5 -3h-260v53h274zM721 846v-581h-61v581h61zM652 63 q0 52 -42.5 85.5t-105.5 33.5t-105 -33.5t-42 -85.5t42 -85.5t105 -33.5t105.5 33.5t42.5 85.5zM714 63q0 -35 -15.5 -67t-44.5 -56q-28 -24 -67 -36.5t-83 -12.5q-43 0 -82 12.5t-68 36.5q-28 24 -43 56t-15 67t15 67t43 56q29 23 68 36t82 13q44 0 83 -13t67 -36 q29 -24 44.5 -56t15.5 -67z" />
<glyph unicode="&#xaf9c;" d="M678 558q0 -146 -32 -275h-59q30 123 30 284v124h-222v53h283v-186zM342 586q0 -145 -61 -303h-62q62 154 63 306v102h-173v53h233v-158zM791 42h-756v54h304v275h57v-275h99v275h57v-275h239v-54z" />
<glyph unicode="&#xafb8;" d="M663 706q0 -132 -41 -285h-60q40 151 40 298v13h-181v53h242v-79zM368 706q0 -132 -41 -285h-61q41 151 41 298v13h-188v53h249v-79zM791 298h-359v-378h-61v378h-336v55h756v-55z" />
<glyph unicode="&#xafb9;" d="M663 726q0 -138 -37 -282h165v-54h-348v-174h188v-321h-62v268h-400v53h213v174h-347v54h235q37 143 37 296v15h-188v53h249v-82q0 -138 -37 -282h235q36 143 36 296v15h-181v53h242v-82z" />
<glyph unicode="&#xafbc;" d="M663 726q0 -166 -40 -322h168v-54h-329v-235h-62v235h-365v54h232q40 154 40 336v15h-188v53h249v-82q0 -166 -40 -322h235q39 154 39 336v15h-181v53h242v-82zM664 -86h-475v301h62v-247h413v-54z" />
<glyph unicode="&#xafc0;" d="M663 738q0 -115 -34 -246h162v-52h-348v-133h192v-225h-386v-126h406v-52h-467v229h386v121h-392v53h200v133h-347v52h239q33 131 33 258v17h-188v52h249v-81q0 -115 -34 -246h235q33 131 33 258v17h-181v52h242v-81z" />
<glyph unicode="&#xafc7;" d="M663 738q0 -115 -34 -246h162v-52h-348v-150h-60v-204h-190v-132h230v-50h-288v230h191v122h-195v51h251v133h-347v52h239q33 131 33 258v17h-188v52h249v-81q0 -115 -34 -246h235q33 131 33 258v17h-181v52h242v-81zM683 312v-49h-103q-56 0 -106 18l10 44 q66 -13 106 -13h93zM745 140h-92q3 -2 7 -5q23 -16 38.5 -46t15.5 -58q0 -29 -10 -57t-28 -46q-18 -19 -44 -29t-52 -10q-27 0 -53 10t-44 29q-18 18 -28 46t-10 57q0 28 15.5 58t38.5 46q4 3 7 5h-82v49h321v-49zM656 32q0 39 -21.5 66t-54.5 27q-34 0 -55.5 -27t-21.5 -66 t21.5 -66t55.5 -27q33 0 54.5 27t21.5 66z" />
<glyph unicode="&#xafc8;" d="M663 726q0 -127 -40 -279h168v-54h-348v-161h193v-323h-448v323h194v161h-347v54h232q40 150 40 293v15h-188v53h249v-82q0 -127 -40 -279h235q39 150 39 293v15h-181v53h242v-82zM575 -39v219h-326v-219h326z" />
<glyph unicode="&#xafc9;" d="M663 726q0 -127 -40 -278h168v-53h-348v-142h-61v142h-347v53h232q40 149 40 292v16h-188v52h249v-82q0 -127 -40 -278h235q39 149 39 292v16h-181v52h242v-82zM636 -96h-448v375h62v-117h324v117h62v-375zM574 -44v155h-324v-155h324z" />
<glyph unicode="&#xafcb;" d="M663 726q0 -145 -41 -297h169v-54h-348v-117h-61v117h-347v54h231q41 150 41 311v15h-188v53h249v-82q0 -145 -41 -297h235q40 150 40 311v15h-181v53h242v-82zM429 130l262 -189l-38 -46l-252 182q-17 -24 -42 -50q-84 -87 -195 -131l-33 45q95 38 173 115t78 157v12h61 v-21q0 -37 -14 -74z" />
<glyph unicode="&#xafcd;" d="M663 726q0 -134 -39 -279h167v-54h-348v-125q30 -3 58 -13q41 -14 70 -40q29 -25 46 -60.5t17 -74.5t-17 -74t-46 -61q-29 -25 -70.5 -39.5t-87.5 -14.5q-45 0 -86.5 14.5t-71.5 39.5q-29 26 -45 61t-16 74t16 74.5t45 60.5q30 26 72 40q26 10 55 13v125h-347v54h234 q38 143 38 293v15h-188v53h249v-82q0 -134 -39 -279h235q38 143 38 293v15h-181v53h242v-82zM571 80q0 28 -11.5 54t-34.5 45q-21 18 -50.5 27.5t-61.5 9.5t-61 -9.5t-51 -27.5q-22 -19 -33.5 -45t-11.5 -54q0 -27 11.5 -53.5t33.5 -44.5t51 -28t61 -10t61.5 10t50.5 28 q23 18 34.5 44.5t11.5 53.5z" />
<glyph unicode="&#xafce;" d="M663 726q0 -127 -40 -279h168v-54h-348v-160h179q-2 -9 -26 -51q-37 -65 -103 -122l220 -124l-31 -44l-236 132q-10 -7 -21 -14q-118 -80 -251 -116l-29 44q88 22 207 91t172 152h-325v52h183v160h-347v54h232q40 150 40 293v15h-188v53h249v-82q0 -127 -40 -279h235 q39 150 39 293v15h-181v53h242v-82z" />
<glyph unicode="&#xafd4;" horiz-adv-x="821" d="M527 658q0 -156 -40 -289q62 5 111 15v-53q-63 -14 -149 -17q-65 -2 -114 -3v-376h-62v376h-234v53h140q41 139 41 305v43h-154v53h216v-107q0 -156 -42 -294h65q44 0 122 2q39 132 39 303v43h-131v53h192v-107zM660 -80v220h-192v53h192v653h61v-926h-61z" />
<glyph unicode="&#xafdc;" horiz-adv-x="821" d="M527 717q0 -96 -30 -209q56 4 101 15v-52q-63 -14 -149 -17q-80 -3 -136 -3v-171h-61v171h-213v51h149q32 120 32 216v28h-154v51h216v-80q0 -96 -33 -215h56q47 0 131 3q30 113 30 213v28h-131v51h192v-80zM660 280v47h-214v50h214v469h61v-566h-61zM741 -96h-497v191 h414v82h-419v51h481v-183h-413v-90h434v-51z" />
<glyph unicode="&#xafe8;" horiz-adv-x="821" d="M527 708q0 -100 -35 -223q58 4 106 14v-53q-63 -14 -149 -18q-80 -3 -136 -3v-192h-61v192h-213v54h144q37 131 37 241v14h-154v53h216v-79q0 -99 -38 -229h61q46 0 126 3q35 123 35 238v14h-131v53h192v-79zM660 233v55h-214v52h214v506h61v-613h-61zM346 169 q0 -36 -12 -73l122 -127q30 25 59 63q46 62 46 141v12h62v-16q0 -33 -10 -66l165 -154l-38 -38l-148 141q-9 -19 -21 -35q-54 -77 -121 -114l-140 141q-5 -9 -11 -18q-48 -72 -131 -118l-38 39q59 32 107 91t48 135v12h61v-16z" />
<glyph unicode="&#xafe9;" horiz-adv-x="821" d="M527 707q0 -97 -31 -212q56 4 102 14v-53q-63 -14 -149 -17q-80 -3 -136 -3v-209h-61v209h-213v53h148q33 121 33 219v26h-154v53h216v-80q0 -97 -34 -218h57q47 0 130 3q31 115 31 216v26h-131v53h192v-80zM660 227v71h-214v53h214v495h61v-619h-61zM657 51 q0 46 -42.5 76t-105.5 30t-105 -30t-42 -76t42 -76.5t105 -30.5t105.5 30.5t42.5 76.5zM719 51q0 -33 -15.5 -63t-44.5 -52q-28 -22 -67 -33.5t-83 -11.5q-43 0 -82 11.5t-68 33.5q-28 22 -43 52t-15 63q0 32 15 62t43 52q29 22 68 33.5t82 11.5q44 0 83 -11.5t67 -33.5 q29 -22 44.5 -52t15.5 -62z" />
<glyph unicode="&#xaff0;" horiz-adv-x="877" d="M463 659q0 -147 -41 -282q43 4 86 14v-54q-58 -12 -115 -14q-49 -3 -94 -3v-375h-60v375h-200v53h102q42 141 42 297v42h-123v53h183v-106q0 -145 -43 -286h89q35 0 75 1q39 135 39 296v42h-107v53h167v-106zM387 196h175v630h58v-881h-58v198h-175v53zM719 -80v926h58 v-926h-58z" />
<glyph unicode="&#xaff1;" horiz-adv-x="877" d="M463 704q0 -101 -34 -222q39 4 79 12v-53q-58 -13 -115 -15q-47 -3 -89 -3v-207h-61v207h-204v54h108q36 126 36 238v19h-123v53h183v-83q0 -101 -37 -227h83q38 0 81 2q33 120 33 236v19h-107v53h167v-83zM391 344h171v482h58v-599h-58v65h-171v52zM719 216v630h58v-630 h-58zM773 -106h-61v216h-465v53h526v-269z" />
<glyph unicode="&#xaff4;" horiz-adv-x="877" d="M463 700q0 -107 -38 -237q41 3 83 13v-54q-58 -12 -115 -14q-47 -3 -89 -3v-181h-61v181h-204v53h105q39 137 39 254v11h-123v54h183v-77q0 -105 -40 -242h86q36 0 77 1q37 131 37 253v11h-107v54h167v-77zM391 302h171v524h58v-695h-58v118h-171v53zM719 109v737h58 v-737h-58zM777 -86h-511v248h63v-194h448v-54z" />
<glyph unicode="&#xaff8;" horiz-adv-x="877" d="M463 714q0 -93 -36 -200q40 5 81 13v-51q-58 -13 -115 -15q-47 -3 -89 -3v-174h-61v174h-204v51h106q38 112 38 215v22h-123v51h183v-83q0 -93 -39 -205h85q37 0 79 1q35 110 35 214v22h-107v51h167v-83zM391 390h171v436h58v-532h-58v45h-171v51zM719 284v562h58v-562 h-58zM795 -96h-519v191h436v82h-441v51h502v-183h-433v-90h455v-51z" />
<glyph unicode="&#xb000;" horiz-adv-x="877" d="M463 704q0 -109 -37 -218q41 3 82 12v-52q-58 -12 -115 -14q-47 -4 -89 -4v-190h-61v190h-204v53h105q39 114 39 234v20h-123v52h183v-83q0 -110 -40 -223h86q36 0 77 1q37 111 37 226v27h-107v52h167v-83zM391 353h171v473h58v-573h-58v48h-171v52zM719 238v608h58v-608 h-58zM773 -91h-505v270h505v-270zM713 -40v167h-384v-167h384z" />
<glyph unicode="&#xb001;" horiz-adv-x="877" d="M463 704q0 -104 -36 -211q40 3 81 12v-52q-58 -12 -115 -14q-47 -3 -89 -3v-183h-61v183h-204v52h106q38 112 38 227v20h-123v52h183v-83q0 -104 -39 -216h85q37 0 79 1q35 110 35 219v27h-107v52h167v-83zM391 363h171v463h58v-569h-58v55h-171v51zM719 253v593h58v-593 h-58zM773 -96h-497v291h61v-76h376v76h60v-291zM713 -44v113h-376v-113h376z" />
<glyph unicode="&#xb004;" horiz-adv-x="877" d="M463 704q0 -109 -37 -218q41 3 82 12v-52q-58 -12 -115 -14q-47 -4 -89 -4v-190h-61v190h-204v53h105q39 114 39 234v20h-123v52h183v-83q0 -110 -40 -223h86q36 0 77 1q37 111 37 226v27h-107v52h167v-83zM391 353h171v473h58v-573h-58v48h-171v52zM719 238v608h58v-608 h-58zM370 169q0 -36 -13 -73l122 -127q31 25 60 63q46 62 46 141v12h61v-16q0 -33 -9 -66l165 -155l-38 -37l-148 141q-10 -19 -21 -35q-53 -76 -122 -114l-139 141q-5 -9 -11 -18q-49 -72 -132 -118l-37 39q59 32 106.5 91t47.5 135v12h62v-16z" />
<glyph unicode="&#xb00c;" horiz-adv-x="821" d="M527 658q0 -161 -41 -295q62 5 112 15v-53q-63 -14 -149 -17q-66 -2 -115 -3v-370h-62v370h-233v53h139q42 139 42 311v43h-154v53h216v-107q0 -161 -43 -300h66q44 0 121 2q40 133 40 309v43h-131v53h192v-107zM660 -80v926h61v-926h-61z" />
<glyph unicode="&#xb010;" horiz-adv-x="821" d="M527 697q0 -129 -39 -269q61 6 110 16v-53q-63 -15 -149 -18q-80 -3 -136 -3v-167h-61v167h-213v53h141q40 147 40 275v25h-154v54h216v-80q0 -127 -40 -274h63q45 0 122 2q39 140 39 273v25h-131v54h192v-80zM660 109v737h61v-737h-61zM735 -86h-490v228h62v-174h428 v-54z" />
<glyph unicode="&#xb014;" horiz-adv-x="821" d="M527 717q0 -105 -37 -230q60 4 108 14v-51q-63 -14 -149 -17q-80 -4 -136 -4v-139h-61v139h-213v52h143q38 132 38 237v28h-154v51h216v-80q0 -104 -39 -236h62q45 0 125 3q36 125 36 234v28h-131v51h192v-80zM660 290v556h61v-556h-61zM741 -96h-497v196h414v87h-419v51 h481v-187h-413v-96h434v-51z" />
<glyph unicode="&#xb01c;" horiz-adv-x="821" d="M527 707q0 -121 -38 -249q61 5 109 15v-53q-63 -14 -149 -17q-80 -3 -136 -3v-157h-61v157h-213v53h142q39 135 39 255v26h-154v53h216v-80q0 -119 -40 -254h63q45 0 124 3q37 127 37 252v26h-131v53h192v-80zM660 243v603h61v-603h-61zM720 -91h-484v280h484v-280z M659 -39v176h-363v-176h363z" />
<glyph unicode="&#xb01d;" horiz-adv-x="821" d="M527 707q0 -116 -37 -242q60 4 108 15v-53q-63 -14 -149 -17q-80 -3 -136 -3v-149h-61v149h-213v52h143q38 133 38 249v27h-154v52h216v-80q0 -115 -39 -248h62q45 0 125 3q36 126 36 246v27h-131v52h192v-80zM660 258v588h61v-588h-61zM720 -96h-476v301h60v-83h355v83 h61v-301zM659 -44v116h-355v-116h355z" />
<glyph unicode="&#xb028;" d="M663 706q0 -132 -41 -285h-60q40 151 40 298v13h-181v53h242v-79zM368 706q0 -132 -41 -285h-61q41 151 41 298v13h-188v53h249v-79zM791 298h-209v-378h-62v378h-216v-378h-61v378h-208v55h756v-55z" />
<glyph unicode="&#xb044;" d="M368 541q0 -147 -47 -278h-60q46 129 46 286v142h-198v53h259v-203zM673 541q0 -147 -47 -278h-60q46 129 46 286v142h-191v53h252v-203zM35 97h756v-55h-756v55z" />
<glyph unicode="&#xb045;" d="M663 723q0 -155 -37 -306h165v-54h-756v54h235q37 150 37 320v18h-188v53h249v-85q0 -155 -37 -306h235q36 150 36 320v18h-181v53h242v-85zM631 -105h-62v276h-400v54h462v-330z" />
<glyph unicode="&#xb048;" d="M663 726q0 -175 -40 -331h168v-55h-756v55h232q40 154 40 345v15h-188v53h249v-82q0 -175 -40 -331h235q39 154 39 345v15h-181v53h242v-82zM664 -86h-475v313h62v-259h413v-54z" />
<glyph unicode="&#xb04a;" d="M663 726q0 -149 -41 -299h169v-53h-756v53h231q41 148 41 313v16h-188v52h249v-82q0 -149 -41 -299h235q40 148 40 313v16h-181v52h242v-82zM416 -86h-276v350h60v-296h216v-54zM687 293v-52h-102q-48 0 -109 18l10 48q66 -14 109 -14h92zM772 124h-95q21 -18 35 -43 q14 -26 14 -54t-10 -54.5t-30 -44.5q-18 -19 -45 -29t-55 -10q-29 0 -55.5 10t-45.5 29q-19 18 -29.5 44.5t-10.5 54.5t15 54q13 25 35 43h-96v52h373v-52zM668 28q0 38 -23 62.5t-59 24.5t-59 -24.5t-23 -62.5t23 -62.5t59 -24.5t59 24.5t23 62.5z" />
<glyph unicode="&#xb04c;" d="M663 738q0 -123 -39 -265h167v-52h-756v52h234q38 141 38 277v17h-188v52h249v-81q0 -123 -39 -265h235q38 141 38 277v17h-181v52h242v-81zM655 -96h-467v229h386v121h-392v53h453v-225h-386v-126h406v-52z" />
<glyph unicode="&#xb04e;" d="M663 738q0 -123 -39 -265h167v-52h-756v52h234q38 141 38 277v17h-188v52h249v-81q0 -123 -39 -265h235q38 141 38 277v17h-181v52h242v-81zM689 -96h-247v402h247v-402zM398 -96h-263v230h194v121h-198v51h255v-220h-193v-132h205v-50zM633 -46v301h-134v-301h134z" />
<glyph unicode="&#xb053;" d="M663 738q0 -123 -39 -265h167v-52h-756v52h234q38 141 38 277v17h-188v52h249v-81q0 -123 -39 -265h235q38 141 38 277v17h-181v52h242v-81zM423 -46v-50h-288v230h191v122h-195v51h252v-221h-190v-132h230zM683 312v-49h-103q-56 0 -106 18l10 44q66 -13 106 -13h93z M745 140h-92q3 -2 7 -5q23 -16 38.5 -46t15.5 -58q0 -29 -10 -57t-28 -46q-18 -19 -44 -29t-52 -10q-27 0 -53 10t-44 29q-18 18 -28 46t-10 57q0 28 15.5 58t38.5 46q4 3 7 5h-82v49h321v-49zM656 32q0 39 -21.5 66t-54.5 27q-34 0 -55.5 -27t-21.5 -66t21.5 -66t55.5 -27 q33 0 54.5 27t21.5 66z" />
<glyph unicode="&#xb054;" d="M663 726q0 -143 -41 -294h169v-55h-756v55h231q41 150 41 308v15h-188v53h249v-82q0 -143 -41 -294h235q40 150 40 308v15h-181v53h242v-82zM575 -39v232h-326v-232h326zM188 245h448v-336h-448v336z" />
<glyph unicode="&#xb055;" d="M663 726q0 -149 -41 -299h169v-53h-756v53h231q41 148 41 313v16h-188v52h249v-82q0 -149 -41 -299h235q40 148 40 313v16h-181v52h242v-82zM636 -96h-448v385h62v-117h324v117h62v-385zM574 -44v165h-324v-165h324z" />
<glyph unicode="&#xb057;" d="M663 723q0 -162 -40 -320h168v-54h-756v54h232q40 155 40 334v18h-188v53h249v-85q0 -162 -40 -320h235q39 155 39 334v18h-181v53h242v-85zM426 138l265 -196l-36 -47l-257 189q-16 -25 -38 -50q-82 -94 -196 -138l-33 45q98 38 174.5 122t76.5 177v15h61v-24 q0 -47 -17 -93z" />
<glyph unicode="&#xb059;" d="M663 726q0 -153 -41 -306h169v-54h-756v54h231q41 151 41 320v15h-188v53h249v-82q0 -153 -41 -306h235q40 151 40 320v15h-181v53h242v-82zM571 80q0 28 -11.5 54t-34.5 45q-21 18 -50.5 27.5t-61.5 9.5t-61 -9.5t-51 -27.5q-22 -19 -33.5 -45t-11.5 -54 q0 -27 11.5 -53.5t33.5 -44.5t51 -28t61 -10t61.5 10t50.5 28q23 18 34.5 44.5t11.5 53.5zM634 80q0 -39 -17 -74t-46 -61q-29 -25 -70.5 -39.5t-87.5 -14.5q-45 0 -86.5 14.5t-71.5 39.5q-29 26 -45 61t-16 74t16 74.5t45 60.5q30 26 71.5 40.5t86.5 14.5q46 0 87.5 -14.5 t70.5 -40.5q29 -25 46 -60.5t17 -74.5z" />
<glyph unicode="&#xb05d;" d="M663 738q0 -123 -39 -265h167v-52h-756v52h234q38 141 38 277v17h-188v52h249v-81q0 -123 -39 -265h235q38 141 38 277v17h-181v52h242v-81zM188 307h446v-52h-387v-122h376v-50h-376v-128h395v-51h-454v403z" />
<glyph unicode="&#xb07c;" horiz-adv-x="809" d="M521 720l-2 -25q-22 -329 -176 -523l-47 31q141 188 160 464h-141v53h206zM269 720q0 -6 -2 -34q-17 -279 -187 -481l-46 30q151 182 172 432h-135v53h198zM718 -80h-61v926h61v-926z" />
<glyph unicode="&#xb07d;" horiz-adv-x="809" d="M516 778q0 -2 -2 -28q-7 -116 -49 -228t-125 -200l-45 33q81 89 118 192t37 177h-137v54h203zM266 778q0 -15 -1 -35q-4 -97 -51.5 -200.5t-135.5 -187.5l-44 34q81 75 123 166.5t44 168.5h-130v54h195zM657 295v551h61v-551h-61zM715 -106h-62v278h-412v54h474v-332z " />
<glyph unicode="&#xb080;" horiz-adv-x="809" d="M516 766q0 -2 -2 -27q-7 -110 -50 -229t-128 -216l-45 32q70 83 113 191t45 196h-136v53h203zM266 766q0 -9 -1 -34q-3 -90 -49 -202t-138 -204l-44 33q84 87 124.5 178.5t42.5 175.5h-130v53h195zM657 177v669h61v-669h-61zM734 -86h-461v288h62v-234h399v-54z" />
<glyph unicode="&#xb084;" horiz-adv-x="809" d="M516 788q0 -1 -2 -27q-8 -105 -51 -207.5t-123 -181.5l-45 34q76 72 115 167t40 163h-137v52h203zM266 788q0 -13 -1 -34q-7 -96 -60 -192t-129 -157l-42 36q77 64 120 144.5t48 150.5h-131v52h195zM657 354v492h61v-492h-61zM738 -96h-452v226h367v109h-371v53h433v-214 h-368v-121h391v-53z" />
<glyph unicode="&#xb08c;" horiz-adv-x="809" d="M516 778q0 -2 -2 -28q-7 -113 -49 -222.5t-125 -193.5l-45 33q80 84 117.5 184t37.5 173h-137v54h203zM266 778q0 -15 -1 -35q-6 -100 -56 -202.5t-130 -174.5l-44 35q73 63 119 154.5t47 168.5h-130v54h195zM657 307v539h61v-539h-61zM717 -91h-429v328h429v-328z M656 -39v224h-308v-224h308z" />
<glyph unicode="&#xb08d;" horiz-adv-x="809" d="M516 778q0 -1 -2 -27q-7 -113 -49 -215.5t-125 -186.5l-45 32q80 84 117.5 177t37.5 167h-137v53h203zM266 778q0 -14 -1 -34q-6 -103 -57.5 -200.5t-129.5 -163.5l-44 35q76 67 120 150.5t47 159.5h-130v53h195zM657 325v521h61v-521h-61zM717 -96h-429v367h60v-106h308 v106h61v-367zM656 -44v158h-308v-158h308z" />
<glyph unicode="&#xb08f;" horiz-adv-x="809" d="M516 778q0 -2 -2 -28q-7 -116 -49 -232t-125 -204l-45 33q81 89 118 196t37 181h-137v54h203zM266 778q0 -15 -1 -35q-4 -97 -51.5 -205t-135.5 -191l-44 33q81 76 123 171.5t44 172.5h-130v54h195zM657 236v610h61v-610h-61zM499 148l244 -205l-40 -44l-230 198 q-14 -25 -34 -49q-79 -100 -187 -150l-34 44q89 40 163.5 130t74.5 180v14h61v-23q0 -47 -18 -95z" />
<glyph unicode="&#xb091;" horiz-adv-x="809" d="M516 778q0 -2 -2 -28q-7 -116 -49 -232t-125 -204l-45 33q81 89 118 196t37 181h-137v54h203zM266 778q0 -15 -1 -35q-4 -97 -51.5 -205t-135.5 -191l-44 33q81 76 123 171.5t44 172.5h-130v54h195zM657 292v554h61v-554h-61zM655 78q0 59 -42 96.5t-104 37.5 q-63 0 -104 -36.5t-43 -97.5q0 -58 42 -96t105 -38q62 0 104 38t42 96zM717 78q0 -38 -16 -72.5t-43 -60.5q-28 -25 -67 -39.5t-82 -14.5t-82 14.5t-68 39.5q-26 26 -42 60.5t-16 72.5t16 73t42 60q29 26 68 40.5t82 14.5t82 -14.5t67 -40.5q27 -25 43 -60t16 -73z" />
<glyph unicode="&#xb098;" horiz-adv-x="828" d="M481 237h-407v499h62v-446h345v-53zM807 453h-151v-533h-61v926h61v-335h151v-58z" />
<glyph unicode="&#xb099;" horiz-adv-x="828" d="M481 361h-407v421h62v-367h345v-54zM803 545h-147v-254h-61v555h61v-241h147v-60zM656 -106h-61v278h-402v54h463v-332z" />
<glyph unicode="&#xb09a;" horiz-adv-x="828" d="M481 361h-407v421h62v-367h345v-54zM803 545h-147v-254h-61v555h61v-241h147v-60zM384 226v-332h-60v278h-185v54h245zM656 226v-332h-60v278h-162v54h222z" />
<glyph unicode="&#xb09c;" horiz-adv-x="828" d="M481 337h-407v439h62v-385h345v-54zM803 533h-147v-361h-61v674h61v-255h147v-58zM675 -86h-451v290h62v-236h389v-54z" />
<glyph unicode="&#xb09f;" horiz-adv-x="828" d="M481 376h-407v406h62v-353h345v-53zM803 555h-147v-253h-61v544h61v-231h147v-60zM666 -91h-428v328h418v-53h-357v-221h367v-54z" />
<glyph unicode="&#xb0a0;" horiz-adv-x="828" d="M481 417h-407v378h62v-325h345v-53zM803 570h-147v-216h-61v492h61v-218h147v-58zM680 -96h-442v226h357v109h-362v53h423v-214h-357v-121h381v-53z" />
<glyph unicode="&#xb0a1;" horiz-adv-x="828" d="M481 417h-407v378h62v-325h345v-53zM803 570h-147v-216h-61v492h61v-218h147v-58zM656 -96h-57v337h-163v52h220v-389zM437 -96h-292v224h176v113h-180v52h237v-214h-175v-123h234v-52z" />
<glyph unicode="&#xb0a2;" horiz-adv-x="828" d="M481 417h-407v378h62v-325h345v-53zM803 570h-147v-216h-61v492h61v-218h147v-58zM656 -96h-223v389h223v-389zM382 -96h-237v224h168v113h-172v52h229v-214h-168v-123h180v-52zM601 -44v285h-114v-285h114z" />
<glyph unicode="&#xb0a8;" horiz-adv-x="828" d="M481 376h-407v406h62v-353h345v-53zM803 555h-147v-253h-61v544h61v-231h147v-60zM656 -91h-418v328h418v-328zM596 -39v224h-298v-224h298z" />
<glyph unicode="&#xb0a9;" horiz-adv-x="828" d="M481 392h-407v393h62v-340h345v-53zM803 563h-147v-237h-61v520h61v-225h147v-58zM656 -96h-418v372h60v-106h298v106h60v-372zM596 -44v163h-298v-163h298z" />
<glyph unicode="&#xb0ab;" horiz-adv-x="828" d="M481 370h-407v412h62v-359h345v-53zM803 545h-147v-313h-61v614h61v-241h147v-60zM446 149l245 -206l-40 -44l-230 198q-14 -25 -34 -49q-79 -100 -187 -150l-34 44q89 40 163 130t74 180v14h62v-23q0 -47 -19 -94z" />
<glyph unicode="&#xb0ac;" horiz-adv-x="828" d="M481 376h-407v406h62v-353h345v-53zM803 555h-147v-253h-61v544h61v-231h147v-60zM312 219q0 -47 -16 -96l123 -148q32 32 59 81q41 74 41 166v26h62v-31q0 -48 -15 -95l164 -175l-40 -36l-143 158q-24 -51 -58.5 -95t-76.5 -70l-140 164q-5 -11 -11 -22 q-52 -91 -129 -138l-37 38q58 34 107 113t49 163v26h61v-29z" />
<glyph unicode="&#xb0ad;" horiz-adv-x="828" d="M481 370h-407v412h62v-359h345v-53zM803 554h-147v-264h-61v556h61v-232h147v-60zM599 78q0 59 -42 96.5t-102 37.5q-61 0 -103 -37.5t-42 -96.5q0 -58 42 -96t103 -38q60 0 102 38t42 96zM660 78q0 -38 -15 -72.5t-43 -60.5q-28 -25 -66 -39.5t-81 -14.5t-81.5 14.5 t-66.5 39.5q-27 26 -42.5 60.5t-15.5 72.5t15.5 73t42.5 60q28 26 66.5 40.5t81.5 14.5t81 -14.5t66 -40.5q28 -25 43 -60t15 -73z" />
<glyph unicode="&#xb0ae;" horiz-adv-x="828" d="M481 376h-407v406h62v-353h345v-53zM803 556h-147v-254h-61v544h61v-230h147v-60zM472 22q-130 -83 -266 -118l-28 45q95 26 200 82q110 60 181 154h-328v52h424q-1 -13 -26 -53q-43 -69 -102 -119l219 -117l-30 -46l-236 126z" />
<glyph unicode="&#xb0af;" horiz-adv-x="828" d="M481 417h-407v378h62v-325h345v-53zM803 570h-147v-216h-61v492h61v-218h147v-58zM583 293v-52h-174q-79 0 -134 28l16 45q69 -21 128 -21h164zM644 167q-31 -70 -120 -134l203 -90l-27 -43l-226 100q-133 -78 -271 -103l-29 44q83 16 182.5 58.5t182.5 115.5h-318v52 h423z" />
<glyph unicode="&#xb0b1;" horiz-adv-x="828" d="M481 417h-407v378h62v-325h345v-53zM803 570h-147v-216h-61v492h61v-218h147v-58zM666 -96h-428v388h418v-53h-357v-112h346v-51h-346v-119h367v-53z" />
<glyph unicode="&#xb0b3;" horiz-adv-x="828" d="M481 420h-407v375h62v-322h345v-53zM803 581h-147v-227h-61v492h61v-207h147v-58zM589 305v-54h-178q-79 0 -133 28l15 46q69 -20 128 -20h168zM700 127h-149q24 -19 41 -44q16 -26 16 -56t-12.5 -57.5t-36.5 -46.5q-23 -21 -56 -31.5t-70 -10.5q-36 0 -68.5 10.5 t-56.5 31.5q-22 19 -35 46.5t-13 57.5t16 56q16 25 40 44h-149v51h533v-51zM547 27q0 41 -32.5 67.5t-81.5 26.5q-48 0 -79.5 -26.5t-31.5 -67.5t31.5 -67.5t79.5 -26.5q49 0 81.5 26.5t32.5 67.5z" />
<glyph unicode="&#xb0b4;" horiz-adv-x="837" d="M394 237h-320v499h61v-446h259v-53zM541 499h136v347h59v-926h-59v525h-136v-462h-59v843h59v-327z" />
<glyph unicode="&#xb0b5;" horiz-adv-x="837" d="M389 350h-315v432h61v-379h254v-53zM536 610h141v236h59v-555h-59v265h-141v-249h-59v519h59v-216zM731 -106h-61v278h-413v54h474v-332z" />
<glyph unicode="&#xb0b8;" horiz-adv-x="837" d="M389 333h-315v443h61v-390h254v-53zM536 595h141v251h59v-674h-59v370h-141v-347h-59v631h59v-231zM749 -86h-461v288h61v-234h400v-54z" />
<glyph unicode="&#xb0bc;" horiz-adv-x="837" d="M389 413h-315v382h61v-329h254v-53zM536 636h141v210h59v-496h-59v233h-141v-218h-59v461h59v-190zM755 -96h-453v224h368v107h-372v53h433v-212h-367v-119h391v-53z" />
<glyph unicode="&#xb0c4;" horiz-adv-x="837" d="M389 367h-315v415h61v-362h254v-53zM536 614h141v232h59v-547h-59v262h-141v-246h-59v511h59v-212zM728 -91h-429v325h429v-325zM668 -39v221h-309v-221h309z" />
<glyph unicode="&#xb0c5;" horiz-adv-x="837" d="M389 378h-315v407h61v-353h254v-54zM536 628h141v218h59v-525h-59v254h-141v-244h-59v495h59v-198zM731 -96h-429v367h60v-106h309v106h60v-367zM671 -44v158h-309v-158h309z" />
<glyph unicode="&#xb0c7;" horiz-adv-x="837" d="M389 356h-315v426h61v-373h254v-53zM536 601h141v245h59v-612h-59v314h-141v-251h-59v529h59v-225zM498 136l244 -193l-39 -44l-233 184q-14 -21 -32 -42q-79 -92 -187 -143l-34 44q89 40 163.5 122.5t74.5 169.5v9h61v-17q0 -45 -18 -90z" />
<glyph unicode="&#xb0c8;" horiz-adv-x="837" d="M389 367h-315v415h61v-362h254v-53zM536 614h141v232h59v-547h-59v262h-141v-246h-59v511h59v-212zM370 219q0 -48 -17 -96l125 -149q34 33 62 82q43 73 43 166v23h61v-28q0 -48 -14 -95l167 -175l-38 -36l-150 158q-21 -45 -56 -90t-81 -75l-142 164q-6 -11 -13 -22 q-53 -90 -132 -138l-34 38q57 33 107 112t50 164v23h62v-26z" />
<glyph unicode="&#xb0c9;" horiz-adv-x="837" d="M389 356h-315v426h61v-373h254v-53zM677 270v283h-141v-240h-59v513h59v-219h141v239h59v-576h-59zM650 73q0 56 -42.5 93t-105.5 37t-105 -37t-42 -93t42 -93t105 -37t105.5 37t42.5 93zM712 73q0 -37 -16 -71t-44 -60q-28 -25 -67 -38.5t-83 -13.5q-43 0 -82 13.5 t-68 38.5q-27 26 -42.5 60t-15.5 71t15.5 71.5t42.5 59.5q29 25 68 38.5t82 13.5q44 0 83 -13.5t67 -38.5t44 -59.5t16 -71.5z" />
<glyph unicode="&#xb0d0;" horiz-adv-x="828" d="M481 237h-407v499h62v-446h345v-53zM807 574h-151v-195h151v-53h-151v-406h-60v926h60v-219h151v-53z" />
<glyph unicode="&#xb0d1;" horiz-adv-x="828" d="M481 361h-407v421h62v-367h345v-54zM803 637h-147v-145h147v-54h-147v-147h-60v555h60v-154h147v-55zM656 -106h-61v278h-402v54h463v-332z" />
<glyph unicode="&#xb0d4;" horiz-adv-x="828" d="M481 337h-407v439h62v-385h345v-54zM803 630h-147v-157h147v-53h-147v-248h-60v674h60v-163h147v-53zM675 -86h-451v290h62v-236h389v-54z" />
<glyph unicode="&#xb0d8;" horiz-adv-x="828" d="M481 417h-407v378h62v-325h345v-53zM803 661h-147v-129h147v-54h-147v-124h-60v492h60v-131h147v-54zM680 -96h-442v226h357v109h-362v53h423v-214h-357v-121h381v-53z" />
<glyph unicode="&#xb0e0;" horiz-adv-x="828" d="M481 376h-407v406h62v-353h345v-53zM803 647h-147v-146h147v-54h-147v-145h-60v544h60v-145h147v-54zM656 -91h-418v328h418v-328zM596 -39v224h-298v-224h298z" />
<glyph unicode="&#xb0e5;" horiz-adv-x="828" d="M481 370h-407v412h62v-359h345v-53zM803 643h-147v-147h147v-54h-147v-152h-60v556h60v-148h147v-55zM599 78q0 59 -42 96.5t-102 37.5q-61 0 -103 -37.5t-42 -96.5q0 -58 42 -96t103 -38q60 0 102 38t42 96zM660 78q0 -38 -15 -72.5t-43 -60.5q-28 -25 -66 -39.5 t-81 -14.5t-81.5 14.5t-66.5 39.5q-27 26 -42.5 60.5t-15.5 72.5t15.5 73t42.5 60q28 26 66.5 40.5t81.5 14.5t81 -14.5t66 -40.5q28 -25 43 -60t15 -73z" />
<glyph unicode="&#xb108;" horiz-adv-x="791" d="M481 237h-407v499h62v-446h345v-53zM690 -80h-61v570h-233v54h233v302h61v-926z" />
<glyph unicode="&#xb109;" horiz-adv-x="791" d="M481 361h-407v421h62v-367h345v-54zM690 291h-61v286h-233v53h233v216h61v-555zM687 -106h-61v278h-403v54h464v-332z" />
<glyph unicode="&#xb10b;" horiz-adv-x="791" d="M481 376h-407v406h62v-353h345v-53zM690 302h-61v283h-233v53h233v208h61v-544zM394 237v-335h-61v281h-194v54h255zM609 204q-1 -42 -13 -88l150 -177l-39 -36l-132 155q-3 -9 -7 -18q-40 -90 -108 -138l-38 39q55 40 90 117.5t36 154.5v25h61v-34z" />
<glyph unicode="&#xb10c;" horiz-adv-x="791" d="M481 337h-407v439h62v-385h345v-54zM690 172h-61v388h-233v54h233v232h61v-674zM705 -86h-451v288h61v-234h390v-54z" />
<glyph unicode="&#xb110;" horiz-adv-x="791" d="M481 417h-407v378h62v-325h345v-53zM690 354h-61v259h-233v53h233v180h61v-492zM711 -96h-443v226h358v109h-362v53h423v-214h-357v-121h381v-53z" />
<glyph unicode="&#xb112;" horiz-adv-x="791" d="M481 417h-407v378h62v-325h345v-53zM690 354h-61v259h-233v53h233v180h61v-492zM689 -96h-223v389h223v-389zM415 -96h-237v224h168v113h-172v52h228v-214h-168v-123h181v-52zM634 -44v285h-114v-285h114z" />
<glyph unicode="&#xb113;" horiz-adv-x="791" d="M481 417h-407v378h62v-325h345v-53zM690 354h-61v259h-233v53h233v180h61v-492zM415 -96h-237v224h168v113h-172v52h228v-214h-168v-123h181v-52zM689 -96h-223v389h54v-124h114v124h55v-389zM634 -44v162h-114v-162h114z" />
<glyph unicode="&#xb118;" horiz-adv-x="791" d="M481 376h-407v406h62v-353h345v-53zM690 302h-61v283h-233v53h233v208h61v-544zM689 -91h-419v328h419v-328zM629 -39v224h-298v-224h298z" />
<glyph unicode="&#xb119;" horiz-adv-x="791" d="M481 392h-407v393h62v-340h345v-53zM690 326h-61v271h-233v54h233v195h61v-520zM687 -96h-419v372h61v-106h298v106h60v-372zM627 -44v163h-298v-163h298z" />
<glyph unicode="&#xb11b;" horiz-adv-x="791" d="M481 370h-407v412h62v-359h345v-53zM690 232h-61v344h-233v54h233v216h61v-614zM480 149l245 -206l-40 -44l-230 198q-15 -25 -34 -49q-79 -100 -188 -150l-33 44q89 40 163 130t74 180v14h62v-23q0 -47 -19 -94z" />
<glyph unicode="&#xb11c;" horiz-adv-x="791" d="M481 376h-407v406h62v-353h345v-53zM690 302h-61v283h-233v53h233v208h61v-544zM349 219q0 -47 -16 -96l123 -148q31 32 59 81q41 74 41 166v26h61v-31q0 -48 -14 -95l164 -175l-40 -36l-143 158q-24 -51 -59 -95t-76 -70l-140 164q-5 -11 -11 -22q-52 -91 -129 -138 l-37 38q57 34 106.5 113t49.5 163v26h61v-29z" />
<glyph unicode="&#xb11d;" horiz-adv-x="791" d="M481 370h-407v412h62v-359h345v-53zM690 288h-61v289h-233v53h233v216h61v-558zM628 78q0 59 -42 96.5t-103 37.5q-60 0 -102 -37.5t-42 -96.5q0 -58 42 -96t102 -38q61 0 103 38t42 96zM689 78q0 -38 -15.5 -72.5t-42.5 -60.5q-28 -25 -66.5 -39.5t-81.5 -14.5t-81 14.5 t-66 39.5q-28 26 -43 60.5t-15 72.5t15 73t43 60q28 26 66 40.5t81 14.5t81.5 -14.5t66.5 -40.5q27 -25 42.5 -60t15.5 -73z" />
<glyph unicode="&#xb123;" horiz-adv-x="791" d="M481 420h-407v375h62v-322h345v-53zM690 354h-61v260h-233v54h233v178h61v-492zM620 305v-54h-179q-79 0 -133 28l16 46q69 -20 128 -20h168zM731 127h-149q24 -19 41 -44q16 -26 16 -56t-13 -57.5t-36 -46.5q-24 -21 -56.5 -31.5t-69.5 -10.5q-36 0 -69 10.5t-56 31.5 q-23 19 -35.5 46.5t-12.5 57.5t16 56q16 25 40 44h-149v51h533v-51zM578 27q0 41 -32.5 67.5t-81.5 26.5q-48 0 -80 -26.5t-32 -67.5t32 -67.5t80 -26.5q49 0 81.5 26.5t32.5 67.5z" />
<glyph unicode="&#xb124;" horiz-adv-x="837" d="M410 237h-336v499h61v-446h275v-53zM736 -80h-59v926h59v-926zM317 544h183v282h58v-843h-58v508h-183v53z" />
<glyph unicode="&#xb125;" horiz-adv-x="837" d="M410 350h-336v432h61v-379h275v-53zM736 291h-59v555h59v-555zM328 621h179v205h58v-519h-58v261h-179v53zM731 -106h-61v278h-413v54h474v-332z" />
<glyph unicode="&#xb128;" horiz-adv-x="837" d="M410 333h-336v443h61v-390h275v-53zM736 172h-59v674h59v-674zM329 604h178v222h58v-631h-58v355h-178v54zM749 -86h-461v288h61v-234h400v-54z" />
<glyph unicode="&#xb12c;" horiz-adv-x="837" d="M410 413h-336v382h61v-329h275v-53zM736 350h-59v496h59v-496zM328 658h179v168h58v-461h-58v240h-179v53zM755 -96h-453v224h368v107h-372v53h433v-212h-367v-119h391v-53z" />
<glyph unicode="&#xb134;" horiz-adv-x="837" d="M410 367h-336v415h61v-362h275v-53zM736 299h-59v547h59v-547zM328 631h179v195h58v-511h-58v263h-179v53zM728 -91h-429v325h429v-325zM668 -39v221h-309v-221h309z" />
<glyph unicode="&#xb135;" horiz-adv-x="837" d="M410 378h-336v407h61v-353h275v-54zM736 321h-59v525h59v-525zM328 639h179v187h58v-495h-58v255h-179v53zM731 -96h-429v367h60v-106h309v106h60v-367zM671 -44v158h-309v-158h309z" />
<glyph unicode="&#xb137;" horiz-adv-x="837" d="M410 356h-336v426h61v-373h275v-53zM736 234h-59v612h59v-612zM507 297v269h-179v53h179v207h58v-529h-58zM498 136l244 -193l-39 -44l-233 184q-14 -21 -32 -42q-79 -92 -187 -143l-34 44q89 40 163.5 122.5t74.5 169.5v9h61v-17q0 -45 -18 -90z" />
<glyph unicode="&#xb138;" horiz-adv-x="837" d="M410 367h-336v415h61v-362h275v-53zM736 299h-59v547h59v-547zM328 631h179v195h58v-511h-58v263h-179v53zM370 219q0 -48 -17 -96l125 -149q34 33 62 82q43 73 43 166v23h61v-28q0 -48 -14 -95l167 -175l-38 -36l-150 158q-21 -45 -56 -90t-81 -75l-142 164 q-6 -11 -13 -22q-53 -90 -132 -138l-34 38q57 33 107 112t50 164v23h62v-26z" />
<glyph unicode="&#xb139;" horiz-adv-x="837" d="M410 356h-336v426h61v-373h275v-53zM736 270h-59v576h59v-576zM328 619h179v207h58v-513h-58v253h-179v53zM650 73q0 56 -42.5 93t-105.5 37t-105 -37t-42 -93t42 -93t105 -37t105.5 37t42.5 93zM712 73q0 -37 -16 -71t-44 -60q-28 -25 -67 -38.5t-83 -13.5 q-43 0 -82 13.5t-68 38.5q-27 26 -42.5 60t-15.5 71t15.5 71.5t42.5 59.5q29 25 68 38.5t82 13.5q44 0 83 -13.5t67 -38.5t44 -59.5t16 -71.5z" />
<glyph unicode="&#xb140;" horiz-adv-x="791" d="M481 237h-407v499h62v-446h345v-53zM690 -80h-60v473h-223v53h223v139h-223v53h223v208h60v-926z" />
<glyph unicode="&#xb141;" horiz-adv-x="791" d="M482 348h-407v434h62v-380h345v-54zM630 488h-223v53h223v127h-223v53h223v125h60v-555h-60v197zM687 -106h-61v278h-403v54h464v-332z" />
<glyph unicode="&#xb144;" horiz-adv-x="791" d="M481 321h-407v455h62v-402h345v-53zM690 172h-60v298h-223v54h223v119h-223v54h223v149h60v-674zM705 -86h-451v288h61v-234h390v-54z" />
<glyph unicode="&#xb148;" horiz-adv-x="791" d="M481 398h-407v397h62v-344h345v-53zM690 354h-60v175h-223v53h223v102h-223v54h223v108h60v-492zM711 -96h-443v226h358v109h-362v53h423v-214h-357v-121h381v-53z" />
<glyph unicode="&#xb150;" horiz-adv-x="791" d="M481 361h-407v421h62v-368h345v-53zM690 302h-60v199h-223v53h223v114h-223v53h223v125h60v-544zM689 -91h-419v328h419v-328zM629 -39v224h-298v-224h298z" />
<glyph unicode="&#xb151;" horiz-adv-x="791" d="M481 376h-407v409h62v-356h345v-53zM690 326h-60v185h-223v54h223v103h-223v53h223v125h60v-520zM687 -96h-419v372h61v-106h298v106h60v-372zM627 -44v163h-298v-163h298z" />
<glyph unicode="&#xb154;" horiz-adv-x="791" d="M481 361h-407v421h62v-368h345v-53zM690 302h-60v199h-223v53h223v114h-223v53h223v125h60v-544zM349 219q0 -47 -16 -96l123 -148q31 32 59 81q41 74 41 166v26h61v-31q0 -48 -14 -95l164 -175l-40 -36l-143 158q-24 -51 -59 -95t-76 -70l-140 164q-5 -11 -11 -22 q-52 -91 -129 -138l-37 38q57 34 106.5 113t49.5 163v26h61v-29z" />
<glyph unicode="&#xb155;" horiz-adv-x="791" d="M481 356h-407v426h62v-372h345v-54zM630 495h-223v53h223v120h-223v53h223v125h60v-558h-60v207zM628 78q0 59 -42 96.5t-103 37.5q-60 0 -102 -37.5t-42 -96.5q0 -58 42 -96t102 -38q61 0 103 38t42 96zM689 78q0 -38 -15.5 -72.5t-42.5 -60.5q-28 -25 -66.5 -39.5 t-81.5 -14.5t-81 14.5t-66 39.5q-28 26 -43 60.5t-15 72.5t15 73t43 60q28 26 66 40.5t81 14.5t81.5 -14.5t66.5 -40.5q27 -25 42.5 -60t15.5 -73z" />
<glyph unicode="&#xb158;" horiz-adv-x="791" d="M481 361h-407v421h62v-368h345v-53zM690 302h-60v199h-223v53h223v114h-223v53h223v125h60v-544zM687 237v-343h-61v119h-384v51h384v120h-385v53h446z" />
<glyph unicode="&#xb15c;" horiz-adv-x="837" d="M410 237h-336v499h61v-446h275v-53zM736 -80h-59v926h59v-926zM317 638h183v188h58v-843h-58v410h-183v53h183v139h-183v53z" />
<glyph unicode="&#xb160;" horiz-adv-x="837" d="M410 318h-336v458h61v-405h275v-53zM736 172h-59v674h59v-674zM328 688h179v138h58v-631h-58v274h-179v54h179v111h-179v54zM749 -86h-461v288h61v-234h400v-54z" />
<glyph unicode="&#xb178;" d="M659 336h-210v-239h342v-55h-756v55h352v239h-209v428h62v-374h419v-54z" />
<glyph unicode="&#xb179;" d="M657 512h-208v-141h342v-54h-756v54h352v141h-201v306h62v-252h409v-54zM631 -105h-62v248h-400v53h462v-301z" />
<glyph unicode="&#xb17c;" d="M657 490h-208v-157h342v-54h-756v54h352v157h-201v326h62v-273h409v-53zM664 -86h-475v264h62v-210h413v-54z" />
<glyph unicode="&#xb180;" d="M657 541h-208v-127h342v-53h-756v53h352v127h-201v285h62v-234h409v-51zM655 -96h-467v206h386v100h-392v53h453v-203h-386v-104h406v-52z" />
<glyph unicode="&#xb182;" d="M657 541h-208v-127h342v-53h-756v53h352v127h-201v285h62v-234h409v-51zM689 -96h-247v359h247v-359zM398 -96h-263v207h194v101h-198v51h255v-199h-193v-110h205v-50zM633 -46v258h-135v-258h135z" />
<glyph unicode="&#xb188;" d="M657 519h-208v-139h342v-54h-756v54h352v139h-201v299h62v-246h409v-53zM575 -39v199h-326v-199h326zM188 212h448v-303h-448v303z" />
<glyph unicode="&#xb189;" d="M657 522h-208v-138h342v-53h-756v53h352v138h-201v297h62v-245h409v-52zM636 -96h-448v354h62v-106h324v106h62v-354zM574 -44v145h-324v-145h324z" />
<glyph unicode="&#xb18b;" d="M657 512h-208v-163h342v-55h-756v55h352v163h-201v306h62v-252h409v-54zM427 126l264 -185l-36 -46l-256 181q-17 -25 -42 -51q-86 -90 -193 -129l-32 45q87 31 168.5 110.5t81.5 160.5v8h61v-16q0 -39 -16 -78z" />
<glyph unicode="&#xb18d;" d="M657 520h-208v-139h342v-54h-756v54h352v139h-201v298h62v-245h409v-53zM572 69q0 54 -46 89.5t-113 35.5t-112.5 -35.5t-45.5 -89.5t45.5 -89.5t112.5 -35.5t113 35.5t46 89.5zM634 69q0 -36 -16.5 -69t-46.5 -58q-29 -25 -70.5 -38t-87.5 -13q-45 0 -86.5 13t-71.5 38 t-45.5 58t-15.5 69t15.5 69t45.5 58t71.5 38t86.5 13q46 0 87.5 -13t70.5 -38q30 -25 46.5 -58t16.5 -69z" />
<glyph unicode="&#xb192;" d="M657 519h-208v-139h342v-54h-756v54h352v139h-201v299h62v-246h409v-53zM665 -40v-52h-504v52h90v200h-88v52h500v-52h-89v-200h91zM310 -40h205v200h-205v-200z" />
<glyph unicode="&#xb193;" d="M657 545h-208v-113h342v-54h-756v54h352v113h-201v281h62v-230h409v-51zM563 288v-52h-205q-64 0 -117 27l19 43q58 -18 106 -18h197zM693 122h-153l1 -1q29 -19 45.5 -44t16.5 -54t-14 -56t-39 -46q-27 -20 -62 -30.5t-75 -10.5q-39 0 -74.5 10.5t-62.5 30.5 q-25 19 -38.5 46t-13.5 56t16 54t46 44l1 1h-158v50h564v-50zM542 23q0 40 -37.5 65.5t-91.5 25.5q-55 0 -91 -25.5t-36 -65.5t36 -65.5t91 -25.5q54 0 91.5 25.5t37.5 65.5z" />
<glyph unicode="&#xb194;" horiz-adv-x="845" d="M492 402h-163v-197q37 0 85 2q88 3 154 18v-54q-63 -14 -149 -17t-145 -3h-235v53h227v198h-170v335h62v-282h334v-53zM823 432h-144v-512h-62v926h62v-361h144v-53z" />
<glyph unicode="&#xb198;" horiz-adv-x="845" d="M492 464h-164v-145q37 0 86 2q88 3 154 17v-53q-63 -14 -149 -17t-145 -3h-235v53h227v146h-170v320h62v-266h334v-54zM823 507h-144v-364h-62v703h62v-285h144v-54zM695 -86h-458v256h60v-200h398v-56z" />
<glyph unicode="&#xb19c;" horiz-adv-x="845" d="M492 530h-164v-122q37 0 86 2q88 3 154 17v-51q-63 -14 -149 -17t-145 -3h-235v51h227v123h-170v274h62v-223h334v-51zM823 568h-144v-247h-62v525h62v-225h144v-53zM699 -96h-461v208h378v99h-384v52h446v-200h-377v-108h398v-51z" />
<glyph unicode="&#xb1a8;" horiz-adv-x="845" d="M492 499h-164v-136q37 0 86 2q88 3 154 17v-53q-63 -14 -149 -17t-145 -3h-235v53h227v137h-170v295h62v-242h334v-53zM823 547h-144v-292h-62v591h62v-246h144v-53zM336 191q0 -39 -14 -82l119 -137q33 31 61 77q41 68 41 146v12h61v-16q0 -38 -11 -76l164 -164l-39 -40 l-147 150q-7 -16 -16 -31q-50 -83 -120 -126l-137 153q-5 -9 -11 -20q-49 -82 -127 -129l-36 40q55 31 102.5 102t47.5 145v12h62v-16z" />
<glyph unicode="&#xb1cc;" horiz-adv-x="803" d="M501 402h-165v-197q38 0 88 2q88 3 155 18v-54q-64 -14 -150 -17t-144 -3h-246v53h234v198h-172v335h62v-282h338v-53zM702 -80h-61v926h61v-926z" />
<glyph unicode="&#xb1d0;" horiz-adv-x="803" d="M501 463h-166v-144q38 0 89 2q88 3 155 17v-53q-64 -14 -150 -17t-144 -3h-246v53h234v145h-172v321h62v-267h338v-54zM702 846v-703h-61v703h61zM719 -86h-459v256h61v-200h398v-56z" />
<glyph unicode="&#xb1d4;" horiz-adv-x="803" d="M501 530h-166v-122q38 0 89 2q88 3 155 17v-51q-64 -14 -150 -17t-144 -3h-246v51h234v123h-172v274h62v-223h338v-51zM702 846v-525h-61v525h61zM723 -96h-462v208h379v99h-384v52h445v-200h-376v-108h398v-51z" />
<glyph unicode="&#xb1dc;" horiz-adv-x="803" d="M501 499h-166v-136q38 0 89 2q88 3 155 17v-53q-64 -14 -150 -17t-144 -3h-246v53h234v137h-172v295h62v-242h338v-53zM702 846v-584h-61v584h61zM700 -91h-440v292h440v-292zM640 -39v188h-319v-188h319z" />
<glyph unicode="&#xb1dd;" horiz-adv-x="803" d="M501 504h-166v-136q38 0 89 2q88 3 155 17v-52q-64 -14 -150 -17t-144 -3h-246v52h234v137h-172v290h62v-238h338v-52zM702 846v-550h-61v550h61zM701 -96h-440v337h61v-93h319v93h60v-337zM641 -44v142h-319v-142h319z" />
<glyph unicode="&#xb1df;" horiz-adv-x="803" d="M501 494h-166v-145q38 0 89 2q88 3 155 17v-53q-64 -15 -150 -18t-144 -3h-246v54h234v146h-172v300h62v-247h338v-53zM702 846v-647h-61v647h61zM496 119l238 -177l-37 -43l-228 169q-17 -26 -41 -51q-83 -86 -180 -120l-33 43q86 33 160 107.5t74 157.5v14h61v-23 q0 -39 -14 -77z" />
<glyph unicode="&#xb1e8;" d="M659 347h-90v-251h222v-54h-756v54h231v251h-88v417h62v-364h419v-53zM510 347h-184v-251h184v251z" />
<glyph unicode="&#xb1e9;" d="M657 512h-91v-145h225v-54h-756v54h233v145h-82v306h62v-252h409v-54zM506 512h-177v-145h177v145zM631 -105h-62v248h-400v53h462v-301z" />
<glyph unicode="&#xb1ec;" d="M657 490h-91v-162h225v-54h-756v54h233v162h-82v326h62v-273h409v-53zM506 490h-177v-162h177v162zM664 -86h-475v264h62v-210h413v-54z" />
<glyph unicode="&#xb1f0;" d="M657 541h-91v-130h225v-52h-756v52h233v130h-82v285h62v-234h409v-51zM506 541h-177v-130h177v130zM655 -96h-467v206h386v100h-392v53h453v-203h-386v-104h406v-52z" />
<glyph unicode="&#xb1f9;" d="M657 522h-91v-144h225v-53h-756v53h233v144h-82v297h62v-245h409v-52zM506 522h-177v-144h177v144zM636 -96h-448v354h62v-106h324v106h62v-354zM574 -44v145h-324v-145h324z" />
<glyph unicode="&#xb1fb;" d="M657 512h-91v-169h225v-54h-756v54h233v169h-82v306h62v-252h409v-54zM506 512h-177v-169h177v169zM427 126l264 -185l-36 -46l-256 181q-17 -25 -42 -51q-86 -90 -193 -129l-32 45q87 31 168.5 110.5t81.5 160.5v8h61v-16q0 -39 -16 -78z" />
<glyph unicode="&#xb1fd;" d="M657 520h-91v-142h225v-54h-756v54h233v142h-82v298h62v-245h409v-53zM506 520h-177v-142h177v142zM572 69q0 54 -46 89.5t-113 35.5t-112.5 -35.5t-45.5 -89.5t45.5 -89.5t112.5 -35.5t113 35.5t46 89.5zM634 69q0 -36 -16.5 -69t-46.5 -58q-29 -25 -70.5 -38t-87.5 -13 q-45 0 -86.5 13t-71.5 38t-45.5 58t-15.5 69t15.5 69t45.5 58t71.5 38t86.5 13q46 0 87.5 -13t70.5 -38q30 -25 46.5 -58t16.5 -69z" />
<glyph unicode="&#xb204;" d="M652 465h-465v341h62v-287h403v-54zM791 267h-349v-347h-61v347h-346v54h756v-54z" />
<glyph unicode="&#xb205;" d="M657 517h-471v301h62v-248h409v-53zM382 196v136h-347v54h756v-54h-348v-136h188v-301h-62v248h-400v53h213z" />
<glyph unicode="&#xb208;" d="M657 494h-471v322h62v-269h409v-53zM791 301h-329v-197h-62v197h-365v55h756v-55zM664 -86h-475v258h62v-204h413v-54z" />
<glyph unicode="&#xb20b;" d="M657 523h-471v295h62v-242h409v-53zM382 211v133h-347v55h756v-55h-348v-133h202v-53h-395v-197h404v-53h-466v303h194z" />
<glyph unicode="&#xb20c;" d="M657 545h-471v281h62v-230h409v-51zM382 263v119h-347v53h756v-53h-348v-119h192v-203h-386v-104h406v-52h-467v206h386v100h-392v53h200z" />
<glyph unicode="&#xb214;" d="M657 523h-471v295h62v-242h409v-53zM382 212v132h-347v55h756v-55h-348v-132h193v-303h-448v303h194zM575 -39v199h-326v-199h326z" />
<glyph unicode="&#xb215;" d="M657 526h-471v293h62v-241h409v-52zM443 236h-61v125h-347v53h756v-53h-348v-125zM636 -96h-448v354h62v-106h324v106h62v-354zM574 -44v145h-324v-145h324z" />
<glyph unicode="&#xb217;" d="M657 517h-471v301h62v-248h409v-53zM444 214h-63v117h-346v54h756v-54h-347v-117zM431 108l260 -166l-35 -47l-255 164q-18 -24 -45 -48q-88 -80 -193 -115l-31 45q85 27 167.5 96.5t82.5 135.5v8h61v-16q0 -27 -12 -57z" />
<glyph unicode="&#xb219;" d="M657 524h-471v294h62v-241h409v-53zM382 241v116h-347v54h756v-54h-348v-116q30 -2 57 -11q41 -14 70 -37q30 -25 46.5 -57.5t16.5 -68.5t-16.5 -68.5t-46.5 -57.5q-29 -24 -70 -37t-87 -13t-87 13t-71 37q-30 25 -46 57.5t-16 68.5t16 68.5t46 57.5q30 23 71 37 q26 9 56 11zM571 67q0 53 -46 88t-112 35q-67 0 -113 -35t-46 -88t46 -88t113 -35q66 0 112 35t46 88z" />
<glyph unicode="&#xb220;" horiz-adv-x="803" d="M500 435h-402v340h62v-287h340v-53zM641 -80v190h-198v53h198v683h61v-926h-61zM322 266v-331h-62v331h-221v53h248q49 0 137 3t155 17v-53q-64 -14 -150 -17q-60 -2 -107 -3z" />
<glyph unicode="&#xb234;" horiz-adv-x="803" d="M500 540h-402v254h62v-201h340v-53zM308 400v-166h-61v166h-208v53h248q49 0 137 3t155 17v-53q-64 -14 -150 -17q-70 -2 -121 -3zM641 233v41h-198v52h198v520h61v-613h-61zM344 169q0 -36 -12 -73l120 -127q30 25 58 63q45 62 45 141v12h61v-16q0 -33 -9 -66l164 -154 l-38 -38l-146 140q-9 -18 -21 -35q-52 -74 -121 -113l-136 141q-5 -9 -11 -18q-47 -72 -130 -118l-38 39q59 32 106 91t47 135v12h61v-16z" />
<glyph unicode="&#xb23c;" horiz-adv-x="859" d="M433 450h-350v325h59v-272h291v-53zM369 170h169v656h58v-881h-58v172h-169v53zM699 -80v926h60v-926h-60zM281 282v-337h-61v337h-181v53h226q48 0 105 2.5t114 15.5v-54q-58 -12 -114 -14q-47 -3 -89 -3z" />
<glyph unicode="&#xb258;" horiz-adv-x="803" d="M500 435h-402v340h62v-287h340v-53zM641 -80v926h61v-926h-61zM322 264v-329h-62v329h-221v53h248q49 0 137 3t155 17v-53q-64 -14 -150 -17q-60 -2 -107 -3z" />
<glyph unicode="&#xb25c;" horiz-adv-x="803" d="M500 480h-402v305h62v-252h340v-53zM308 321v-123h-61v123h-208v53h248q49 0 137 3t155 18v-54q-64 -14 -150 -17q-70 -2 -121 -3zM641 104v742h61v-742h-61zM717 -86h-480v223h62v-169h418v-54z" />
<glyph unicode="&#xb260;" horiz-adv-x="803" d="M500 547h-402v257h62v-206h340v-51zM308 394v-104h-61v104h-208v51h248q49 0 137 3t155 17v-51q-64 -14 -150 -17q-70 -2 -121 -3zM641 289v557h61v-557h-61zM723 -96h-487v196h404v87h-410v51h471v-187h-402v-96h424v-51z" />
<glyph unicode="&#xb268;" horiz-adv-x="803" d="M500 527h-402v267h62v-214h340v-53zM308 368v-124h-61v124h-208v53h248q49 0 137 3t155 18v-53q-64 -15 -150 -18q-70 -2 -121 -3zM641 243v603h61v-603h-61zM701 -91h-465v280h465v-280zM641 -39v176h-345v-176h345z" />
<glyph unicode="&#xb269;" horiz-adv-x="803" d="M500 527h-402v267h62v-215h340v-52zM308 373v-114h-61v114h-208v52h248q49 0 137 3.5t155 17.5v-52q-64 -15 -150 -18q-70 -2 -121 -3zM641 258v588h61v-588h-61zM701 -96h-465v301h60v-88h345v88h60v-301zM641 -44v111h-345v-111h345z" />
<glyph unicode="&#xb274;" d="M652 465h-465v341h62v-287h403v-54zM791 268h-209v-348h-62v348h-216v-348h-61v348h-208v54h756v-54z" />
<glyph unicode="&#xb275;" d="M657 517h-471v301h62v-248h409v-53zM513 196v143h-202v-143h202zM251 196v143h-216v54h756v-54h-218v-143h58v-301h-62v248h-400v53h82z" />
<glyph unicode="&#xb27c;" d="M657 545h-471v281h62v-230h409v-51zM566 385v-122h69v-203h-386v-104h406v-52h-467v206h386v100h-392v53h76v122h-223v53h756v-53h-225zM506 263v122h-188v-122h188z" />
<glyph unicode="&#xb284;" d="M657 523h-471v295h62v-242h409v-53zM509 212v138h-194v-138h194zM255 212v138h-220v53h756v-53h-222v-138h67v-303h-448v303h67zM575 -39v199h-326v-199h326z" />
<glyph unicode="&#xb285;" d="M657 526h-471v293h62v-241h409v-52zM295 246v122h-260v53h756v-53h-262v-122h-58v122h-118v-122h-58zM636 -96h-448v354h62v-106h324v106h62v-354zM574 -44v145h-324v-145h324z" />
<glyph unicode="&#xb289;" d="M657 524h-471v294h62v-241h409v-53zM515 225v136h-206v-137l17 6q41 13 87 13t87 -13q8 -3 15 -5zM249 188v173h-214v52h756v-52h-216v-172q26 -24 41 -53q17 -33 17 -69t-16.5 -68.5t-46.5 -57.5q-29 -24 -70 -37t-87 -13t-87 13t-71 37q-30 25 -46 57.5t-16 68.5t16 69 q14 29 40 52zM571 67q0 53 -46 88t-112 35q-67 0 -113 -35t-46 -88t46 -88t113 -35q66 0 112 35t46 88z" />
<glyph unicode="&#xb290;" d="M659 326h-481v438h62v-385h419v-53zM35 97h756v-55h-756v55z" />
<glyph unicode="&#xb291;" d="M657 512h-471v306h62v-252h409v-54zM35 383h756v-54h-756v54zM631 -105h-62v248h-400v53h462v-301z" />
<glyph unicode="&#xb294;" d="M657 490h-471v326h62v-273h409v-53zM35 339h756v-55h-756v55zM664 -86h-475v264h62v-210h413v-54z" />
<glyph unicode="&#xb298;" d="M657 541h-471v285h62v-234h409v-51zM35 428h756v-53h-756v53zM655 -96h-467v206h386v100h-392v53h453v-203h-386v-104h406v-52z" />
<glyph unicode="&#xb299;" d="M657 541h-471v285h62v-234h409v-51zM35 428h756v-53h-756v53zM689 -96h-57v308h-194v51h251v-359zM447 -96h-313v207h197v101h-201v51h258v-199h-197v-110h256v-50z" />
<glyph unicode="&#xb29a;" d="M657 541h-471v285h62v-234h409v-51zM35 428h756v-53h-756v53zM689 -96h-247v359h247v-359zM398 -96h-263v207h194v101h-198v51h255v-199h-193v-110h205v-50zM633 -46v258h-135v-258h135z" />
<glyph unicode="&#xb2a0;" d="M657 519h-471v299h62v-246h409v-53zM791 338h-756v55h756v-55zM575 -39v199h-326v-199h326zM188 212h448v-303h-448v303z" />
<glyph unicode="&#xb2a1;" d="M657 522h-471v297h62v-245h409v-52zM35 396h756v-54h-756v54zM636 -96h-448v354h62v-106h324v106h62v-354zM574 -44v145h-324v-145h324z" />
<glyph unicode="&#xb2a3;" d="M657 512h-471v306h62v-252h409v-54zM791 310h-756v54h756v-54zM427 126l264 -185l-36 -46l-256 181q-17 -25 -42 -51q-86 -90 -193 -129l-32 45q87 31 168.5 110.5t81.5 160.5v8h61v-16q0 -39 -16 -78z" />
<glyph unicode="&#xb2a5;" d="M657 520h-471v298h62v-245h409v-53zM791 337h-756v55h756v-55zM571 67q0 53 -46 88t-112 35q-67 0 -113 -35t-46 -88t46 -88t113 -35q66 0 112 35t46 88zM633 67q0 -36 -16.5 -68.5t-46.5 -57.5q-29 -24 -70 -37t-87 -13t-87 13t-71 37q-30 25 -46 57.5t-16 68.5t16 68.5 t46 57.5q30 23 71 36.5t87 13.5t87 -13.5t70 -36.5q30 -25 46.5 -57.5t16.5 -68.5z" />
<glyph unicode="&#xb2a6;" d="M657 519h-471v299h62v-246h409v-53zM791 338h-756v55h756v-55zM597 157q-37 -56 -101 -106l217 -115l-32 -45l-234 124l-18 -12q-115 -71 -255 -109l-29 43q89 21 207 84t173 138h-326v52h424q-1 -15 -26 -54z" />
<glyph unicode="&#xb2aa;" d="M657 519h-471v299h62v-246h409v-53zM791 338h-756v55h756v-55zM665 -40v-52h-504v52h90v200h-88v52h500v-52h-89v-200h91zM310 -40h205v200h-205v-200z" />
<glyph unicode="&#xb2ac;" horiz-adv-x="803" d="M501 402h-400v335h62v-282h338v-53zM702 -80h-61v926h61v-926zM579 171q-64 -14 -150 -17t-144 -3h-246v53h248q49 0 137 3t155 18v-54z" />
<glyph unicode="&#xb2b0;" horiz-adv-x="803" d="M501 464h-400v320h62v-266h338v-54zM702 846v-703h-61v703h61zM579 306q-64 -15 -150 -18t-144 -3h-246v53h248q49 0 137 3t155 18v-53zM719 -86h-459v256h61v-200h398v-56z" />
<glyph unicode="&#xb2b4;" horiz-adv-x="803" d="M501 529h-400v275h62v-224h338v-51zM702 846v-525h-61v525h61zM579 383q-64 -14 -150 -17t-144 -3h-246v51h248q49 0 137 3t155 18v-52zM723 -96h-462v208h379v99h-384v52h445v-200h-376v-108h398v-51z" />
<glyph unicode="&#xb2c8;" horiz-adv-x="791" d="M496 237h-422v499h62v-446h360v-53zM690 -80h-61v926h61v-926z" />
<glyph unicode="&#xb2c9;" horiz-adv-x="791" d="M485 361h-411v421h62v-367h349v-54zM629 295v551h61v-551h-61zM687 -106h-61v278h-403v54h464v-332z" />
<glyph unicode="&#xb2cc;" horiz-adv-x="791" d="M485 337h-411v439h62v-385h349v-54zM629 177v669h61v-669h-61zM705 -86h-451v288h61v-234h390v-54z" />
<glyph unicode="&#xb2d0;" horiz-adv-x="791" d="M485 417h-411v378h62v-325h349v-53zM629 354v492h61v-492h-61zM711 -96h-443v226h358v109h-362v53h423v-214h-357v-121h381v-53z" />
<glyph unicode="&#xb2d2;" horiz-adv-x="791" d="M485 417h-411v378h62v-325h349v-53zM629 354v492h61v-492h-61zM689 -96h-223v389h223v-389zM415 -96h-237v224h168v113h-172v52h228v-214h-168v-123h181v-52zM634 -44v285h-114v-285h114z" />
<glyph unicode="&#xb2d8;" horiz-adv-x="791" d="M485 376h-411v406h62v-353h349v-53zM629 307v539h61v-539h-61zM689 -91h-419v328h419v-328zM629 -39v224h-298v-224h298z" />
<glyph unicode="&#xb2d9;" horiz-adv-x="791" d="M485 392h-411v393h62v-340h349v-53zM629 330v516h61v-516h-61zM687 -96h-419v372h61v-106h298v106h60v-372zM627 -44v163h-298v-163h298z" />
<glyph unicode="&#xb2db;" horiz-adv-x="791" d="M485 370h-411v412h62v-359h349v-53zM629 236v610h61v-610h-61zM480 149l245 -206l-40 -44l-230 198q-15 -25 -34 -49q-79 -100 -188 -150l-33 44q89 40 163 130t74 180v14h62v-23q0 -47 -19 -94z" />
<glyph unicode="&#xb2dd;" horiz-adv-x="791" d="M485 370h-411v412h62v-359h349v-53zM629 292v554h61v-554h-61zM628 78q0 59 -42 96.5t-103 37.5q-60 0 -102 -37.5t-42 -96.5q0 -58 42 -96t102 -38q61 0 103 38t42 96zM689 78q0 -38 -15.5 -72.5t-42.5 -60.5q-28 -25 -66.5 -39.5t-81.5 -14.5t-81 14.5t-66 39.5 q-28 26 -43 60.5t-15 72.5t15 73t43 60q28 26 66 40.5t81 14.5t81.5 -14.5t66.5 -40.5q27 -25 42.5 -60t15.5 -73z" />
<glyph unicode="&#xb2e2;" horiz-adv-x="791" d="M485 376h-411v406h62v-353h349v-53zM629 307v539h61v-539h-61zM706 -39v-52h-495v52h96v224h-94v52h490v-52h-88v-224h91zM367 -39h189v224h-189v-224z" />
<glyph unicode="&#xb2e4;" horiz-adv-x="828" d="M481 227h-407v495h346v-53h-285v-389h346v-53zM807 447h-151v-527h-61v926h61v-341h151v-58z" />
<glyph unicode="&#xb2e5;" horiz-adv-x="828" d="M481 356h-407v420h346v-54h-285v-313h346v-53zM803 545h-147v-254h-61v555h61v-241h147v-60zM656 -106h-61v278h-402v54h463v-332z" />
<glyph unicode="&#xb2e6;" horiz-adv-x="828" d="M481 356h-407v420h346v-54h-285v-313h346v-53zM803 545h-147v-254h-61v555h61v-241h147v-60zM384 226v-332h-60v278h-185v54h245zM656 226v-332h-60v278h-162v54h222z" />
<glyph unicode="&#xb2e8;" horiz-adv-x="828" d="M481 334h-407v432h346v-53h-285v-326h346v-53zM803 533h-147v-361h-61v674h61v-255h147v-58zM675 -86h-451v290h62v-236h389v-54z" />
<glyph unicode="&#xb2eb;" horiz-adv-x="828" d="M481 371h-407v405h346v-54h-285v-298h346v-53zM803 555h-147v-253h-61v544h61v-231h147v-60zM666 -91h-428v328h418v-53h-357v-221h367v-54z" />
<glyph unicode="&#xb2ec;" horiz-adv-x="828" d="M481 409h-407v377h346v-53h-285v-271h346v-53zM803 570h-147v-216h-61v492h61v-218h147v-58zM680 -96h-442v226h357v109h-362v53h423v-214h-357v-121h381v-53z" />
<glyph unicode="&#xb2ed;" horiz-adv-x="828" d="M481 409h-407v377h346v-53h-285v-271h346v-53zM803 570h-147v-216h-61v492h61v-218h147v-58zM656 -96h-57v337h-163v52h220v-389zM437 -96h-292v224h176v113h-180v52h237v-214h-175v-123h234v-52z" />
<glyph unicode="&#xb2ee;" horiz-adv-x="828" d="M481 409h-407v377h346v-53h-285v-271h346v-53zM803 570h-147v-216h-61v492h61v-218h147v-58zM656 -96h-223v389h223v-389zM382 -96h-237v224h168v113h-172v52h229v-214h-168v-123h180v-52zM601 -44v285h-114v-285h114z" />
<glyph unicode="&#xb2ef;" horiz-adv-x="828" d="M481 409h-407v377h346v-53h-285v-271h346v-53zM803 570h-147v-216h-61v492h61v-218h147v-58zM382 -96h-237v224h167v113h-171v52h229v-214h-167v-123h179v-52zM656 -96h-220v389h56v-124h108v124h56v-389zM600 -44v162h-108v-162h108z" />
<glyph unicode="&#xb2f3;" horiz-adv-x="828" d="M481 409h-407v377h346v-53h-285v-271h346v-53zM803 570h-147v-216h-61v492h61v-218h147v-58zM404 -44v-52h-259v224h163v113h-167v52h224v-214h-163v-123h202zM650 295v-53h-91q-57 0 -107 19l10 46q64 -12 107 -12h81zM412 123v48h296v-48h-82l10 -8q20 -16 34 -41 t14 -52q0 -28 -9.5 -53t-27.5 -42q-17 -19 -41 -28.5t-50 -9.5q-25 0 -49 9.5t-41 28.5q-17 17 -26.5 42t-9.5 53q0 27 13.5 52t33.5 41q5 4 11 8h-76zM627 22q0 34 -20.5 58t-50.5 24q-29 0 -49 -24t-20 -58t20 -58t49 -24q30 0 50.5 24t20.5 58z" />
<glyph unicode="&#xb2f4;" horiz-adv-x="828" d="M481 371h-407v405h346v-54h-285v-298h346v-53zM803 555h-147v-253h-61v544h61v-231h147v-60zM656 -91h-418v328h418v-328zM596 -39v224h-298v-224h298z" />
<glyph unicode="&#xb2f5;" horiz-adv-x="828" d="M481 385h-407v391h346v-54h-285v-283h346v-54zM803 563h-147v-237h-61v520h61v-225h147v-58zM656 -96h-418v372h60v-106h298v106h60v-372zM596 -44v163h-298v-163h298z" />
<glyph unicode="&#xb2f7;" horiz-adv-x="828" d="M481 366h-407v410h346v-54h-285v-303h346v-53zM803 545h-147v-313h-61v614h61v-241h147v-60zM446 149l245 -206l-40 -44l-230 198q-14 -25 -34 -49q-79 -100 -187 -150l-34 44q89 40 163 130t74 180v14h62v-23q0 -47 -19 -94z" />
<glyph unicode="&#xb2f8;" horiz-adv-x="828" d="M481 371h-407v405h346v-54h-285v-298h346v-53zM803 555h-147v-253h-61v544h61v-231h147v-60zM312 219q0 -47 -16 -96l123 -148q32 32 59 81q41 74 41 166v26h62v-31q0 -48 -15 -95l164 -175l-40 -36l-143 158q-24 -51 -58.5 -95t-76.5 -70l-140 164q-5 -11 -11 -22 q-52 -91 -129 -138l-37 38q58 34 107 113t49 163v26h61v-29z" />
<glyph unicode="&#xb2f9;" horiz-adv-x="828" d="M481 366h-407v410h346v-54h-285v-303h346v-53zM803 554h-147v-264h-61v556h61v-232h147v-60zM599 78q0 59 -42 96.5t-102 37.5q-61 0 -103 -37.5t-42 -96.5q0 -58 42 -96t103 -38q60 0 102 38t42 96zM660 78q0 -38 -15 -72.5t-43 -60.5q-28 -25 -66 -39.5t-81 -14.5 t-81.5 14.5t-66.5 39.5q-27 26 -42.5 60.5t-15.5 72.5t15.5 73t42.5 60q28 26 66.5 40.5t81.5 14.5t81 -14.5t66 -40.5q28 -25 43 -60t15 -73z" />
<glyph unicode="&#xb2fa;" horiz-adv-x="828" d="M481 371h-407v405h346v-54h-285v-298h346v-53zM803 556h-147v-254h-61v544h61v-230h147v-60zM472 22q-130 -83 -266 -118l-28 45q95 26 200 82q110 60 181 154h-328v52h424q-1 -13 -26 -53q-43 -69 -102 -119l219 -117l-30 -46l-236 126z" />
<glyph unicode="&#xb2fb;" horiz-adv-x="828" d="M481 409h-407v377h346v-53h-285v-271h346v-53zM803 570h-147v-216h-61v492h61v-218h147v-58zM583 293v-52h-174q-79 0 -134 28l16 45q69 -21 128 -21h164zM644 167q-31 -70 -120 -134l203 -90l-27 -43l-226 100q-133 -78 -271 -103l-29 44q83 16 182.5 58.5t182.5 115.5 h-318v52h423z" />
<glyph unicode="&#xb2ff;" horiz-adv-x="828" d="M481 411h-407v375h346v-53h-285v-269h346v-53zM803 581h-147v-227h-61v492h61v-207h147v-58zM589 305v-54h-178q-79 0 -133 28l15 46q69 -20 128 -20h168zM700 127h-149q24 -19 41 -44q16 -26 16 -56t-12.5 -57.5t-36.5 -46.5q-23 -21 -56 -31.5t-70 -10.5 q-36 0 -68.5 10.5t-56.5 31.5q-22 19 -35 46.5t-13 57.5t16 56q16 25 40 44h-149v51h533v-51zM547 27q0 41 -32.5 67.5t-81.5 26.5q-48 0 -79.5 -26.5t-31.5 -67.5t31.5 -67.5t79.5 -26.5q49 0 81.5 26.5t32.5 67.5z" />
<glyph unicode="&#xb300;" horiz-adv-x="837" d="M398 227h-324v495h299v-53h-239v-389h264v-53zM535 503h142v343h59v-926h-59v529h-142v-466h-59v843h59v-323z" />
<glyph unicode="&#xb301;" horiz-adv-x="837" d="M398 342h-324v434h299v-54h-239v-326h264v-54zM554 603h123v243h59v-555h-59v258h-123v-242h-58v519h58v-223zM731 -106h-61v278h-413v54h474v-332z" />
<glyph unicode="&#xb304;" horiz-adv-x="837" d="M398 322h-324v443h299v-53h-239v-337h264v-53zM554 579h123v267h59v-674h-59v354h-123v-331h-58v631h58v-247zM749 -86h-461v288h61v-234h400v-54z" />
<glyph unicode="&#xb308;" horiz-adv-x="837" d="M398 397h-324v389h299v-53h-239v-283h264v-53zM554 634h123v212h59v-496h-59v231h-123v-216h-58v461h58v-192zM755 -96h-453v224h368v107h-372v53h433v-212h-367v-119h391v-53z" />
<glyph unicode="&#xb310;" horiz-adv-x="837" d="M398 364h-324v412h299v-54h-239v-305h264v-53zM554 608h123v238h59v-547h-59v255h-123v-239h-58v511h58v-218zM728 -91h-429v325h429v-325zM668 -39v221h-309v-221h309z" />
<glyph unicode="&#xb311;" horiz-adv-x="837" d="M398 370h-324v406h299v-54h-239v-299h264v-53zM554 619h123v227h59v-525h-59v245h-123v-235h-58v495h58v-207zM731 -96h-429v367h60v-106h309v106h60v-367zM671 -44v158h-309v-158h309z" />
<glyph unicode="&#xb313;" horiz-adv-x="837" d="M398 348h-324v428h299v-54h-239v-321h264v-53zM554 591h123v255h59v-612h-59v304h-123v-241h-58v529h58v-235zM498 136l244 -193l-39 -44l-233 184q-14 -21 -32 -42q-79 -92 -187 -143l-34 44q89 40 163.5 122.5t74.5 169.5v9h61v-17q0 -45 -18 -90z" />
<glyph unicode="&#xb314;" horiz-adv-x="837" d="M398 364h-324v412h299v-54h-239v-305h264v-53zM554 608h123v238h59v-547h-59v255h-123v-239h-58v511h58v-218zM370 219q0 -48 -17 -96l125 -149q34 33 62 82q43 73 43 166v23h61v-28q0 -48 -14 -95l167 -175l-38 -36l-150 158q-21 -45 -56 -90t-81 -75l-142 164 q-6 -11 -13 -22q-53 -90 -132 -138l-34 38q57 33 107 112t50 164v23h62v-26z" />
<glyph unicode="&#xb315;" horiz-adv-x="837" d="M398 348h-324v428h299v-54h-239v-321h264v-53zM677 270v273h-123v-230h-58v513h58v-230h123v250h59v-576h-59zM650 73q0 56 -42.5 93t-105.5 37t-105 -37t-42 -93t42 -93t105 -37t105.5 37t42.5 93zM712 73q0 -37 -16 -71t-44 -60q-28 -25 -67 -38.5t-83 -13.5 q-43 0 -82 13.5t-68 38.5q-27 26 -42.5 60t-15.5 71t15.5 71.5t42.5 59.5q29 25 68 38.5t82 13.5q44 0 83 -13.5t67 -38.5t44 -59.5t16 -71.5z" />
<glyph unicode="&#xb31c;" horiz-adv-x="828" d="M481 227h-407v495h346v-53h-285v-389h346v-53zM807 564h-151v-195h151v-53h-151v-396h-60v926h60v-229h151v-53z" />
<glyph unicode="&#xb354;" horiz-adv-x="791" d="M478 227h-404v495h336v-53h-275v-389h343v-53zM690 -80h-61v537h-230v54h230v335h61v-926z" />
<glyph unicode="&#xb355;" horiz-adv-x="791" d="M481 356h-407v420h346v-54h-285v-313h346v-53zM690 291h-61v253h-222v52h222v250h61v-555zM687 -106h-61v278h-403v54h464v-332z" />
<glyph unicode="&#xb356;" horiz-adv-x="791" d="M481 356h-407v420h346v-54h-285v-313h346v-53zM690 291h-61v253h-222v52h222v250h61v-555zM417 226v-332h-61v278h-184v54h245zM689 226v-332h-60v278h-162v54h222z" />
<glyph unicode="&#xb358;" horiz-adv-x="791" d="M481 334h-407v432h346v-53h-285v-326h346v-53zM690 172h-61v358h-222v54h222v262h61v-674zM705 -86h-451v288h61v-234h390v-54z" />
<glyph unicode="&#xb35b;" horiz-adv-x="791" d="M482 371h-407v405h346v-54h-285v-298h346v-53zM690 302h-61v251h-222v53h222v240h61v-544zM696 -91h-428v328h419v-53h-357v-221h366v-54z" />
<glyph unicode="&#xb35c;" horiz-adv-x="791" d="M481 405h-407v381h346v-53h-285v-275h346v-53zM690 354h-61v219h-222v54h222v219h61v-492zM711 -96h-443v226h358v109h-362v53h423v-214h-357v-121h381v-53z" />
<glyph unicode="&#xb35e;" horiz-adv-x="791" d="M481 405h-407v381h346v-53h-285v-275h346v-53zM690 354h-61v219h-222v54h222v219h61v-492zM689 -96h-223v389h223v-389zM415 -96h-237v224h168v113h-172v52h228v-214h-168v-123h181v-52zM634 -44v285h-114v-285h114z" />
<glyph unicode="&#xb35f;" horiz-adv-x="791" d="M481 405h-407v381h346v-53h-285v-275h346v-53zM690 354h-61v219h-222v54h222v219h61v-492zM415 -96h-237v224h168v113h-172v52h228v-214h-168v-123h181v-52zM689 -96h-223v389h54v-124h114v124h55v-389zM634 -44v162h-114v-162h114z" />
<glyph unicode="&#xb364;" horiz-adv-x="791" d="M482 371h-407v405h346v-54h-285v-298h346v-53zM690 302h-61v251h-222v53h222v240h61v-544zM689 -91h-419v328h419v-328zM629 -39v224h-298v-224h298z" />
<glyph unicode="&#xb365;" horiz-adv-x="791" d="M481 385h-407v391h346v-54h-285v-283h346v-54zM690 326h-61v232h-222v55h222v233h61v-520zM687 -96h-419v372h61v-106h298v106h60v-372zM627 -44v163h-298v-163h298z" />
<glyph unicode="&#xb367;" horiz-adv-x="791" d="M481 366h-407v410h346v-54h-285v-303h346v-53zM690 232h-61v317h-222v54h222v243h61v-614zM480 149l245 -206l-40 -44l-230 198q-15 -25 -34 -49q-79 -100 -188 -150l-33 44q89 40 163 130t74 180v14h62v-23q0 -47 -19 -94z" />
<glyph unicode="&#xb369;" horiz-adv-x="791" d="M481 366h-407v410h346v-54h-285v-303h346v-53zM690 288h-61v261h-222v54h222v243h61v-558zM628 78q0 59 -42 96.5t-103 37.5q-60 0 -102 -37.5t-42 -96.5q0 -58 42 -96t102 -38q61 0 103 38t42 96zM689 78q0 -38 -15.5 -72.5t-42.5 -60.5q-28 -25 -66.5 -39.5 t-81.5 -14.5t-81 14.5t-66 39.5q-28 26 -43 60.5t-15 72.5t15 73t43 60q28 26 66 40.5t81 14.5t81.5 -14.5t66.5 -40.5q27 -25 42.5 -60t15.5 -73z" />
<glyph unicode="&#xb36b;" horiz-adv-x="791" d="M481 405h-407v381h346v-53h-285v-275h346v-53zM690 354h-61v219h-222v54h222v219h61v-492zM610 293v-52h-174q-79 0 -133 28l15 45q70 -21 128 -21h164zM672 167q-31 -70 -120 -134l203 -90l-27 -43l-226 100q-133 -78 -272 -103l-28 44q83 16 182 58.5t182 115.5h-317 v52h423z" />
<glyph unicode="&#xb36e;" horiz-adv-x="791" d="M482 371h-407v405h346v-54h-285v-298h346v-53zM690 302h-61v251h-222v53h222v240h61v-544zM706 -39v-52h-495v52h96v224h-94v52h490v-52h-88v-224h91zM367 -39h189v224h-189v-224z" />
<glyph unicode="&#xb370;" horiz-adv-x="837" d="M398 227h-324v495h299v-53h-239v-389h264v-53zM736 -80h-59v926h59v-926zM323 506h182v320h58v-843h-58v470h-182v53z" />
<glyph unicode="&#xb371;" horiz-adv-x="837" d="M398 342h-324v434h299v-54h-239v-326h264v-54zM736 291h-59v555h59v-555zM332 587h175v239h58v-519h-58v227h-175v53zM731 -106h-61v278h-413v54h474v-332z" />
<glyph unicode="&#xb374;" horiz-adv-x="837" d="M398 322h-324v443h299v-53h-239v-337h264v-53zM736 172h-59v674h59v-674zM333 575h174v251h58v-631h-58v327h-174v53zM749 -86h-461v288h61v-234h400v-54z" />
<glyph unicode="&#xb378;" horiz-adv-x="837" d="M398 397h-324v389h299v-52h-239v-285h264v-52zM736 350h-59v496h59v-496zM332 621h175v205h58v-461h-58v203h-175v53zM755 -96h-453v224h368v107h-372v53h433v-212h-367v-119h391v-53z" />
<glyph unicode="&#xb380;" horiz-adv-x="837" d="M398 364h-324v412h299v-54h-239v-305h264v-53zM736 299h-59v547h59v-547zM333 599h174v227h58v-511h-58v231h-174v53zM728 -91h-429v325h429v-325zM668 -39v221h-309v-221h309z" />
<glyph unicode="&#xb381;" horiz-adv-x="837" d="M398 370h-324v406h299v-54h-239v-299h264v-53zM736 321h-59v525h59v-525zM332 603h175v223h58v-495h-58v218h-175v54zM731 -96h-429v367h60v-106h309v106h60v-367zM671 -44v158h-309v-158h309z" />
<glyph unicode="&#xb383;" horiz-adv-x="837" d="M398 348h-324v428h299v-54h-239v-321h264v-53zM736 234h-59v612h59v-612zM333 591h174v235h58v-529h-58v241h-174v53zM498 136l244 -193l-39 -44l-233 184q-14 -21 -32 -42q-79 -92 -187 -143l-34 44q89 40 163.5 122.5t74.5 169.5v9h61v-17q0 -45 -18 -90z" />
<glyph unicode="&#xb384;" horiz-adv-x="837" d="M398 364h-324v412h299v-54h-239v-305h264v-53zM736 299h-59v547h59v-547zM333 599h174v227h58v-511h-58v231h-174v53zM370 219q0 -48 -17 -96l125 -149q34 33 62 82q43 73 43 166v23h61v-28q0 -48 -14 -95l167 -175l-38 -36l-150 158q-21 -45 -56 -90t-81 -75l-142 164 q-6 -11 -13 -22q-53 -90 -132 -138l-34 38q57 33 107 112t50 164v23h62v-26z" />
<glyph unicode="&#xb385;" horiz-adv-x="837" d="M398 348h-324v428h299v-54h-239v-321h264v-53zM736 270h-59v576h59v-576zM507 313v225h-174v53h174v235h58v-513h-58zM650 73q0 56 -42.5 93t-105.5 37t-105 -37t-42 -93t42 -93t105 -37t105.5 37t42.5 93zM712 73q0 -37 -16 -71t-44 -60q-28 -25 -67 -38.5t-83 -13.5 q-43 0 -82 13.5t-68 38.5q-27 26 -42.5 60t-15.5 71t15.5 71.5t42.5 59.5q29 25 68 38.5t82 13.5q44 0 83 -13.5t67 -38.5t44 -59.5t16 -71.5z" />
<glyph unicode="&#xb38c;" horiz-adv-x="791" d="M478 227h-404v495h336v-53h-275v-389h343v-53zM690 -80h-60v441h-193v53h193v125h-193v53h193v254h60v-926z" />
<glyph unicode="&#xb390;" horiz-adv-x="791" d="M481 314h-407v452h346v-53h-285v-346h346v-53zM690 172h-60v267h-193v53h193v104h-193v54h193v196h60v-674zM705 -86h-451v288h61v-234h390v-54z" />
<glyph unicode="&#xb394;" horiz-adv-x="791" d="M481 384h-407v402h346v-53h-285v-295h346v-54zM690 354h-60v140h-193v53h193v87h-193v54h193v158h60v-492zM711 -96h-443v226h358v109h-362v53h423v-214h-357v-121h381v-53z" />
<glyph unicode="&#xb3a0;" horiz-adv-x="791" d="M481 352h-407v424h346v-54h-285v-317h346v-53zM690 302h-60v167h-193v54h193v91h-193v53h193v179h60v-544zM349 219q0 -47 -16 -96l123 -148q31 32 59 81q41 74 41 166v26h61v-31q0 -48 -14 -95l164 -175l-40 -36l-143 158q-24 -51 -59 -95t-76 -70l-140 164 q-5 -11 -11 -22q-52 -91 -129 -138l-37 38q57 34 106.5 113t49.5 163v26h61v-29z" />
<glyph unicode="&#xb3a1;" horiz-adv-x="791" d="M481 356h-407v420h346v-54h-285v-313h346v-53zM630 614h-193v53h193v179h60v-558h-60v184h-193v54h193v88zM628 78q0 59 -42 96.5t-103 37.5q-60 0 -102 -37.5t-42 -96.5q0 -58 42 -96t102 -38q61 0 103 38t42 96zM689 78q0 -38 -15.5 -72.5t-42.5 -60.5 q-28 -25 -66.5 -39.5t-81.5 -14.5t-81 14.5t-66 39.5q-28 26 -43 60.5t-15 72.5t15 73t43 60q28 26 66 40.5t81 14.5t81.5 -14.5t66.5 -40.5q27 -25 42.5 -60t15.5 -73z" />
<glyph unicode="&#xb3a8;" horiz-adv-x="837" d="M398 227h-324v495h299v-53h-239v-389h264v-53zM736 -80h-59v926h59v-926zM333 591h172v235h58v-843h-58v380h-172v53h172v122h-172v53z" />
<glyph unicode="&#xb3ac;" horiz-adv-x="837" d="M398 314h-324v451h299v-53h-239v-345h264v-53zM736 172h-59v674h59v-674zM343 643h163v183h57v-631h-57v244h-163v53h163v98h-163v53zM749 -86h-461v288h61v-234h400v-54z" />
<glyph unicode="&#xb3c4;" d="M644 326h-195v-229h342v-55h-756v55h352v229h-209v420h465v-53h-403v-314h404v-53z" />
<glyph unicode="&#xb3c5;" d="M639 487h-193v-133h345v-55h-756v55h350v133h-198v320h451v-53h-389v-214h390v-53zM631 -105h-62v248h-400v53h462v-301z" />
<glyph unicode="&#xb3c8;" d="M639 478h-193v-152h345v-54h-756v54h350v152h-198v329h451v-53h-389v-223h390v-53zM664 -86h-475v264h62v-210h413v-54z" />
<glyph unicode="&#xb3cb;" d="M639 490h-193v-122h345v-54h-756v54h350v122h-198v317h451v-53h-389v-211h390v-53zM654 -92h-466v303h457v-53h-395v-197h404v-53z" />
<glyph unicode="&#xb3cc;" d="M639 521h-193v-110h345v-53h-756v53h350v110h-197v297h450v-52h-388v-194h389v-51zM655 -96h-467v206h386v100h-392v53h453v-203h-386v-104h406v-52z" />
<glyph unicode="&#xb3ce;" d="M639 521h-193v-110h345v-53h-756v53h350v110h-197v297h450v-52h-388v-194h389v-51zM689 -96h-247v359h247v-359zM398 -96h-263v207h194v101h-198v51h255v-199h-193v-110h205v-50zM633 -46v258h-135v-258h135z" />
<glyph unicode="&#xb3d0;" d="M639 521h-193v-110h345v-53h-756v53h350v110h-197v297h450v-52h-388v-194h389v-51zM412 -96h-277v207h199v101h-203v51h260v-199h-198v-110h219v-50zM618 205q0 -45 -12 -89l147 -177l-45 -36l-123 153q-7 -16 -16 -30q-49 -87 -105 -123l-35 41q56 39 93 114.5t37 154.5 v50h59v-58z" />
<glyph unicode="&#xb3d4;" d="M639 490h-193v-122h345v-54h-756v54h350v122h-198v317h451v-53h-389v-211h390v-53zM575 -39v199h-326v-199h326zM188 212h448v-303h-448v303z" />
<glyph unicode="&#xb3d5;" d="M639 500h-193v-117h345v-53h-756v53h350v117h-198v307h451v-53h-389v-201h390v-53zM636 -96h-448v354h62v-106h324v106h62v-354zM574 -44v145h-324v-145h324z" />
<glyph unicode="&#xb3d7;" d="M639 487h-193v-143h345v-54h-756v54h350v143h-198v320h451v-53h-389v-214h390v-53zM427 126l264 -185l-36 -46l-256 181q-17 -25 -42 -51q-86 -90 -193 -129l-32 45q87 31 168.5 110.5t81.5 160.5v8h61v-16q0 -39 -16 -78z" />
<glyph unicode="&#xb3d9;" d="M639 500h-193v-122h345v-54h-756v54h350v122h-198v307h451v-53h-389v-201h390v-53zM572 69q0 54 -46 89.5t-113 35.5t-112.5 -35.5t-45.5 -89.5t45.5 -89.5t112.5 -35.5t113 35.5t46 89.5zM634 69q0 -36 -16.5 -69t-46.5 -58q-29 -25 -70.5 -38t-87.5 -13q-45 0 -86.5 13 t-71.5 38t-45.5 58t-15.5 69t15.5 69t45.5 58t71.5 38t86.5 13q46 0 87.5 -13t70.5 -38q30 -25 46.5 -58t16.5 -69z" />
<glyph unicode="&#xb3db;" d="M639 521h-193v-110h345v-53h-756v53h350v110h-197v297h450v-52h-388v-194h389v-51zM563 216h-194q-47 0 -119 25l12 44q74 -17 117 -17h184v-52zM620 127q-46 -67 -120 -116l210 -69l-27 -44l-240 80q-111 -55 -272 -82l-30 43q131 22 229 66t147 87h-328v51h440 q-1 -4 -9 -16z" />
<glyph unicode="&#xb3dd;" d="M639 521h-193v-110h345v-53h-756v53h350v110h-197v297h450v-52h-388v-194h389v-51zM188 263h446v-52h-387v-101h376v-49h-376v-106h395v-51h-454v359z" />
<glyph unicode="&#xb3e0;" horiz-adv-x="845" d="M476 392h-148v-187q37 0 86 2q88 3 154 18v-54q-63 -14 -149 -17t-145 -3h-235v53h226v188h-169v340h380v-54h-318v-233h318v-53zM823 432h-144v-512h-62v926h62v-361h144v-53z" />
<glyph unicode="&#xb3e4;" horiz-adv-x="845" d="M476 465h-150v-146q38 0 88 2q88 3 154 17v-53q-63 -14 -149 -17t-145 -3h-235v53h225v147h-168v312h380v-54h-318v-204h318v-54zM823 487h-144v-344h-62v703h62v-306h144v-53zM695 -86h-458v256h60v-200h398v-56z" />
<glyph unicode="&#xb3e8;" horiz-adv-x="845" d="M476 524h-150v-119q38 0 88 2q88 3 154 17v-51q-63 -14 -149 -17t-145 -3h-235v51h225v120h-168v273h380v-51h-318v-171h318v-51zM823 568h-144v-247h-62v525h62v-225h144v-53zM699 -96h-461v208h378v99h-384v52h446v-200h-377v-108h398v-51z" />
<glyph unicode="&#xb3fc;" horiz-adv-x="859" d="M418 392h-123v-191q31 1 66 3q57 2 114 15v-54q-58 -12 -114.5 -14.5t-106.5 -2.5h-215v53h194v191h-150v340h335v-54h-276v-233h276v-53zM586 492h113v354h60v-926h-60v519h-113v-456h-59v843h59v-334z" />
<glyph unicode="&#xb410;" horiz-adv-x="859" d="M418 487h-123v-139q32 1 69 3q56 2 113 14v-53q-58 -13 -114.5 -15.5t-106.5 -2.5h-217v54h194v139h-150v300h335v-53h-276v-194h276v-53zM586 601h113v245h60v-591h-60v293h-113v-275h-59v553h59v-225zM358 186q0 -39 -15 -81l124 -133q34 31 61 74q43 66 43 144v17h62 v-21q0 -38 -11 -75l166 -161l-38 -39l-151 147q-50 -98 -138 -154l-142 150q-50 -93 -139 -146l-37 39q55 31 104.5 99.5t49.5 143.5v17h61v-21z" />
<glyph unicode="&#xb418;" horiz-adv-x="803" d="M483 392h-149v-187q38 0 90 2q88 3 155 18v-54q-64 -14 -150 -17t-144 -3h-246v53h232v188h-170v340h382v-54h-320v-233h320v-53zM702 -80h-61v926h61v-926z" />
<glyph unicode="&#xb41c;" horiz-adv-x="803" d="M485 465h-152v-147q39 1 91 3q88 3 155 17v-53q-64 -14 -150 -17t-144 -3h-246v53h232v147h-170v312h384v-54h-322v-204h322v-54zM702 846v-703h-61v703h61zM719 -86h-459v256h61v-200h398v-56z" />
<glyph unicode="&#xb420;" horiz-adv-x="803" d="M485 524h-152v-120q39 1 91 3q88 3 155 17v-51q-64 -14 -150 -17t-144 -3h-246v51h232v120h-170v273h384v-51h-322v-171h322v-51zM702 846v-525h-61v525h61zM723 -96h-462v208h379v99h-384v52h445v-200h-376v-108h398v-51z" />
<glyph unicode="&#xb428;" horiz-adv-x="803" d="M485 488h-152v-131q39 1 91 3q88 3 155 17v-53q-64 -14 -150 -17t-144 -3h-246v53h232v131h-170v299h384v-53h-322v-193h322v-53zM702 846v-584h-61v584h61zM700 -91h-440v292h440v-292zM640 -39v188h-319v-188h319z" />
<glyph unicode="&#xb429;" horiz-adv-x="803" d="M485 496h-152v-129q39 1 91 3q88 3 155 17v-52q-64 -14 -150 -17t-144 -3h-246v52h232v129h-170v291h384v-52h-322v-187h322v-52zM702 846v-549h-61v549h61zM701 -96h-440v337h61v-93h319v93h60v-337zM641 -44v142h-319v-142h319z" />
<glyph unicode="&#xb42b;" horiz-adv-x="803" d="M485 482h-152v-139q39 1 91 4q88 3 155 17v-53q-64 -15 -150 -18t-144 -3h-246v53h232v139h-170v305h384v-53h-322v-199h322v-53zM702 846v-647h-61v647h61zM496 119l238 -177l-37 -43l-228 169q-17 -26 -41 -51q-83 -86 -180 -120l-33 43q86 33 160 107.5t74 157.5v14 h61v-23q0 -39 -14 -77z" />
<glyph unicode="&#xb434;" d="M644 336h-75v-240h222v-54h-756v54h231v240h-88v410h465v-53h-403v-303h404v-54zM510 336h-184v-240h184v240z" />
<glyph unicode="&#xb450;" d="M639 442h-452v344h451v-53h-389v-238h390v-53zM791 246h-349v-326h-61v326h-346v54h756v-54z" />
<glyph unicode="&#xb451;" d="M639 491h-452v316h451v-53h-389v-210h390v-53zM382 196v124h-347v54h756v-54h-348v-124h188v-301h-62v248h-400v53h213z" />
<glyph unicode="&#xb454;" d="M639 482h-452v325h451v-53h-389v-219h390v-53zM791 298h-329v-194h-62v194h-365v55h756v-55zM664 -86h-475v258h62v-204h413v-54z" />
<glyph unicode="&#xb458;" d="M639 527h-451v291h450v-52h-388v-188h389v-51zM382 263v108h-347v52h756v-52h-348v-108h192v-203h-386v-104h406v-52h-467v206h386v100h-392v53h200z" />
<glyph unicode="&#xb460;" d="M639 494h-452v313h451v-53h-389v-207h390v-53zM382 212v117h-347v54h756v-54h-348v-117h193v-303h-448v303h194zM575 -39v199h-326v-199h326z" />
<glyph unicode="&#xb461;" d="M639 504h-452v303h451v-53h-389v-197h390v-53zM443 238h-61v112h-347v53h756v-53h-348v-112zM636 -96h-448v354h62v-106h324v106h62v-354zM574 -44v145h-324v-145h324z" />
<glyph unicode="&#xb463;" d="M639 491h-452v316h451v-53h-389v-210h390v-53zM444 214h-63v108h-346v54h756v-54h-347v-108zM431 108l260 -166l-35 -47l-255 164q-18 -24 -45 -48q-88 -80 -193 -115l-31 45q85 27 167.5 96.5t82.5 135.5v8h61v-16q0 -27 -12 -57z" />
<glyph unicode="&#xb465;" d="M639 503h-452v304h451v-53h-389v-198h390v-53zM382 241v98h-347v55h756v-55h-348v-98q30 -2 57 -11q41 -14 70 -37q30 -25 46.5 -57.5t16.5 -68.5t-16.5 -68.5t-46.5 -57.5q-29 -24 -70 -37t-87 -13t-87 13t-71 37q-30 25 -46 57.5t-16 68.5t16 68.5t46 57.5q30 23 71 37 q26 9 56 11zM571 67q0 53 -46 88t-112 35q-67 0 -113 -35t-46 -88t46 -88t113 -35q66 0 112 35t46 88z" />
<glyph unicode="&#xb46c;" horiz-adv-x="803" d="M489 433h-391v334h391v-53h-329v-228h329v-53zM322 266v-331h-62v331h-221v53h248q49 0 137 3t155 17v-53q-64 -14 -150 -17q-60 -2 -107 -3zM641 -80v191h-198v53h198v682h61v-926h-61z" />
<glyph unicode="&#xb480;" horiz-adv-x="803" d="M489 524h-391v263h391v-53h-329v-157h329v-53zM308 384v-150h-61v150h-208v54h248q49 0 137 3t155 17v-53q-64 -14 -150 -18q-70 -2 -121 -3zM641 233v37h-198v52h198v524h61v-613h-61zM344 169q0 -36 -12 -73l120 -127q30 25 58 63q45 62 45 141v12h61v-16q0 -33 -9 -66 l164 -154l-38 -38l-146 140q-9 -18 -21 -35q-52 -74 -121 -113l-136 141q-5 -9 -11 -18q-47 -72 -130 -118l-38 39q59 32 106 91t47 135v12h61v-16z" />
<glyph unicode="&#xb488;" horiz-adv-x="859" d="M423 448h-340v319h340v-53h-281v-213h281v-53zM369 170h169v656h58v-881h-58v172h-169v53zM699 -80v926h60v-926h-60zM281 283v-338h-61v338h-181v53h226q48 0 105 2.5t114 15.5v-54q-58 -12 -114 -14q-47 -3 -89 -3z" />
<glyph unicode="&#xb49d;" horiz-adv-x="859" d="M423 530h-340v258h340v-52h-281v-154h281v-52zM373 329h165v497h58v-583h-58v35h-165v51zM699 212v634h60v-634h-60zM286 398v-165h-62v165h-185v52h226q48 0 105 2.5t114 14.5v-52q-58 -12 -114 -14q-44 -2 -84 -3zM668 42q0 42 -44.5 71t-106.5 29q-61 0 -105.5 -29 t-44.5 -71t44.5 -70.5t105.5 -28.5q62 0 106.5 28.5t44.5 70.5zM729 42q0 -30 -15.5 -59t-43.5 -50q-29 -21 -69 -32t-84 -11t-84 11t-68 32q-29 21 -44.5 50t-15.5 59q0 31 15.5 59.5t44.5 50.5q28 20 68 31.5t84 11.5t84 -11.5t69 -31.5q28 -22 43.5 -50.5t15.5 -59.5z " />
<glyph unicode="&#xb4a4;" horiz-adv-x="803" d="M489 433h-391v334h391v-53h-329v-228h329v-53zM322 258v-323h-62v323h-221v54h248q49 0 137 3t155 17v-53q-64 -14 -150 -17q-60 -3 -107 -4zM641 -80v926h61v-926h-61z" />
<glyph unicode="&#xb4a8;" horiz-adv-x="803" d="M490 482h-391v296h391v-54h-329v-189h329v-53zM308 325v-127h-61v127h-208v53h248q49 0 137 3t155 18v-54q-64 -14 -150 -17q-70 -2 -121 -3zM641 104v742h61v-742h-61zM717 -86h-480v223h62v-169h418v-54z" />
<glyph unicode="&#xb4ac;" horiz-adv-x="803" d="M489 537h-391v260h391v-51h-329v-158h329v-51zM308 393v-103h-61v103h-208v51h248q49 0 137 3t155 17v-51q-64 -14 -150 -17q-70 -2 -121 -3zM641 289v557h61v-557h-61zM723 -96h-487v196h404v87h-410v51h471v-187h-402v-96h424v-51z" />
<glyph unicode="&#xb4b5;" horiz-adv-x="803" d="M489 510h-391v277h391v-52h-329v-172h329v-53zM308 368v-109h-61v109h-208v51h248q49 0 137 3t155 18v-51q-64 -15 -150 -18q-70 -2 -121 -3zM641 258v588h61v-588h-61zM701 -96h-465v301h60v-88h345v88h60v-301zM641 -44v111h-345v-111h345z" />
<glyph unicode="&#xb4b7;" horiz-adv-x="803" d="M489 498h-391v289h391v-53h-329v-183h329v-53zM308 336v-138h-61v138h-208v54h248q49 0 137 3t155 17v-53q-64 -15 -150 -18q-70 -2 -121 -3zM641 197v649h61v-649h-61zM471 121l246 -178l-35 -44l-239 173q-14 -20 -33 -42q-79 -88 -181 -132l-34 43q81 33 156.5 111 t75.5 153v10h61v-19q0 -36 -17 -75z" />
<glyph unicode="&#xb4b9;" horiz-adv-x="803" d="M489 514h-391v273h391v-53h-329v-166h329v-54zM308 360v-112h-61v112h-208v53h248q49 0 137 3t155 18v-54q-64 -14 -150 -17q-70 -2 -121 -3zM641 247v599h61v-599h-61zM637 61q0 51 -42.5 84t-106.5 33q-63 0 -105.5 -33t-42.5 -84t42.5 -84t105.5 -33q64 0 106.5 33 t42.5 84zM698 61q0 -35 -15 -66.5t-44 -55.5q-29 -23 -68 -35.5t-83 -12.5t-82.5 12.5t-67.5 35.5q-29 24 -44 55.5t-15 66.5t15 66.5t44 55.5q29 22 67.5 35t82.5 13t83 -13t68 -35q29 -24 44 -55.5t15 -66.5z" />
<glyph unicode="&#xb4c0;" d="M639 442h-452v344h451v-53h-389v-238h390v-53zM791 246h-209v-326h-62v326h-216v-326h-61v326h-208v54h756v-54z" />
<glyph unicode="&#xb4c4;" d="M639 482h-452v325h451v-53h-389v-219h390v-53zM791 305h-226v-194h-60v194h-122v-194h-60v194h-288v54h756v-54zM664 -86h-481v253h62v-199h419v-54z" />
<glyph unicode="&#xb4c8;" d="M639 527h-451v291h450v-52h-388v-188h389v-51zM566 374v-111h69v-203h-386v-104h406v-52h-467v206h386v100h-392v53h76v111h-223v52h756v-52h-225zM506 263v111h-188v-111h188z" />
<glyph unicode="&#xb4d0;" d="M639 494h-452v313h451v-53h-389v-207h390v-53zM509 212v120h-194v-120h194zM255 212v120h-220v53h756v-53h-222v-120h67v-303h-448v303h67zM575 -39v199h-326v-199h326z" />
<glyph unicode="&#xb4d5;" d="M639 503h-452v304h451v-53h-389v-198h390v-53zM515 225v119h-206v-120l17 6q41 13 87 13t87 -13q8 -3 15 -5zM249 188v156h-214v53h756v-53h-216v-155q26 -24 41 -53q17 -33 17 -69t-16.5 -68.5t-46.5 -57.5q-29 -24 -70 -37t-87 -13t-87 13t-71 37q-30 25 -46 57.5 t-16 68.5t16 69q14 29 40 52zM571 67q0 53 -46 88t-112 35q-67 0 -113 -35t-46 -88t46 -88t113 -35q66 0 112 35t46 88z" />
<glyph unicode="&#xb4dc;" d="M644 316h-466v430h465v-53h-403v-324h404v-53zM35 97h756v-55h-756v55z" />
<glyph unicode="&#xb4dd;" d="M639 487h-452v320h451v-53h-389v-214h390v-53zM35 368h756v-54h-756v54zM631 -105h-62v248h-400v53h462v-301z" />
<glyph unicode="&#xb4e0;" d="M639 478h-452v329h451v-53h-389v-223h390v-53zM35 332h756v-55h-756v55zM664 -86h-475v264h62v-210h413v-54z" />
<glyph unicode="&#xb4e3;" d="M639 490h-452v317h451v-53h-389v-211h390v-53zM791 323h-756v54h756v-54zM654 -92h-466v303h457v-53h-395v-197h404v-53z" />
<glyph unicode="&#xb4e4;" d="M639 521h-451v297h450v-52h-388v-194h389v-51zM35 417h756v-53h-756v53zM655 -96h-467v206h386v100h-392v53h453v-203h-386v-104h406v-52z" />
<glyph unicode="&#xb4e6;" d="M639 521h-451v297h450v-52h-388v-194h389v-51zM35 417h756v-53h-756v53zM689 -96h-247v359h247v-359zM398 -96h-263v207h194v101h-198v51h255v-199h-193v-110h205v-50zM633 -46v258h-135v-258h135z" />
<glyph unicode="&#xb4ec;" d="M639 490h-452v317h451v-53h-389v-211h390v-53zM791 323h-756v54h756v-54zM575 -39v199h-326v-199h326zM188 212h448v-303h-448v303z" />
<glyph unicode="&#xb4ed;" d="M639 500h-452v307h451v-53h-389v-201h390v-53zM35 383h756v-53h-756v53zM636 -96h-448v354h62v-106h324v106h62v-354zM574 -44v145h-324v-145h324z" />
<glyph unicode="&#xb4ef;" d="M639 487h-452v320h451v-53h-389v-214h390v-53zM791 302h-756v55h756v-55zM427 126l264 -185l-36 -46l-256 181q-17 -25 -42 -51q-86 -90 -193 -129l-32 45q87 31 168.5 110.5t81.5 160.5v8h61v-16q0 -39 -16 -78z" />
<glyph unicode="&#xb4f1;" d="M639 500h-452v307h451v-53h-389v-201h390v-53zM791 329h-756v54h756v-54zM571 67q0 53 -46 88t-112 35q-67 0 -113 -35t-46 -88t46 -88t113 -35q66 0 112 35t46 88zM633 67q0 -36 -16.5 -68.5t-46.5 -57.5q-29 -24 -70 -37t-87 -13t-87 13t-71 37q-30 25 -46 57.5 t-16 68.5t16 68.5t46 57.5q30 23 71 36.5t87 13.5t87 -13.5t70 -36.5q30 -25 46.5 -57.5t16.5 -68.5z" />
<glyph unicode="&#xb4f8;" horiz-adv-x="803" d="M483 392h-382v340h382v-54h-320v-233h320v-53zM702 -80h-61v926h61v-926zM579 171q-64 -14 -150 -17t-144 -3h-246v53h248q49 0 137 3t155 18v-54z" />
<glyph unicode="&#xb514;" horiz-adv-x="791" d="M485 227h-411v495h350v-53h-289v-389h350v-53zM690 -80h-61v926h61v-926z" />
<glyph unicode="&#xb515;" horiz-adv-x="791" d="M485 356h-411v420h350v-54h-289v-313h350v-53zM629 295v551h61v-551h-61zM687 -106h-61v278h-403v54h464v-332z" />
<glyph unicode="&#xb518;" horiz-adv-x="791" d="M485 334h-411v432h350v-53h-289v-326h350v-53zM629 177v669h61v-669h-61zM705 -86h-451v288h61v-234h390v-54z" />
<glyph unicode="&#xb51b;" horiz-adv-x="791" d="M485 371h-411v405h350v-54h-289v-298h350v-53zM629 307v539h61v-539h-61zM696 -91h-428v328h419v-53h-357v-221h366v-54z" />
<glyph unicode="&#xb51c;" horiz-adv-x="791" d="M485 408h-411v378h350v-53h-289v-272h350v-53zM629 354v492h61v-492h-61zM711 -96h-443v226h358v109h-362v53h423v-214h-357v-121h381v-53z" />
<glyph unicode="&#xb524;" horiz-adv-x="791" d="M485 371h-411v405h350v-54h-289v-298h350v-53zM629 307v539h61v-539h-61zM689 -91h-419v328h419v-328zM629 -39v224h-298v-224h298z" />
<glyph unicode="&#xb525;" horiz-adv-x="791" d="M485 385h-411v391h350v-54h-289v-283h350v-54zM629 330v516h61v-516h-61zM687 -96h-419v372h61v-106h298v106h60v-372zM627 -44v163h-298v-163h298z" />
<glyph unicode="&#xb527;" horiz-adv-x="791" d="M485 366h-411v410h350v-54h-289v-303h350v-53zM629 236v610h61v-610h-61zM480 149l245 -206l-40 -44l-230 198q-15 -25 -34 -49q-79 -100 -188 -150l-33 44q89 40 163 130t74 180v14h62v-23q0 -47 -19 -94z" />
<glyph unicode="&#xb528;" horiz-adv-x="791" d="M485 371h-411v405h350v-54h-289v-298h350v-53zM629 307v539h61v-539h-61zM349 219q0 -47 -16 -96l123 -148q31 32 59 81q41 74 41 166v26h61v-31q0 -48 -14 -95l164 -175l-40 -36l-143 158q-24 -51 -59 -95t-76 -70l-140 164q-5 -11 -11 -22q-52 -91 -129 -138l-37 38 q57 34 106.5 113t49.5 163v26h61v-29z" />
<glyph unicode="&#xb529;" horiz-adv-x="791" d="M485 366h-411v410h350v-54h-289v-303h350v-53zM629 292v554h61v-554h-61zM628 78q0 59 -42 96.5t-103 37.5q-60 0 -102 -37.5t-42 -96.5q0 -58 42 -96t102 -38q61 0 103 38t42 96zM689 78q0 -38 -15.5 -72.5t-42.5 -60.5q-28 -25 -66.5 -39.5t-81.5 -14.5t-81 14.5 t-66 39.5q-28 26 -43 60.5t-15 72.5t15 73t43 60q28 26 66 40.5t81 14.5t81.5 -14.5t66.5 -40.5q27 -25 42.5 -60t15.5 -73z" />
<glyph unicode="&#xb52a;" horiz-adv-x="791" d="M485 371h-411v405h350v-54h-289v-298h350v-53zM629 307v539h61v-539h-61zM493 22q-131 -83 -267 -118l-27 45q95 26 199 82q111 60 182 154h-328v52h424q-1 -13 -27 -53q-43 -69 -100 -119l218 -117l-31 -46l-234 126q-5 -3 -9 -6z" />
<glyph unicode="&#xb530;" horiz-adv-x="847" d="M540 232h-466v491h175v-53h-116v-385h170v438h207v-53h-148v-385h178v-53zM822 450h-145v-530h-61v926h61v-338h145v-58z" />
<glyph unicode="&#xb531;" horiz-adv-x="847" d="M540 353h-466v424h175v-54h-116v-317h170v371h207v-54h-148v-317h178v-53zM819 553h-142v-262h-61v555h61v-234h142v-59zM677 -106h-62v278h-412v54h474v-332z" />
<glyph unicode="&#xb534;" horiz-adv-x="847" d="M540 329h-466v438h175v-53h-116v-332h170v385h207v-53h-148v-332h178v-53zM819 533h-142v-361h-61v674h61v-255h142v-58zM695 -86h-461v288h62v-234h399v-54z" />
<glyph unicode="&#xb538;" horiz-adv-x="847" d="M540 407h-466v381h175v-53h-116v-275h170v328h207v-53h-148v-275h178v-53zM819 578h-142v-224h-61v492h61v-211h142v-57zM700 -96h-452v226h367v109h-371v53h433v-214h-368v-121h391v-53z" />
<glyph unicode="&#xb540;" horiz-adv-x="847" d="M540 369h-466v409h175v-54h-116v-302h170v356h207v-54h-148v-302h178v-53zM819 555h-142v-253h-61v544h61v-232h142v-59zM677 -91h-429v328h429v-328zM616 -39v224h-308v-224h308z" />
<glyph unicode="&#xb541;" horiz-adv-x="847" d="M540 379h-466v399h175v-54h-116v-291h170v345h207v-54h-148v-291h178v-54zM819 564h-142v-243h-61v525h61v-225h142v-57zM677 -96h-429v367h60v-106h308v106h61v-367zM616 -44v158h-308v-158h308z" />
<glyph unicode="&#xb543;" horiz-adv-x="847" d="M540 363h-466v415h175v-54h-116v-308h170v362h207v-54h-148v-308h178v-53zM819 543h-142v-311h-61v614h61v-245h142v-58zM466 149l245 -206l-40 -44l-231 198q-14 -25 -33 -49q-79 -100 -188 -150l-34 44q89 40 163.5 130t74.5 180v14h61v-23q0 -47 -18 -94z" />
<glyph unicode="&#xb544;" horiz-adv-x="847" d="M540 369h-466v409h175v-54h-116v-302h170v356h207v-54h-148v-302h178v-53zM819 555h-142v-253h-61v544h61v-232h142v-59zM325 219q0 -48 -17 -97l124 -147q33 33 60 81q42 73 42 166v26h61v-31q0 -48 -14 -95l164 -176l-38 -35l-147 157q-7 -15 -16 -32 q-52 -91 -119 -132l-140 163q-5 -10 -12 -21q-51 -90 -130 -138l-35 38q57 33 106 112t49 164v26h62v-29z" />
<glyph unicode="&#xb545;" horiz-adv-x="847" d="M540 363h-466v415h175v-54h-116v-308h170v362h207v-54h-148v-308h178v-53zM819 555h-142v-265h-61v556h61v-232h142v-59zM620 78q0 59 -42 96.5t-105 37.5q-62 0 -103.5 -36.5t-42.5 -97.5q0 -58 42 -96t104 -38q63 0 105 38t42 96zM681 78q0 -38 -16 -72.5t-42 -60.5 q-29 -25 -68 -39.5t-82 -14.5t-82 14.5t-67 39.5q-27 26 -43 60.5t-16 72.5t16 73t43 60q28 26 67 40.5t82 14.5t82 -14.5t68 -40.5q26 -25 42 -60t16 -73z" />
<glyph unicode="&#xb54b;" horiz-adv-x="847" d="M540 404h-466v384h175v-53h-116v-278h170v331h207v-53h-148v-278h178v-53zM819 584h-142v-230h-61v492h61v-205h142v-57zM606 305v-54h-178q-79 0 -133 28l15 46q70 -20 128 -20h168zM718 127h-150q25 -19 41 -44q17 -26 17 -56t-13 -57.5t-36 -46.5q-24 -21 -57 -31.5 t-69 -10.5t-69 10.5t-56 31.5q-23 19 -35.5 46.5t-12.5 57.5t16 56q15 25 40 44h-150v51h534v-51zM564 27q0 41 -32 67.5t-81 26.5t-80.5 -26.5t-31.5 -67.5t31.5 -67.5t80.5 -26.5t81 26.5t32 67.5z" />
<glyph unicode="&#xb54c;" horiz-adv-x="855" d="M472 232h-398v491h150v-53h-91v-385h148v438h178v-53h-118v-385h131v-53zM696 -80v526h-103v-463h-57v843h57v-327h103v347h59v-926h-59z" />
<glyph unicode="&#xb54d;" horiz-adv-x="855" d="M472 348h-397v429h149v-54h-90v-322h147v376h178v-54h-118v-322h131v-53zM696 291v258h-97v-242h-57v519h57v-223h97v243h59v-555h-59zM750 -106h-62v278h-423v54h485v-332z" />
<glyph unicode="&#xb550;" horiz-adv-x="855" d="M472 322h-397v444h149v-53h-90v-338h147v391h178v-53h-118v-338h131v-53zM696 172v354h-97v-331h-57v631h57v-247h97v267h59v-674h-59zM767 -86h-471v288h61v-234h410v-54z" />
<glyph unicode="&#xb554;" horiz-adv-x="855" d="M472 398h-397v390h149v-53h-90v-284h147v337h178v-53h-118v-284h131v-53zM696 350v231h-97v-216h-57v461h57v-192h97v212h59v-496h-59zM773 -96h-463v224h378v107h-382v53h444v-212h-378v-119h401v-53z" />
<glyph unicode="&#xb55c;" horiz-adv-x="855" d="M472 361h-397v417h149v-54h-90v-310h147v364h178v-54h-118v-310h131v-53zM696 299v255h-97v-239h-57v511h57v-218h97v238h59v-547h-59zM746 -91h-439v325h439v-325zM686 -39v221h-318v-221h318z" />
<glyph unicode="&#xb55d;" horiz-adv-x="855" d="M472 373h-397v405h149v-54h-90v-298h147v352h178v-54h-118v-298h131v-53zM696 321v245h-97v-235h-57v495h57v-207h97v227h59v-525h-59zM750 -96h-440v367h61v-106h318v106h61v-367zM689 -44v158h-318v-158h318z" />
<glyph unicode="&#xb55f;" horiz-adv-x="855" d="M472 353h-397v424h149v-54h-90v-317h147v371h178v-54h-118v-317h131v-53zM599 591h97v255h59v-612h-59v304h-97v-241h-57v529h57v-235zM518 136l245 -193l-39 -44l-234 184q-14 -21 -31 -42q-79 -92 -188 -143l-33 44q89 40 163 123t74 169v9h62v-17q0 -45 -19 -90z" />
<glyph unicode="&#xb560;" horiz-adv-x="855" d="M472 361h-397v417h149v-54h-90v-310h147v364h178v-54h-118v-310h131v-53zM696 299v255h-97v-239h-57v511h57v-218h97v238h59v-547h-59zM384 219q0 -48 -17 -97l128 -148q33 33 62 82q44 73 44 166v23h62v-28q0 -48 -15 -95l169 -175l-38 -36l-152 158 q-27 -55 -64.5 -98.5t-74.5 -66.5l-145 165q-22 -46 -61 -89.5t-84 -71.5l-35 38q57 33 108.5 112t51.5 164v23h61v-26z" />
<glyph unicode="&#xb561;" horiz-adv-x="855" d="M472 353h-397v424h149v-54h-90v-317h147v371h178v-54h-118v-317h131v-53zM696 270v278h-97v-235h-57v513h57v-225h97v245h59v-576h-59zM669 73q0 56 -42.5 93t-106.5 37q-62 0 -104 -37t-42 -93t42 -93t104 -37q64 0 106.5 37t42.5 93zM730 73q0 -37 -16 -71t-43 -60 q-29 -25 -68 -38.5t-83 -13.5q-43 0 -82 13.5t-67 38.5q-28 26 -43.5 60t-15.5 71t15.5 71.5t43.5 59.5t67 38.5t82 13.5q44 0 83 -13.5t68 -38.5q27 -25 43 -59.5t16 -71.5z" />
<glyph unicode="&#xb5a0;" horiz-adv-x="809" d="M540 232h-466v491h175v-53h-116v-385h170v438h207v-53h-148v-385h178v-53zM718 -80h-60v538h-174v54h174v334h60v-926z" />
<glyph unicode="&#xb5a1;" horiz-adv-x="809" d="M540 353h-466v424h175v-54h-116v-317h170v371h207v-54h-148v-317h178v-53zM718 291h-60v252h-165v52h165v251h60v-555zM715 -106h-62v278h-412v54h474v-332z" />
<glyph unicode="&#xb5a4;" horiz-adv-x="809" d="M540 329h-466v438h175v-53h-116v-332h170v385h207v-53h-148v-332h178v-53zM718 172h-60v357h-165v52h165v265h60v-674zM734 -86h-461v288h62v-234h399v-54z" />
<glyph unicode="&#xb5a8;" horiz-adv-x="809" d="M540 407h-466v381h175v-53h-116v-275h170v328h207v-53h-148v-275h178v-53zM718 354h-60v222h-165v52h165v218h60v-492zM738 -96h-452v226h367v109h-371v53h433v-214h-368v-121h391v-53z" />
<glyph unicode="&#xb5aa;" horiz-adv-x="809" d="M540 407h-466v381h175v-53h-116v-275h170v328h207v-53h-148v-275h178v-53zM718 354h-60v222h-165v52h165v218h60v-492zM717 -96h-232v389h232v-389zM431 -96h-248v224h178v113h-182v52h240v-214h-178v-123h190v-52zM660 -44v285h-119v-285h119z" />
<glyph unicode="&#xb5ab;" horiz-adv-x="809" d="M540 407h-466v381h175v-53h-116v-275h170v328h207v-53h-148v-275h178v-53zM718 354h-60v222h-165v52h165v218h60v-492zM431 -96h-248v224h178v113h-182v52h240v-214h-178v-123h190v-52zM717 -96h-232v389h56v-124h119v124h57v-389zM660 -44v162h-119v-162h119z" />
<glyph unicode="&#xb5b0;" horiz-adv-x="809" d="M540 369h-466v409h175v-54h-116v-302h170v356h207v-54h-148v-302h178v-53zM718 302h-60v249h-165v53h165v242h60v-544zM717 -91h-429v328h429v-328zM656 -39v224h-308v-224h308z" />
<glyph unicode="&#xb5b1;" horiz-adv-x="809" d="M540 379h-466v399h175v-54h-116v-291h170v345h207v-54h-148v-291h178v-54zM718 321h-60v236h-165v53h165v236h60v-525zM717 -96h-429v367h60v-106h308v106h61v-367zM656 -44v158h-308v-158h308z" />
<glyph unicode="&#xb5b3;" horiz-adv-x="809" d="M540 363h-466v415h175v-54h-116v-308h170v362h207v-54h-148v-308h178v-53zM658 232v317h-165v52h165v245h60v-614h-60zM499 148l244 -205l-40 -44l-230 198q-14 -25 -34 -49q-79 -100 -187 -150l-34 44q89 40 163.5 130t74.5 180v14h61v-23q0 -47 -18 -95z" />
<glyph unicode="&#xb5b4;" horiz-adv-x="809" d="M540 369h-466v409h175v-54h-116v-302h170v356h207v-54h-148v-302h178v-53zM718 302h-60v249h-165v53h165v242h60v-544zM361 219q0 -48 -16 -97l125 -148q34 33 61 82q43 73 43 166v26h62v-31q0 -48 -14 -95l166 -175l-37 -36l-150 157q-30 -59 -66 -100.5t-71 -63.5 l-142 164q-7 -11 -13 -22q-53 -90 -132 -138l-35 38q58 33 108 112t50 164v26h61v-29z" />
<glyph unicode="&#xb5b5;" horiz-adv-x="809" d="M540 363h-466v415h175v-54h-116v-308h170v362h207v-54h-148v-308h178v-53zM657 288v261h-164v52h164v245h61v-558h-61zM655 78q0 59 -42 96.5t-104 37.5q-63 0 -104 -36.5t-43 -97.5q0 -58 42 -96t105 -38q62 0 104 38t42 96zM717 78q0 -38 -16 -72.5t-43 -60.5 q-28 -25 -67 -39.5t-82 -14.5t-82 14.5t-68 39.5q-26 26 -42 60.5t-16 72.5t16 73t42 60q29 26 68 40.5t82 14.5t82 -14.5t67 -40.5q27 -25 43 -60t16 -73z" />
<glyph unicode="&#xb5bb;" horiz-adv-x="809" d="M540 404h-466v384h175v-53h-116v-278h170v331h207v-53h-148v-278h178v-53zM718 354h-60v221h-165v54h165v217h60v-492zM640 305v-54h-178q-79 0 -133 28l15 46q70 -20 128 -20h168zM752 127h-150q25 -19 41 -44q16 -26 16 -56t-12.5 -57.5t-36.5 -46.5q-23 -21 -56 -31.5 t-70 -10.5q-35 0 -68 10.5t-57 31.5q-22 19 -35 46.5t-13 57.5t17 56q15 25 40 44h-150v51h534v-51zM598 27q0 41 -32 67.5t-82 26.5q-48 0 -79.5 -26.5t-31.5 -67.5t31.5 -67.5t79.5 -26.5q50 0 82 26.5t32 67.5z" />
<glyph unicode="&#xb5bc;" horiz-adv-x="855" d="M472 232h-398v491h150v-53h-91v-385h148v438h178v-53h-118v-385h131v-53zM542 453h-118v54h118v319h57v-843h-57v470zM696 -80v926h59v-926h-59z" />
<glyph unicode="&#xb5bd;" horiz-adv-x="855" d="M472 348h-397v429h149v-54h-90v-322h147v376h178v-54h-118v-322h131v-53zM430 590h113v236h57v-519h-57v230h-113v53zM696 291v555h59v-555h-59zM750 -106h-62v278h-423v54h485v-332z" />
<glyph unicode="&#xb5c0;" horiz-adv-x="855" d="M472 322h-397v444h149v-53h-90v-338h147v391h178v-53h-118v-338h131v-53zM430 574h113v252h57v-631h-57v326h-113v53zM696 172v674h59v-674h-59zM767 -86h-471v288h61v-234h410v-54z" />
<glyph unicode="&#xb5c4;" horiz-adv-x="855" d="M472 398h-397v390h149v-53h-90v-284h147v337h178v-53h-118v-284h131v-53zM430 620h113v206h57v-461h-57v202h-113v53zM696 350v496h59v-496h-59zM773 -96h-463v224h378v107h-382v53h444v-212h-378v-119h401v-53z" />
<glyph unicode="&#xb5cc;" horiz-adv-x="855" d="M472 361h-397v417h149v-54h-90v-310h147v364h178v-54h-118v-310h131v-53zM696 299v547h59v-547h-59zM600 826v-511h-57v231h-113v53h113v227h57zM746 -91h-439v325h439v-325zM686 -39v221h-318v-221h318z" />
<glyph unicode="&#xb5cd;" horiz-adv-x="855" d="M472 373h-397v405h149v-54h-90v-298h147v352h178v-54h-118v-298h131v-53zM430 605h113v221h57v-495h-57v220h-113v54zM696 321v525h59v-525h-59zM750 -96h-440v367h61v-106h318v106h61v-367zM689 -44v158h-318v-158h318z" />
<glyph unicode="&#xb5cf;" horiz-adv-x="855" d="M472 353h-397v424h149v-54h-90v-317h147v371h178v-54h-118v-317h131v-53zM696 234v612h59v-612h-59zM430 594h113v232h57v-528h-57v243h-113v53zM518 136l245 -193l-39 -44l-234 184q-14 -21 -31 -42q-79 -92 -188 -143l-33 44q89 40 163 123t74 169v9h62v-17 q0 -45 -19 -90z" />
<glyph unicode="&#xb5d0;" horiz-adv-x="855" d="M472 361h-397v417h149v-54h-90v-310h147v364h178v-54h-118v-310h131v-53zM696 299v547h59v-547h-59zM600 826v-511h-57v231h-113v53h113v227h57zM384 219q0 -48 -17 -97l128 -148q33 33 62 82q44 73 44 166v23h62v-28q0 -48 -15 -95l169 -175l-38 -36l-152 158 q-27 -55 -64.5 -98.5t-74.5 -66.5l-145 165q-22 -46 -61 -89.5t-84 -71.5l-35 38q57 33 108.5 112t51.5 164v23h61v-26z" />
<glyph unicode="&#xb5d1;" horiz-adv-x="855" d="M472 353h-397v424h149v-54h-90v-317h147v371h178v-54h-118v-317h131v-53zM543 540h-113v53h113v233h57v-513h-57v227zM696 270v576h59v-576h-59zM669 73q0 56 -42.5 93t-106.5 37q-62 0 -104 -37t-42 -93t42 -93t104 -37q64 0 106.5 37t42.5 93zM730 73q0 -37 -16 -71 t-43 -60q-29 -25 -68 -38.5t-83 -13.5q-43 0 -82 13.5t-67 38.5q-28 26 -43.5 60t-15.5 71t15.5 71.5t43.5 59.5t67 38.5t82 13.5q44 0 83 -13.5t68 -38.5q27 -25 43 -59.5t16 -71.5z" />
<glyph unicode="&#xb5d8;" horiz-adv-x="809" d="M540 232h-466v491h175v-53h-116v-385h170v438h207v-53h-148v-385h178v-53zM718 -80h-59v447h-156v51h156v122h-156v53h156v253h59v-926z" />
<glyph unicode="&#xb5ec;" horiz-adv-x="809" d="M541 351h-466v427h174v-54h-115v-320h169v374h208v-54h-149v-320h179v-53zM659 304v163h-156v54h156v92h-156v53h156v181h59v-543h-59zM361 219q0 -48 -16 -97l125 -148q34 33 61 82q43 73 43 166v26h62v-31q0 -48 -14 -95l166 -175l-37 -36l-150 157q-30 -59 -66 -100.5 t-71 -63.5l-142 164q-7 -11 -13 -22q-53 -90 -132 -138l-35 38q58 33 108 112t50 164v26h61v-29z" />
<glyph unicode="&#xb610;" d="M686 326h-237v-229h342v-55h-756v55h352v229h-245v419h214v-53h-153v-314h209v367h273v-53h-215v-314h216v-52z" />
<glyph unicode="&#xb611;" d="M682 482h-236v-128h345v-55h-756v55h350v128h-239v326h210v-53h-149v-221h205v274h269v-53h-211v-221h212v-52zM631 -105h-62v248h-400v53h462v-301z" />
<glyph unicode="&#xb614;" d="M682 471h-236v-145h345v-54h-756v54h350v145h-239v337h210v-53h-149v-231h205v284h269v-53h-211v-231h212v-53zM664 -86h-475v264h62v-210h413v-54z" />
<glyph unicode="&#xb618;" d="M682 523h-236v-112h345v-53h-756v53h350v112h-239v297h210v-52h-149v-195h205v247h269v-52h-211v-195h212v-50zM655 -96h-467v206h386v100h-392v53h453v-203h-386v-104h406v-52z" />
<glyph unicode="&#xb625;" d="M682 495h-236v-117h345v-54h-756v54h350v117h-239v313h210v-53h-149v-208h205v261h269v-53h-211v-208h212v-52zM572 69q0 54 -46 89.5t-113 35.5t-112.5 -35.5t-45.5 -89.5t45.5 -89.5t112.5 -35.5t113 35.5t46 89.5zM634 69q0 -36 -16.5 -69t-46.5 -58 q-29 -25 -70.5 -38t-87.5 -13q-45 0 -86.5 13t-71.5 38t-45.5 58t-15.5 69t15.5 69t45.5 58t71.5 38t86.5 13q46 0 87.5 -13t70.5 -38q30 -25 46.5 -58t16.5 -69z" />
<glyph unicode="&#xb62c;" horiz-adv-x="860" d="M524 387h-180v-182q37 0 86 2q88 3 155 18v-54q-64 -14 -150.5 -17t-144.5 -3h-251v53h243v183h-201v345h176v-54h-117v-237h173v291h210v-54h-150v-237h151v-54zM839 432h-145v-512h-60v926h60v-361h145v-53z" />
<glyph unicode="&#xb634;" horiz-adv-x="860" d="M524 514h-180v-110q37 0 86 2q88 3 155 17v-51q-64 -14 -150.5 -17t-144.5 -3h-251v51h243v111h-201v283h176v-51h-117v-180h173v231h210v-51h-150v-180h151v-52zM839 568h-145v-248h-60v526h60v-225h145v-53zM715 -96h-477v208h394v99h-400v52h461v-200h-392v-108h414 v-51z" />
<glyph unicode="&#xb648;" horiz-adv-x="877" d="M473 387h-154v-186q36 1 77 3q57 2 114 15v-54q-58 -12 -114.5 -14.5t-106.5 -2.5h-250v53h221v186h-179v345h150v-54h-93v-237h150v291h184v-54h-127v-237h128v-54zM617 495h101v351h58v-926h-58v521h-101v-458h-57v843h57v-331z" />
<glyph unicode="&#xb664;" horiz-adv-x="821" d="M534 387h-185v-182q39 0 91 2q88 3 155 18v-54q-64 -14 -150.5 -17t-144.5 -3h-261v53h248v183h-201v345h178v-54h-119v-237h176v291h211v-54h-152v-237h154v-54zM721 846v-926h-61v926h61z" />
<glyph unicode="&#xb668;" horiz-adv-x="821" d="M534 462h-185v-144q39 0 91 2q88 3 155 17v-53q-64 -14 -150.5 -17t-144.5 -3h-261v53h248v145h-201v315h178v-54h-119v-208h176v262h211v-54h-152v-208h154v-53zM721 846v-703h-61v703h61zM735 -86h-470v257h61v-201h409v-56z" />
<glyph unicode="&#xb69c;" d="M682 438h-536v347h210v-53h-149v-242h205v295h269v-53h-211v-242h212v-52zM791 246h-349v-326h-61v326h-346v54h756v-54z" />
<glyph unicode="&#xb69d;" d="M682 486h-536v322h210v-53h-149v-217h205v270h269v-53h-211v-217h212v-52zM382 196v124h-347v54h756v-54h-348v-124h188v-301h-62v248h-400v53h213z" />
<glyph unicode="&#xb6a0;" d="M682 478h-536v330h210v-53h-149v-225h205v278h269v-53h-211v-225h212v-52zM791 298h-329v-194h-62v194h-365v55h756v-55zM664 -86h-475v258h62v-204h413v-54z" />
<glyph unicode="&#xb6a4;" d="M682 529h-536v291h210v-52h-149v-189h205v241h269v-52h-211v-189h212v-50zM382 263v108h-347v52h756v-52h-348v-108h192v-203h-386v-104h406v-52h-467v206h386v100h-392v53h200z" />
<glyph unicode="&#xb6ab;" d="M682 529h-536v291h210v-52h-149v-189h205v241h269v-52h-211v-189h212v-50zM443 248h-60v-183h-190v-111h230v-50h-288v208h191v100h-195v51h251v108h-347v52h756v-52h-348v-123zM683 270v-49h-103q-56 0 -106 18l10 44q66 -13 106 -13h93zM745 100h-75q18 -17 30 -36 q14 -24 14 -49q0 -26 -10 -49.5t-28 -40.5q-18 -18 -43.5 -27t-52.5 -9q-28 0 -53.5 9t-43.5 27q-18 17 -28 40.5t-10 49.5q0 25 15 49q11 19 29 36h-65v49h321v-49zM656 16q0 33 -22 55t-54 22q-33 0 -55 -22t-22 -55t22 -55t55 -22q32 0 54 22t22 55z" />
<glyph unicode="&#xb6ac;" d="M682 490h-536v318h210v-53h-149v-213h205v266h269v-53h-211v-213h212v-52zM382 212v117h-347v54h756v-54h-348v-117h193v-303h-448v303h194zM575 -39v199h-326v-199h326z" />
<glyph unicode="&#xb6b1;" d="M682 496h-536v312h210v-53h-149v-207h205v260h269v-53h-211v-207h212v-52zM382 241v98h-347v55h756v-55h-348v-98q30 -2 57 -11q41 -14 70 -37q30 -25 46.5 -57.5t16.5 -68.5t-16.5 -68.5t-46.5 -57.5q-29 -24 -70 -37t-87 -13t-87 13t-71 37q-30 25 -46 57.5t-16 68.5 t16 68.5t46 57.5q30 23 71 37q26 9 56 11zM571 67q0 53 -46 88t-112 35q-67 0 -113 -35t-46 -88t46 -88t113 -35q66 0 112 35t46 88z" />
<glyph unicode="&#xb6d4;" horiz-adv-x="877" d="M469 444h-388v323h148v-53h-91v-217h148v270h182v-53h-125v-217h126v-53zM391 170h171v656h58v-881h-58v172h-171v53zM718 -80v926h58v-926h-58zM303 283v-338h-60v338h-204v53h250q48 0 105 2.5t114 15.5v-54q-58 -12 -115 -14q-47 -3 -90 -3z" />
<glyph unicode="&#xb6f0;" horiz-adv-x="821" d="M529 428h-443v339h176v-53h-117v-232h173v285h210v-53h-150v-232h151v-54zM334 264v-329h-62v329h-233v53h266q49 0 137.5 3t155.5 17v-53q-63 -14 -149 -17q-66 -2 -115 -3zM660 -80v926h61v-926h-61z" />
<glyph unicode="&#xb6f4;" horiz-adv-x="821" d="M529 472h-443v305h176v-54h-117v-197h173v251h210v-54h-150v-197h151v-54zM313 313v-110h-61v110h-213v53h266q49 0 137.5 3t155.5 17v-53q-63 -14 -149 -17q-80 -3 -136 -3zM660 109v737h61v-737h-61zM735 -86h-490v228h62v-174h428v-54z" />
<glyph unicode="&#xb6f8;" horiz-adv-x="821" d="M529 536h-443v261h176v-51h-117v-159h173v210h210v-51h-150v-159h151v-51zM313 395v-106h-61v106h-213v51h266q49 0 137.5 3t155.5 17v-51q-63 -14 -149 -17q-80 -3 -136 -3zM660 289v557h61v-557h-61zM741 -96h-497v196h414v87h-419v51h481v-187h-413v-96h434v-51z" />
<glyph unicode="&#xb700;" horiz-adv-x="821" d="M529 507h-443v280h176v-53h-117v-173h173v226h210v-53h-150v-173h151v-54zM313 357v-114h-61v114h-213v53h266q49 0 137.5 3t155.5 17v-53q-63 -14 -149 -17q-80 -3 -136 -3zM660 243v603h61v-603h-61zM720 -91h-484v280h484v-280zM659 -39v176h-363v-176h363z" />
<glyph unicode="&#xb701;" horiz-adv-x="821" d="M529 514h-443v273h176v-52h-117v-168h173v220h210v-52h-150v-168h151v-53zM313 367v-109h-61v109h-213v52h266q49 0 137.5 3t155.5 18v-53q-63 -14 -149 -17q-80 -3 -136 -3zM660 258v588h61v-588h-61zM720 -96h-476v301h60v-83h355v83h61v-301zM659 -44v116h-355v-116 h355z" />
<glyph unicode="&#xb705;" horiz-adv-x="821" d="M529 507h-443v280h176v-53h-117v-173h173v226h210v-53h-150v-173h151v-54zM313 357v-110h-61v110h-213v53h266q49 0 137.5 3t155.5 17v-53q-63 -14 -149 -17q-80 -3 -136 -3zM660 247v599h61v-599h-61zM657 61q0 51 -43.5 84t-106.5 33q-64 0 -107.5 -33t-43.5 -84 t43 -84t108 -33q63 0 106.5 33t43.5 84zM719 61q0 -35 -15.5 -66.5t-44.5 -55.5q-29 -23 -68.5 -35.5t-83.5 -12.5t-83.5 12.5t-69.5 35.5q-28 24 -43.5 55.5t-15.5 66.5t15.5 66.5t43.5 55.5q30 22 69.5 35t83.5 13t83.5 -13t68.5 -35q29 -24 44.5 -55.5t15.5 -66.5z" />
<glyph unicode="&#xb728;" d="M686 316h-544v429h214v-53h-153v-324h209v377h273v-53h-215v-324h216v-52zM35 97h756v-55h-756v55z" />
<glyph unicode="&#xb729;" d="M682 482h-536v326h210v-53h-149v-221h205v274h269v-53h-211v-221h212v-52zM35 368h756v-54h-756v54zM631 -105h-62v248h-400v53h462v-301z" />
<glyph unicode="&#xb72c;" d="M682 471h-536v337h210v-53h-149v-231h205v284h269v-53h-211v-231h212v-53zM35 332h756v-55h-756v55zM664 -86h-475v264h62v-210h413v-54z" />
<glyph unicode="&#xb72f;" d="M682 486h-536v322h210v-53h-149v-217h205v270h269v-53h-211v-217h212v-52zM791 323h-756v54h756v-54zM654 -92h-466v303h457v-53h-395v-197h404v-53z" />
<glyph unicode="&#xb730;" d="M682 523h-536v297h210v-52h-149v-195h205v247h269v-52h-211v-195h212v-50zM35 417h756v-53h-756v53zM655 -96h-467v206h386v100h-392v53h453v-203h-386v-104h406v-52z" />
<glyph unicode="&#xb738;" d="M682 486h-536v322h210v-53h-149v-217h205v270h269v-53h-211v-217h212v-52zM791 323h-756v54h756v-54zM575 -39v199h-326v-199h326zM188 212h448v-303h-448v303z" />
<glyph unicode="&#xb739;" d="M682 500h-536v307h210v-52h-149v-204h205v256h269v-52h-211v-204h212v-51zM35 383h756v-53h-756v53zM636 -96h-448v354h62v-106h324v106h62v-354zM574 -44v145h-324v-145h324z" />
<glyph unicode="&#xb73b;" d="M682 482h-536v326h210v-53h-149v-221h205v274h269v-53h-211v-221h212v-52zM791 302h-756v55h756v-55zM427 126l264 -185l-36 -46l-256 181q-17 -25 -42 -51q-86 -90 -193 -129l-32 45q87 31 168.5 110.5t81.5 160.5v8h61v-16q0 -39 -16 -78z" />
<glyph unicode="&#xb744;" horiz-adv-x="821" d="M534 387h-448v345h178v-54h-119v-237h176v291h211v-54h-152v-237h154v-54zM721 846v-926h-61v926h61zM595 171q-64 -14 -150.5 -17t-144.5 -3h-261v53h263q49 0 137.5 3t155.5 18v-54z" />
<glyph unicode="&#xb748;" horiz-adv-x="821" d="M534 456h-448v321h178v-54h-119v-214h176v268h211v-54h-152v-214h154v-53zM721 846v-703h-61v703h61zM595 300q-64 -14 -150.5 -17t-144.5 -3h-261v53h263q49 0 137.5 3t155.5 18v-54zM735 -86h-470v257h61v-201h409v-56z" />
<glyph unicode="&#xb74c;" horiz-adv-x="821" d="M534 506h-448v291h178v-51h-119v-189h176v240h211v-51h-152v-189h154v-51zM721 846v-526h-61v526h61zM595 375q-64 -14 -150.5 -17t-144.5 -3h-261v51h263q49 0 137.5 3t155.5 17v-51zM738 -96h-477v208h394v99h-399v52h461v-200h-392v-108h413v-51z" />
<glyph unicode="&#xb754;" horiz-adv-x="821" d="M529 468h-443v319h176v-53h-117v-212h173v265h210v-53h-150v-212h151v-54zM721 846v-585h-61v585h61zM595 326q-64 -14 -150.5 -17t-144.5 -3h-261v53h263q49 0 137.5 3t155.5 17v-53zM717 -91h-456v292h456v-292zM656 -39v188h-334v-188h334z" />
<glyph unicode="&#xb755;" horiz-adv-x="821" d="M529 484h-443v303h176v-52h-117v-199h173v251h210v-52h-150v-199h151v-52zM721 846v-549h-61v549h61zM595 344q-64 -14 -150.5 -17t-144.5 -3h-261v52h263q49 0 137.5 3t155.5 18v-53zM717 -96h-456v337h61v-93h334v93h61v-337zM656 -44v142h-334v-142h334z" />
<glyph unicode="&#xb760;" horiz-adv-x="809" d="M550 232h-476v491h185v-53h-126v-385h180v438h207v-53h-147v-385h177v-53zM718 -80h-61v926h61v-926z" />
</font>
</defs>
</svg>
